<mxfile host="Electron" modified="2024-02-14T17:14:22.492Z" agent="Mozilla/5.0 (Macintosh; Intel Mac OS X 10_15_7) AppleWebKit/537.36 (KHTML, like Gecko) draw.io/22.0.3 Chrome/114.0.5735.289 Electron/25.8.4 Safari/537.36" etag="07fS8qgYq8ZzK1RNBX5X" version="22.0.3" type="device">
  <diagram name="Seite-1" id="XXYK_2FFhDQESTvK6vhX">
    <mxGraphModel dx="3441" dy="890" grid="1" gridSize="10" guides="1" tooltips="1" connect="1" arrows="1" fold="1" page="1" pageScale="1" pageWidth="1169" pageHeight="827" math="0" shadow="0">
      <root>
        <mxCell id="0" />
        <mxCell id="1" parent="0" />
        <mxCell id="5n3xUrCpq9eOA1VWOiRV-1" value="" style="shape=image;verticalLabelPosition=bottom;labelBackgroundColor=default;verticalAlign=top;aspect=fixed;imageAspect=0;image=data:image/png,iVBORw0KGgoAAAANSUhEUgAABFAAAAGjCAYAAAALueEsAAAAAXNSR0IArs4c6QAAAGJlWElmTU0AKgAAAAgAAYdpAAQAAAABAAAAGgAAAAAABJKGAAcAAAASAAAAUKABAAMAAAABAAEAAKACAAQAAAABAAAEUKADAAQAAAABAAABowAAAABBU0NJSQAAAFNjcmVlbnNob3R4NQjKAAAB12lUWHRYTUw6Y29tLmFkb2JlLnhtcAAAAAAAPHg6eG1wbWV0YSB4bWxuczp4PSJhZG9iZTpuczptZXRhLyIgeDp4bXB0az0iWE1QIENvcmUgNi4wLjAiPgogICA8cmRmOlJERiB4bWxuczpyZGY9Imh0dHA6Ly93d3cudzMub3JnLzE5OTkvMDIvMjItcmRmLXN5bnRheC1ucyMiPgogICAgICA8cmRmOkRlc2NyaXB0aW9uIHJkZjphYm91dD0iIgogICAgICAgICAgICB4bWxuczpleGlmPSJodHRwOi8vbnMuYWRvYmUuY29tL2V4aWYvMS4wLyI+CiAgICAgICAgIDxleGlmOlBpeGVsWURpbWVuc2lvbj40MTk8L2V4aWY6UGl4ZWxZRGltZW5zaW9uPgogICAgICAgICA8ZXhpZjpQaXhlbFhEaW1lbnNpb24+MTEwNDwvZXhpZjpQaXhlbFhEaW1lbnNpb24+CiAgICAgICAgIDxleGlmOlVzZXJDb21tZW50PlNjcmVlbnNob3Q8L2V4aWY6VXNlckNvbW1lbnQ+CiAgICAgIDwvcmRmOkRlc2NyaXB0aW9uPgogICA8L3JkZjpSREY+CjwveDp4bXBtZXRhPgqOeSbWAABAAElEQVR4AeydB7wkRbX/a/MuS3ZBcpAMkhEkYwJRDE9R8alPxax/FUWfmWDO8T3FhD4UE4qiApJzziBIzkFyXDYv//n2ci5n6lanmZ65c+/9nc9nprurK367+nTV6arqCU+1JEhEQAREQAREQAREQAREQAREQAREQAREQARyCUzMPaMTIiACIiACIiACIiACIiACIiACIiACIiACGQEZUFQRREAEREAEREAEREAEREAEREAEREAERKCEgAwoJYB0WgREQAREQAREQAREQAREQAREQAREQARkQFEdEAEREAEREAEREAEREAEREAEREAEREIESAjKglADSaREQAREQAREQAREQAREQAREQAREQARGQAUV1QAREQAREQAREQAREQAREQAREQAREQARKCMiAUgJIp0VABERABERABERABERABERABERABERABhTVAREQAREQAREQAREQAREQAREQAREQAREoISADSgkgnRYBERABERABERABERABERABERABERABGVBUB0RABERABERABERABERABERABERABESghIAMKCWAdFoEREAEREAEREAEREAEREAEREAEREAEZEBRHRABERABERABERABERABERABERABERCBEgIyoJQA0mkREAEREAEREAEREAEREAEREAEREAERkAFFdUAEREAEREAEREAEREAEREAEREAEREAESgjIgFICSKdFQAREQAREQAREQAREQAREQAREQAREQAYU1QEREAEREAEREAEREAEREAEREAEREAERKCEgA0oJIJ0WAREQAREQAREQAREQAREQAREQAREQARlQVAdEQAREQAREQAREQAREQAREQAREQAREoISADCglgHRaBERABERABERABERABERABERABERABGRAUR0QAREQAREQAREQAREQAREQAREQAREQgRICMqCUANJpERABERABERABERABERABERABERABEZABRXVABERABERABERABERABERABERABERABEoIjAkDyn333Rdmz55dUtTBO92PfC9cuDDcc889YcGCBV0D6Ed+u83ko48+Gh566KFuo+lbeJjOnz8/S486/PDDD/ct7W4TeuSRRwY6v0888USgPowFoY7cf//9I1KUBx98sPSeWrRoUaZnrC43ldGm6liVMnST53//+99h7ty53USRG7YJBk8++WS49957c9OwE/iDlQn6qYlnh8VXtp03b16WT55Zo0lgdNdddwWet0hV3qOpjMqrCIiACIiACIjAEgKTmwZx6aWXthkzpk6dGpZbbrmw7LLLhlVXXTVMmDCh6STDLbfcElZfffUwc+bMjuKm0XPeeeeFjTfeOKy00krD4rjjjjvCnXfeGXbcccdh57px6DbfVdKmQ3PjjTeGZZZZJkyZMqVKkFw/3ebXOPsEJk2aFJZeeumw1lprheWXX96f6mifTgKN8BVXXLGj8HUC0Ui+5JJLwnOf+9ywwgorDAWF+QUXXJDV9/XXX3/InZ3LLrsszJgxI6tr+LvuuuvCBhtsEFZZZZWsjtHp33bbbdvCpA7mzJmTNdKf9axntZ2m87PUUktlabSd6MEBnUY6zr7sPUimoygXL14c/vWvf2WciSBV9+CEXqKuxBzRY5yLrx9xPf744+Hyyy8P22yzTaZzYH7NNddwakjQe9xz6623Xpg2bVrmTn6om1tttdWQP3ZuuOGGAMvnP//5bfcohsCrr746bLfddmH69Onh9ttvz84X3SdWziZ12a233homTpxYeE/RgUTPoIMpe1PSVB2rUoZO88y9yDXkOsWSqhvmZ4011gjrrruuHeZum2CAIRH9/exnPztLh3qCYYa6NHnyM80ADBcY6rgfqKvopw033LA0XJz5ovsn9mvH6EP0I/mJ70fzMwjbFDv43nzzzdl9St5j3oOQb+VBBERABERABESgGQLPtJyaiS+LhUaZNdRoXPJWnUYZb9jpLErGN4FZs2YNGaqoE7zlpKO49dZbZ53/0UKHDjidxccee6zNiEDHBIlHP2BsoLwYEhHCbr/99kMdbO4N/FQROmZ0qHfaaac273R4MEbRORvPwttgDIYYMbysttpqQ24YQtBNdFA32mijsPLKK3uvtfcxlnBNn3rqqezao/OuvPLK8LznPS+LC7140003BYw7GCRMrJ5Qb7wBl3pFfBjcEOoNnTQMN/2UzTffvJ/J9SStXpaB60Rds+uUKgB1wxsq8NOpwT8Vf103Rstg0EPnYsA2ec5znhPWXHPN7BDDn9dPOOaFs/DdbLkfMcRRv6n3gyopBjzTYpaDmn/lSwREQAREQAREoDsCPTGg0JD0nZG11147G95K459GI50YyfglQGOTH2L7vLGkM4tRYjQJo6voQHmhQ0xniREqvFW1zgAdBDrXhDGx0Qkc06n2HWvzo219AhjlvA6yGBhVYkYKO8/oEUYQoLdig4uFq7KlLtu1Jg3qMgYTRhXRSeW6c/2pB1YHeMuPkZn6Qr2xvJEe9cqPNuHNto+vSp6a8GNlaiKukYqjl2XgulGvisTXjSJ/I32OEaKelddPvc4b9wL3gU+/12k2Gb83RDUZr+ISAREQAREQAREYLAI9MaCkisgUGzoEvBk2AwpTY+hcbLLJJkNBeDvLMF7ehNnUAN6245cOKQ06Ohm8Zc8T4uDtPEPgGW5LPPhvsjFIo/nuu+/OOj3EyzQA0vBTlGgQkg/eLFvHmXLFU2nww9QT/BAPbystHtxuu+228MADD2Rv52ikMezbN9Z8XoibjhZGK4sDToxsYHQCRgr88DbbrgPnmJLAdAXr2BGGaUtcs0033ZTDYdIUZzqaNJz96AuuGwY32JEO5YWdN7AwmoN6QZm4BpQ5JYwwsBFQlI9yWzmpf3BhyoNdK/LCCA4bKZKK09zo4JJPrpPxJs+EJ2/sW0cdluSTjnpV5kwRolyUkfuAfa438RIH52HC/YURADeuG/XJX8+qDG5tTdcgnxg6GREDe6ZmwJp0qJuxkYG8MD2AN7Nwpey+Q1lWT+waMFWAuk75bDQS9Z5pBRgdqAOUCSMCHdK868N9h66wa2zXKm/L6BMMeKQTly0vTBV3Y2D1Gn50DuFreaOsVt/8GhXUJ8psI/lIj7rDVB7qgr//q+SlyI/pKeIlL+ggrz+4/hj2uP9MqNvcU4RF31D/YimL9/rrr894wIU6i3+YcY0pqxcbcUUdww9103e0vQ4kPu45psWZ+DJYfeOe76S+W5y25Xr6tMy96pa6ig4hX3CmbsCA6Y0poT4xeoS6gD+uBWHLnqMWF89gfgjGQ9LhfiPtorwUhbO487amx6jT1BvqN/cwzzLSJR+cQ+/jl+vP1EjEX1vc42et1SPqA3nk3oCFucOJ+gU3dD8jbNAz6ESE9oSv250wsFEpm222WXZdsoijP/QWcZM37jOJCIiACIiACIjA6CTwzDjyPuSfhjYNDRpJCMN1OY6FRoZ1Ouic0biiUUQHi8YTHV0aRHlCY5nOCI1ojBo0LpkiQkeuCbH4aATS8KJcGFNI14T8//Of/8wahXQo6WAQDkMF4UzIJ53TddZZJzP0cEyj3oSOKW6UgwY/jd0rrrhiiCFhrWyWFzqCNB690Hij8YkfGpQc22Kr5Mczt3B518fON8GZtGnIcm1oUJtwzemY0NiFDXWG6RB2Dckb5SbfNMLpaMKKRrgXRiKQT+qPNZItHP6IjzgwomA0wA+cCMPokTKhs8O15jog1Gd+1FOMKzT+TXzHuSpzRidQH8gLnVo6j3TWMArS8aBecMw1ZR83MxjalIKqDDDAkGeMJHRm6aRde+212XWho0Y5YeeF/MHKOiFcF64d4U3K6oldA+oseSZ9jHzc+6RPZ4MOM6w5hjXp5IkxrzpFgnuKuLk/mxLKRGcuHtUCX+qBCWXEjWsGS+NGXoiDfHmhTFY+797pvl1TmFK/0Jncj1wzE/Lk7wV0L3WSfFMvEO4fL1XjxUCGfkNHUo9hg0HAC/cnadL55Wf61/xw3uqlGfjIP/XexJfB6lsn9d3isy31kOsWXyc7X7ZFr9kzAd1D+bi+3HspIe+Ula3pM/JQ9hz1cXHdzPjIFr2B8bcsL3nhfNx5+zDCaEFe0dfExXMKwxhCPrxOgwNi1xp9SXlTz1quLUYZ6hHxmDELd+qXGZ4JS73luUy8xEd95z7l+Y10ysDqFNuU8GwiL9wvMp6kCMlNBERABERABEYPgb6+BrEODY0XGlBVhM4Nb2ysc82WxiKdfxrdsdAApyHFQo32NpmG08UXX5x1DKxhFofjmIa7b3SbHxp/XnhbSIfcj8ygbHQcacBxjkYZnQ4WBLU3peSDxhudJhqLCI0pe3NIJ5QGJm+CaWQilJNGHj+EhjqNRToohCUvpE1ebAQExzQUicuEDj2GCIS4WDSXdHDvRLrhTCeYa0Rjk44bnX7eNvLmGMEdgwhlxTCAcC0ZJYCBBHf44o9wxhemjF6yYxrddJIot9UVyo4hhsa8cSd+0rO36FyHc889N2NvjXH8pIQOMgYXeHDd6fyQPteA/HhDH3m3Tk8qrjw3uPi6hj/uIToG5NWEfcpL2uZelwH1F+G+oz5juDAGlOuqq67KOoxmnOHe2HLLLYdGnFDHuU4YOQlbp56Qjl0D8kCnAz3hrxNly+tcEgbhviOvlKGqcO2496lT1EeEe8865j4eOlkp4d4mXc5zfaizrL1h8RGGusu9aYIuoANL+hiNqD/UUbhR963+m3+4c9+WSVVdxn2EnkBPWceOvHCd0ZXw9gIf8m+GTc5R1zCgmBERt6rxoseo23at0GHoBjPMEBf5Y4SE5c/0Hu4wwxgMV6sn5Afm6EbTm8QTC/d83foex8F1Ii2YFQlGKcu/+aO+U36MPpZnzhEfdd/XRdy5l6n7bNF7vl5xvqpwTYmD64iOsryX5SUvXNV0qcu8BEEoL89x02HkA11ixxZnlWctfmG1xRZbDNUjC4+7PRtJk+uFwY11iahruKGXcae+94KB3YvoAtOblj9tRUAEREAEREAERh+BvhpQrJFMo6aq0AkxQwgdIzon/GKjhsVnIxBoWPu3chzTqSkSGrj4i4V0vTGCeMzAYX7pOFI+ztEgJR90/uhQmdCAjL/UEBuS6Aj4DhKdZzoUbDF2kD8a/iakQ17MeII7jUJ+iOU7lU4ewyxgyV83nGFiHTOYEBejD+gAwY6OgZWRBi1loMGP8FYRobMW84WRdQbwQ0OZukZavi7QiLXRN/hDPB/Sp87RmaWTAyd/TfDPtbY8cs2sAe6NY3QKeBNOnq3e+nSIp4oQT6dShwHlMLGOu917uJsb18M6Amxtqgp+uIeop3av1aknvpxcb64xRhgv3GdlHUfyF3dWfRypfeIkTatn+MEtpQ9S4XGjnlG3icOMahgW6MBZfrj+5I/rwj1L3bBys6X+mAHFXw9Lk3gIXyb4S+U91mXUW/Jq9ZN4OUbgb/dp5vC0G+WLDRMce+Nz1XipX/ZcIA340OHkfrX6Rh6Mn/lhix/KCDMMOvE9Dif4WnkI48XztbTK6rsPzz46gjBe/8Z+OGa0RewHHU3eTI+QX64DOosfx5Z3mFOXKA8GS88slV4nblXz0knchIl1H8c824qkyrOW8FzLFBN0k+du19m7UW7uC6RpBoxswZhsUxKzRPQnAiIgAiIgAiIwqgn01YBinSrfyS2jR4OSt+o0ktmn4eM7OXF4OibIRRddFJ9qa4QPO9ly4G2kGR78eRr0NpKAhhademuIeX+4Wfp0um3UjPcT78eNPjoKvnx0IHkLR0ecRjUNQkZT0JEsykucju+AcI50ia9TsXJ2wplRGJ4z5eXNKj/7YgmjbGh4WjoxJ9x9HFYOroE1hu2NOCMDUuLLH8fPsV0H4iEvXugoW8eHjgAjWhDqqY0yIS/8cCMu9q1D5OMq2y8zGBSFr8Ogk3QoUywYVbh+iF2/KvXEp0/nEWbeAEl83P8pwwDnTLg/fVzmXrSFE/n29YDr6kdCWHiMQrEBjnMYMn1+KQPTM7h/7c271QHioHykaXUCA8qtT49OwQARG2lJg/xRvjKposuIwwyDqetj186nZUZX8u0lPq4ab0ovEa/de+wX+bF7HR3NLxbKYHzjc3XrSByeY65TbBhI+aMD7euG98M1x/iEcSRPjGdZ3c8LX9W9Sl6qxhX7S11Hf51j/0XPN+4jXz/zrmXK3RtPSDM+booB9ymjoxD/rMkc9CcCIiACIiACIjBqCfTVgGLTG3xDMm5AxQ0NRibQuWGhR3vLRGfVv+309Gks05iPR3p4P93s04ClUWYNdx+Xf9tJA6+oQezDFe2THmWnI0djnaHxTK1guDLGFPLSRDrkIWYfXxufzyY504DF2MTwbbjyY5oPhiLe3sMSP2edddZQFvL4+utiHacddtght/MyFGHBDnkrMobRgaKeYighfd+hslEFRO/dLbk6zC1MnW1TDPLS9LzNj78POq0n6AjqPve+jdAgfoyoZfWdcFWMDJZf6jm6qY5h18IWbckHOstG4Zhf6gHpce192XCnbKl6ZGEpP/E2JaTJvRSP9MmL3+oT+SScSXxN6sZr8dTdwgLdgIEqHhVTN666/rl+vBRg7ZhOBX2OcR7+1AXqPdefKVSxMM2K6Yc2Ws+fj3V1rFe837z9OnnJi6NJd65tlWdtk2k2zQDDGQZUXg74aWhN5llxiYAIiIAIiIAI9JdA3xaRZQE1hrPaW3uKSWORt0i+s2NvzA0DRgMaxkwLsLfDcYfE/LKlE8Rb0rhBT0PXv7HyYers01hnSLm9EbSwxE/nxjphbOkk+bJxnmHYlKmK0AjGL+EoOw1sVvlnHwaWl/htOHkhHcJVEd4MEifhvMTH/lzTnCkD+aDRTJkpGx0TjGHsx9eca4A/31Hgjb/Ps10LOiReGOpf9Rr4cHn7dCrpTGLYI03fweWakT7p0ak06YS5hWULE8oed5xw93Wu1wy4p/zUCfJDeW3qRzf1BF50Lv29bG90PYt4H/7UhapCBwe903QH3Fh4QwN5olzUB/SDN6CgD+FGPaLecxwL5fL1Kz5f95jrQ17iesQ1TBnH7LrG+i8+rhtv3Xybf+o7eYKlF3QfZfD6wZ9vYt+4+SlsdeMlDqYA8Vy06x3rOuLk+ccURRYS51lKR9+kynPU/MZbryuq5oU4fLg4zqaO7drGdQsdz/U13dZUesTTJAOeqeSRa0Y9xPAlEQEREAEREAERGP0EemJAoUNFh5gfDT1GTNChZ8rFOk8vZAo6Go403K0DQyOY4bNeaBwz2oRzGEZSX1rx/umc0KBl8UcaXoTBcMNQ+tg448PV2We+PVMU6OjQgWTkBCMmLG3iYgg9ZcOdBjENMxjg1zohZWny9o0wlIW802hkMUIarzZ/HyMDnOFCXtgnTTqd8ZDpovS4FnDmBzOmrBTxsrJ2wpnrYj/mwJNfOgV0YGk00+iEHXmgLuHXfxXE+NKZNL7UD97ywcyEBiyLktoXOYgL/nzFKG8Ek4Wtu7VOse8QEwfu5JO07ZpZ3HWZWzi2xAUjpi1wvUyo+5QRHtSTXjOgM8814BrRsWG6HfmxxWC7qSeMuiL/TC/hmp1//vlZMWODhJXdthgfuFe84cXOkUfuERhx/xIv+oG06KR2I3TYrV5j+GEUAXmIDTNcOxhRL+I6Qf1BV8AtJdyTlK8pQU+RD/QMeor4uYbc1ynjAzqFMOgb0xXo+Ph+qhtvN+VhEV70ok35gx/5x9jm9UE3aaTCkg66nDraqaDr4M7zhLqCPqQ+5gn1Ap0Pf9JHqjxH4/jIN9eStMxgUyUvqXBx3E0eV3nWNpleLxhg4GIUKXrHpgI3mWfFJQIiIAIiIAIi0F8CPZnCY50IikLjgU4C8/lpVHvBncYgjQoawPhlKDONXxOOMcAwdBnhTR2r5ccNdvNPg5lpH7ztoUNNJ5JOXrzuhvnvZMv6I+SLjgONdhqiNGxxwwCAMCqBfGAcopNGZ5fGZ90FAK0sfNkEscYYjWaEDhfpwpAf6eNmay5knir84R/udKQQOn2wplOYkm4400mwxQOJBy7UAxrLCEYAjm1dA1jSALU6gB86kbzZw+CGcYx4CIMRyXecue6wp8PBG3X4sDCsrVNCXE0IdZk6HBtQ6FxRHjqpXDsvdZn7sDT0uT50gDAGMDwcwXABE1gxWgmjQC8ZkA/uB7vXuC6UC3ekm3rCfbXNNttkdRDDB2VjKhUGFbvPskSiP64F3AljU07Mi90nHPNGn2tj8ZqfTrd27xAenUO95v6FjxfyBCe2ceeb+kMeKUMs1GPKFOvR2F+dY4xR5JH7w/QUXKg7eYYq6hN6FcMkW64119xPO+kk3jr59n7hiwGMewGjGAJHdEYvBQNG6jrVSZNnGdeUusP1Ra/DF6NknmAwIm3uOe4P8lD2HI3j4v4hHha3RX/utNNO2XO1LC+pcHEdjtPq5rjKs7ab+OOwVa5HikEcT3xshi90M9e423oTx69jERABERABERCB/hGY0Gq0Lfm8Sf/STKZE5zbuYHqPdEDpjNVprFG0VMfVx9vtPvHT0Svq0NHJQOrkPc4XcfBGuGj4fpW8xPHGx7y5pyx18torzlXjrVpu6hj8iq5VzKMfx50w9/mCU1wm6gr3Syy9YkAeKEdR/ax6PS3PjKIhjB+NgYHskksuSRomLBxbG43U6060T7PX+ximMSazpg86p2lBx8C7atxVrjl5rBtvN+VCF6C7UnW/m3jjsJSdT8FjvE4tZh37LzvmfoVT0f1TFgfny56jqThiXVE1L3G4VNxNulXV802kOagMmiib4hABERABERABEeiOQPOt8A7zU2Q8IcpOGpZ0Ksvi7TC7Q8Gq5KuOMWIo4miHOMriqZKXKNphh1U7Tz5grzhXjbdquXtdFzyTOvudMPfxx8YTzuV1IHvFgDyUXYeq19PKhrGEUQ4sJswbW44ZecboBm9UMf9+y9t1RuFg1OmWr493JPcZtcVomV6Vp0y/xGWvcs0JUzfeOJ06x2V1sE5cRX6Z6oTBgxFMTQj3a949Wyf+Tu7vON2qeYnD1clnJ377dW3J26Ay6ISbwoiACIiACIiACDRLYGAMKM0WS7GJgAiMdgJMVaEjw9QojAd0Dhn+vk5rHaWyTjnTZ2yqH9vRLqyhw+gCRjxIRp4A1wMjXjxFbORzphyIgAiIgAiIgAiIgAj0ksDATOHpZSEVtwiIgAiIgAiIgAiIgAiIgAiIgAiIgAh0Q2D4IgndxKawIiACIiACIiACIiACIiACIiACIiACIjAGCciAMgYvqookAiIgAiIgAiIgAiIgAiIgAiIgAiLQLAEZUJrlqdhEQAREQAREQAREQAREQAREQAREQATGIAEZUMbgRVWRREAEREAEREAEREAEREAEREAEREAEmiUgA0qzPBWbCIiACIiACIiACIiACIiACIiACIjAGCQgA8oYvKgqkgiIgAiIgAiIgAiIgAiIgAiIgAiIQLMEZEBplqdiEwEREAEREAEREAEREAEREAEREAERGIMEZEAZgxdVRRIBERABERABERABERABERABERABEWiWgAwozfJUbCIgAiIgAiIgAiIgAiIgAiIgAiIgAmOQgAwoY/CiqkgiIAIiIAIiIAIiIAIiIAIiIAIiIALNEpABpVmeik0EREAEREAEREAEREAEREAEREAERGAMEpABZQxeVBVJBERABERABERABERABERABERABESgWQIyoDTLU7GJgAiIgAiIgAiIgAiIgAiIgAiIgAiMQQIyoIzBi6oiiYAIiIAIiIAIiIAIiIAIiIAIiIAINEtABpRmeSo2ERABERABERABERABERABERABERCBMUhg8hgsU1ak+fPnhwsvvDDMnj077LLLLmHmzJljtagqlwiIwCgnIH01yi+gsi8CIiACIiACIiACIjAuCEx4qiVNl/T6668P999/fxbtOeecExYvXhxmzZoVNtlkk2FJTZkyJayxxhph1VVXDRMmTBh2Pna45pprwsMPP9zm/JznPCcLb45z584NH/3oR8Pjjz+eOZHGF77whbD66qubl8a3//73v8NNN93UFu/yyy8fNttssza3qgdVylk1rrHqb9GiReFf//pXuOqqq8JDDz0UHnnkkYDbMsssE5ZbbrmwwQYbhC222CLbH6sMVK7RT2Ak9FUZtXvvvTfceOONZd7C5MmTA3puhRVWyLZTp04tDTMaPDzxxBPhiiuuaMsqZd1hhx3a3OoeSK/XJVbPf+q6TZo0KTz/+c+vF5F8i4AIiIAIiIAIiEAOgZ6MQDnllFPCueeeOyzJM844Y5ibOdDwXnPNNcOmm24aXvOa12QNczvnt8cdd9ywhu1b3vKWNgPK2WefPWQ8IeyCBQvCSSedFN72trf5qBrdv/rqq8Mvf/nLtjg333zzjg0oVcrZltg4Oli4cGE49thjA4yefPLJ3JKfdtppmVFu6623Dm9605vCyiuvnOtXJ0RgpAiMhL4qKyuGyZ///Odl3trOYwDfaKONwq677hq23377MH369Lbzo+ngvvvuC4cddlhblpdeeumuDSjS621IGz944IEHhl23pZZaSgaUxkkrQhEQAREQAREYvwR6YkDpBCdD2BnBwY/G+wEHHNDxyIE5c+YMy0LKbZgnOQw8AUY2ff3rXw+M+KkiDLC69NJLw5VXXhne9a53hZ122qlKMPkRgYzAP/7xj2Ekdt5552yU07ATHTqkdFPKrcPo+xaMe+3aa6/NfkcccUR461vfmhlT+pYBJSQCIiACIiACIiACIiACPSYwMAYUX06Gjh900EHhU5/6VFhllVX8qUr7e+yxR/jzn/+cjTyxAC95yUtsV9tRSoCpW1/+8pcDbxnrCqNWfvzjH2dvxbfZZpu6weV/nBL4zW9+E+JZjkxFZJpYUzIW9dW8efPCT37yk8wYzsi/sTK1p6lrrnhEQAREQAREQAREQARGJ4G+GlBe/OIXt1HiLWtq7RA8sabFX/7yl/De9763LUyVAzo33/zmN8Ppp5+eLSL7whe+sKfrn1TJk/x0T+B3v/td0njCGjdrr712do3Zv/vuu8Ott946bHoPa/H83//9X7YuCusZSERgEAiMZX111llnZYjf/e53DwJq5UEEREAEREAEREAEREAEuiLQt14kc+IZ0p2SW265JXzrW98Kjz76aNvpCy64INDwnjix/teWV1xxxWwtlbYIdTBqCbCo5XnnnTcs/ywg/P73vz88+9nPbjvH2ihHHnlkOPPMM9vcMcyx5gRv/SUiMCgERoO+wtDzgx/8YAgZI3Mee+yxzNh92WWXBYwl8QLfeMZ9q622ytZFGQqsHREQAREQAREQAREQAREYhQTqWyZ6UMh11103aVxh2kWqQd6DLLRFSef7jjvuyH58yScewt/meYQPyN9tt90W+PpAN8LoDIwLGLOYIsPXbAZJbrjhhmHXgUUrP/KRjwwznpBvFg5kzRMW8o2Fr0RVFb6Qctddd2V1oWjB2qrxeX9Wz1jXpZs6RjyMuMHIRH67kV7WA8rI/Xz77bcH1jwqE/xwH7IIdDdi9wij3aqk201aZWHJC/fYgw8+WOa18vl+lo8vmtiPUVwYftZff/3wute9LnzjG9/IXWT18MMPr8WeusJ9wTXr5t4wiE3eIxYnW/Qu+pd8dltPfbx2TQdVr2M4497kGd2UVL030HGk3clUzqbyqnhEQAREQAREQATGL4G+jUApQ7zhhhsO80IHedq0acPcyxxOPfXUEC/+yJdY3vjGN+YGvfnmm7MpP4x6iTvKfH2BETSMWsDY060wxeR//ud/hjU+WZtjv/32K42eTuCf/vSnwCei/aidZZddNjBNivVeyHOZsE7B+eefH/g6Eov30nk2gT1fRdptt90Ci2bG8fHVIabDxPKqV70q8x+733PPPeG73/3usM4Q14RrUyZ0UGLh89d8QrVI9t5776yD4/3wueMi4Qsc1CFGqni+hIEDn8RkWhh8UjJ79uxw6KGHDjvFp7Spz9Sxv/3tb235wn2dddbJvhZUVsfIE1+VurVlNLnzzjuHdcbXWmut8LznPS/sueeemSFpWEYih27qgUVVVGbWvyC/fDkJIx3CqDI+K87Xkfynvuks8/WkE044IVBnOKajTiedL3S94hWvyP1Cl+WFLQY3vgZ28cUXB8rnha8xUa+5n/ncdSx//OMfw4UXXpg5pzrv1GOmiiH+ni1iQIfzZz/7WeAztgj16Ec/+lG234m+6qZ8WaI9+KMO/7//9/8yQwILN3uBDW5Fn5Nl8XD0kRmvzRhIvNxr1GtGslTRF03fI74s1Al0Js8YjKsm1GnqA1+Ry9MN5je1HQS9nsoXbhizTj755Mz4yfUxvYgxbbXVVsuuDc9w7qvU9MhO7w3LDwZ99PHxxx/fxhxDOfoDPfKsZz3LvGsrAiIgAiIgAiIgAj0jMDAGFDoYsdBBjjvusZ/UMW+y6Hx5oXOaEt6g/epXv8o6zKnzuPEWkE4OHTs65LxtTTUS88J7d/LGdCU66V7WW2+9SlOOKBdfoUm9fYPh0UcfnTXuP/nJTxYuwMtb8O9///vJeMgXnQRGCvz617/O1qJhmowfzUGjdYUVVhjqEFpZ/vCHP2TGJutgmjsGHwxHXmhw0yGqIqlpXLBgHZ0ZM2bkRkGe//d//zf3fHyCjj5Tf/JG4FAX6EjQOcdYRGcJY5MXDFFx/eM8TPm8t3WcfRg6+dddd11meHn9618fXvayl/nTQ/tMh+ALJ9a5HDrhdrhu/Mjne97znrbr5rxlu93WA4svr8zcX3wON55+hX86Yl/72tfCf/7nf4aXvvSlWZkwTmCc80Ic9nUXjEYf+tCHslEQ3o/t45fRDrb2hrn7LfceRpK///3vGZ/tttvOnw4Y2FLXzzz5e88b4/IYcN1/+tOfZguqWhx+W1dfdVs+n3Yv9t/+9rdneiGuo9SBlAEFPiz6zZpX7MfCvcHC4vzQw9zTH/jAB8LMmTNjr9lx0/eIT4RrzLWkMx8L5zDYUVcPPvjgQv0bhx0UvR7ni2PKRJnjFwucQ0+awQuDPgYOjGisSeWl03uDOKhH3/nOd4Y9azhHni666KJw1VVXhfe9733ZiCjcJSIgAiIgAiIgAiLQKwIDMYWHwqU6PFU7153CobP1la98pdB44uOmcX/cccdlX3NJNfS939Q+6dFBjI0nvBH/6Ec/WvqlChqrdL59By6VDtMDvvjFL2brE6TOX3755eHzn/98aTwWFqMBw/MxIHnh6xqxIYkRBhghvDDE3d7omztvLvfff/9hxgc7H29XWmml2CkbwcNiwU1Nh8BwgnEiz3jiM8D1p8P3wx/+0DsX7jNqgI5IkZA2i+ViKIiFt/OEjzumsT875i0xHY+8KUtN1QNLL7XlTX1sPPH+4HjUUUdldRWjRmw88X7ZZxRDHnPury996UtJXRLHwzEcMSJiDOulXHLJJbnGkzrpDmr54jIwKmzbbbeNnbNPiVMGLxhHvvrVr2YGlKo6lc4y931qOlbT94jPK/sYJVPGE+8PfYmR20Zp+HOp/UHT6z6P6KLvfe97SeOJ92f7jBTEKJoaMWh+/Lbs3qBO8MLBRm75sH6fe5mvrNkIN39O+yIgAiIgAiIgAiLQJIERN6DQyPztb3+bvbnyBWOEw2tf+1rv1Pg+Hbe8ziWjGjBsxKMLyASN9BNPPLF2fngTH6fHCJuPf/zjgek3ZcKQcUYMVBG4Ur5YWIOChmbckTF/s2bNSpaZhizGBd42mqy66qrZlAo7ti3TUxgZYkI+4s7RPvvsU+vLSAzbj0e1ED88P/axj2UdFgw35I+3nXUFY0I87Ys4GPmywQYbZCNlpk+fPixa6kJsWBrm6WkHFuDM4+7DwApjjhfC0ZmJOTIKiNEbTP3C4Bh/LpZ1Gbhucbgm64HPZ7x/zDHHxE7DjukIM70lNrwN8/i0A8Y4phTEQj1jlEIsTAHZcsstAyOeMNx5gQujrJgK1Sv5/e9/30jUg1q+VOFSnwqnDvsRO4RjWleqc8x9x1S2vCl6XOf4vmv6HonLRSedkXRVhPoZ38N54QZNr1s+mVLF9UnJKquskqu/GVGFrqoiZfcGxipG9FQRRqOkppVWCSs/IiACIiACIiACIlCVQN+m8NDpYQ0IE9668baIBrXv3Nk8cr6+E3d2LGwTWzraDDeOhfncTCnAgMPoCvKH4YMOtheG/7/oRS8aNgLD+/H7f/3rX4e9ucQgwMgTGqNVxN6usRbErrvumuWRqRoMseaTzbHw9p9pJhhFTGjU84Y0FtaWYF0P/GJ8YdTAb37zm7ZrQwcFFocccshQ8Fe+8pWZX//GkfhpeO+7777ZtJQrrrhiyD87lPfVr351m1vZAYYmpk/BMRbyxVtpfghGBNZL2GSTTTJGG220UeF1oi5SrliYKsBwdObZI/hj1Ak/L3DacccdQ8rA4v1hVGJtBKbncA3JN/WKTkT8Np1OAx0CS5s1euKRNnQuGUFlUxle/vKXZ9cOg5w3YDECiJ+fxtZ0PfDl9PuUYYcddsjW5sHgRjkwWMSjsPiKC8JaJ9QNOs9M+cIYd+WVV/oos30MZ35UUt79TFzcAzZSCi4YsqyuEBnXASPTpz/96SxuRkYxDQVh6/UTbqxvY1MUUgZW/HjBWMUXbHbZZZfMGMe6K3Yve39F+02Wryidps6hR1OCPvX6iBEdsaA3WMeJug971mfC6Ot1DGEwoOy1115DwZu+R4YifnqHesIPQxzrC2288cbZyCmm5aHv4nrCiLMqYnVhkPQ6+U5dG6a7veUtbxmaKsPC1RhLeAZ5YaQYU0rLXgyU3Rt5Bit0M2tzwYzRekzjYRSrsfR50b4IiIAIiIAIiIAINEmgbwYUMh2PvogLQocXw4lvYMd+mjqmsRU3eOlk0WH2CwDSSWUdiQMPPLBtGDMdATq5z33uc0uzROOO6Qle6HgxZ5vRDXWEz/bSQbYOISMQeLtO5z0eQUH56KCzsCzCQn4MmY5lp512Cqy7YUIHj1ENvEmMDRZ0Zlg4kQVAEfLBVB6G4XshL3SCWBMlFjqolv/4XNExHSvWCoBnkWCMsDUT6IBTHoxDlMkMEj48nWmupxfK98EPfrBtfRUMeoyKoiPHyBMT3kzDlQZ9kdDh/8QnPtG2cCkdMb+gqA9POlxvJDXiAmODGU8sHGXFaMBUMy8YLMyA0ot64NPy+4yKYf0cW8OGkUTcX4wawiDlBcMadduuEZ0vyv+5z31u2Po56BLPmzfV8f3M+XgUGyPLuMcxAvp1TriXMVCxEKXl1efN71MP6hh3KQ/X3YwuPq6q+02Wr2qa3fjL6zj7+4w6zb3jR5bRIcbgZYKepJ6jS1irygv3B6PN7Ho1eY/4dPw+15A6asZS7rc3vOENWZ2NdR1TLTEmV1nHa9D0OmXGOO+vDdf0He94R1t5+Hw860DFBhTuRe6vvHpgTIvuDYy+sdGYcDwzeR7bPcgzEL3CSLOU0cfS0lYEREAEREAEREAEmiAw4lN4fCEYMsxbYN4Q//Of//SnGt/3HWCLnFEY3nhi7jSA6XzHwlvhMmHKzWGHHTasc8coF76UUkdozLKAZsr4wBQOFt2Nxb+9x/DAG1QvdATsbbt3Z5+GMdOYYonXtGC0DkYYL6xtwNz12GjGVxowlHUidKYoP29Aq3RKLA1G1LBI5Wc+85nkFI9UXeALLXmL05pByuJnG6/x4s/ZPtOW6HDFwuiVVHl4u2uSeqPP1IfUlBVGuPCVJ//jK1ImvaoHFr/fYriyDq65YyBN3WfcD2Y8Mb+MJkoZKT0b/PJlo1gYsZQS0ojrKx2+MsNcKq4qbhgEujGekMYgly/FIJ5KZn78SCsMiiyI638Y1lLCKKZYMMD5kVZN3iNxWnbMAuJmPDE3toyEoQMfS5Upl4Oq11n3yl8b1u9K6SnuZUaXxYIBvkyK7g3/7LJ4YIUB1Iwn5s6WL/GYYd+7a18EREAEREAEREAEmiTQ1xEocQOXt3Px13doENMZ5Y0+IzRSDeduAfAGnqHDsfCmM08wrtD595LXwTY/jGzAyOI7DZzDGJMyyFi4vC0N1bxPNdKg5O1tvJaD72jG50iHBmeqQ8A54mQqRTzdIhUPBiFGuzBlwyTuPDCNoehT0haubMuojd133z2bEkU94es1MeNUHLwRplPAArq8OTVJGcIYkZA3PcOX0eLwnM0t3tpoktiddMhPPLWKt/MmdMCpb77DSD6YTkK8jELiS07sw7lIUtevqXoQp5tXZjpcDL33YiNkvBv7sd6Iz8Mh9aYaIyzXMSUYa2Opcg3jMFWO8xhUCYufQS9fqhx5neeUATEOj2GEa4Gepuxs8xbO9qOOmrxH4jzZcd61xGDEPcyoDS+x7vTnbH+Q9brl0W8Z6cNzm2tjPz+ay/st28/jSbgUO/TUiiuumIyWFwsYW/2npZMe5SgCIiACIiACIiACXRDomwGFN+BMiYiFBhgdOtaRYHqICY1ovrZBJz7+zKj56XTrh5H7OIreXtE4yzNe+Dji/VRaDEfvRFJv7X08qREoviOTMhoVlZm4U+dTZbKh7L/4xS98ltr23/zmNyffYLZ5qnjA217WoOHHqBo64xhsWAeBznGqQ03U1DfW/2DtGZMUFwwz/KpKKo44rDfaxOfyjFjmj1EcTM1hweVYKDM/EwwO3G98MjZ1/VJ5Tfmz+NimzqfqgQ/DfuqtPO4p45SfLoAfk3gEi7nbNlUezlVdyLIsHjvf6TZ1X9aJa9DLlyoLo75SkrcorBlCGVHFvczix3WlyXsklTbT5YqMkynjkDfwpOLEbZD1Ovnjucw6VmzRM7GhFz+dStG9Eb9cIY0i/5xn7SuJCIiACIiACIiACPSSQN8MKHmFYDg9i/KxzgGfFGXxORPmt7M4X9MGlFTDDENN3psty09TWz5Fy1SlVCeyKI3UMGnvP9VBx2Bgkip3aoqO+WebOp+KB78veMELskU/U2+LYRtPmyBME4Jxi9FDfgQRbyFZh4WFdONODJ0BysD8fM410SGAM3EVXdOic1U4MDUHSRlRfHgWX7XFbrm3DjjggLaOX+r6pa6zjzN1PhWPD9OvfW8k7CbNJupBKv3UlLuUvzy3QS9fKt+MCktJbGRgRBX6sKnpU03dI6m8l92/ZedTceI2qHodfcYaWCzkGuvQvLLUdS+6N/yzy+JNPePsHNuqC7L7MNoXAREQAREQAREQgToERtyAYpnFgMGXZbwBhXOMKmAqQ9kbeounyjY1j5sRL3QI4wZ+lfjq+mFaAYt88tWUOpIyTPjwqVEXfppRqtxlXy1InY8XLrU8MGUiL4/Ec84557Qt/GnherFlxAQLHjIag9FNXjDMsQAlBhQ6PTCKG+s0xD07H559phiUNebjME0c00FkYVZY8ktdc58Oa9B88YtfDJ/61KeGPgnb63rg0+/HfrxuiqXJ9LM8oePOKAe/yGVZRzYvrl67j8byxXocRtyLvu5Rd1l8mnsxJTwTKLvpmzx/cdgm7pE4zl4e5+lMSzN1j3vd5JlamJTetnNsU+eNM+d5HrLmSfz1Oc4h6E2ujV0fRg01Lb6MFncq33aObYqVP699ERABERABERABEeiWwMAYUChIqsNDQ463mazx0JTkDSPnzX3TBhSGHNNhJ24vfJVniy22KB2+7cPE8+v9OfZTa1v4xnWq3HG+4jhT88n56kEsrEHyy1/+MnZuO8aQwdcS8jqEbZ7dAVN04jUr6Fyx5kuZsBgsIzbiN6j+rT5cYgPKe9/73mxNkbL4R+I8HVEWs+SrRNQJG1qPsSS1FgHX+PTWZ66ZAoT0sh6MBI9UeZg6xPownY4KGIly5KU52srH4p/x4tGULV7PioWdY6MIBi2mOG677bZtupH7k6+hVZVu75Gq6TThbxD1Ogtrx8YT7iW7NnwaHh1swgLdZeUwv1W3qelSqfWqfHxl571f7YuACIiACIiACIhAJwQGyoASN6atQL6hZm7dbDEq8IuH7NMAzPtCzKmnnpqtneHT5Ss1ZaNIPvnJT2YLf372s58NfJnGBKPAj370o2xB06JhzOafLfmjI5FngLjhhhu892zfr9uSGjGB0QUjVR7jVIM0FQ+doXjRPxYI9GtzMMKHT32+rfXZ4zpCw/3b3/72sC8IwZSGfJHwxjI2nuDfG4EYbRIbkviEJouyDrLAhYUz+fG1G4TryVes4vL4KRWp69dUPRgJXnS0uCe8EYx7DWMSHenRLqOpfIwAyFsHiTV5vKRGqaBTWdcolk5HFnR6j8Tp9/J4EPV66tqwrhJfQIsF/Zq3Tk/st86xf3ZZOPRU0TPQ6zkLo60IiIAIiIAIiIAINElgYpORdRMXnfhjjjkmGUVq/YWkx4qONKpTnxAm/dTCmAz1Z00JRln4X1nnjAXtGNFCB51PLMaCcYKRKFWFqUw//vGPk95Z7yNlQNl8882H/FNmyu4FI9LRRx/tnYb2GbWQeqvoP4mLZ8px/PHHD4VjZ+ONNw4f//jHhxl7MET5xYLbAuUcYNxJLQ7IyBLfaY6D07A/4YQTYueMgTcipOoC02OokymB2Ve+8pXwhS98YejHwrS9FDqlX/7yl9t+qc4CI55e+cpXDsuKN271qh4MS7RPDtTp1DpJZ555Zm4OmEbnrx/7Z599dq5/f8IbQr17r/b7Xb5OysG9dtlll4WDDjooOY2P6+P1JfdWbMAmXT6JnpJUhz721+Q9Esfdy+NB1Oup52DeteG540f0NcUq9flyWP3sZz9LJsF6aamRT0nPchQBERABERABERCBDgmMqAGFRjdfa6BxzDoN8TQNyrTOOuskFzLtsLxDwVILmtIIZFSIn5POSBG+5hG/YeONN0aCIvHTgVhglekrsbAWSt6nVmO/HMPq5z//eWaEgB8dY+LI++II62WY8EYvlee//e1v4dxzzx0a4UG8rGfyq1/9yoIObTFmbbDBBkPH+CU/sbFhv/32y0b58PlnL/hnqg/TmupIqoOMIQYjzWmnnZZNBbA46ZhhXMDIwblYuA5+vj9x8xlSLzTEWdyS/HohburINddckzXW8cev7OsQPo5O9vnCCPeH/x1++OFD18zH6Y0l5u4NRr2oB5bOSG1T9zMdqtT1x+DHtbVrx5ZOIAvuxpJaWDqlp+JwTR/3qnx18okhmUWZ7YeBlUVGuZ/5qhWjxFILC6MH999//7akMIqm7pnYEEugCy64INe47iNt8h7x8fZjf9D0Os/dWDBGx/qQESF8La8XwqLgfgqqpcGCw9Q51kcjP6xH9fe//z0cddRR5kVbERABERABERABEegZgb5N4bnwwgvDu971rraCYJzgVySvetWrik53fA5DAkPKmevthY7xRz7ykWzEA50nFsdLvY1jLnhqkTsfV7z/zne+MzClx7+towHIqBJGF5TFRyefETB0XPjhn8Uw82SbbbYZ9vlZRsIccsghbdzJA0YB3uDSiaRh6vPo4/+v//ovfxhOOeWUYSNKGOFg01/22muvcPLJJ7ct7gdT3Pbcc8+2uIoOiOekk04aZsiiw4YhAaFTBpPUm22Lm05WPEKDBYrf8IY3DDMYMQqF9RxYa4VFaZkSgmEpZsN0oHh6gqXX1JYFlmHtOzBM0+HrVaylw1Qm6gKd+9TIizh/TdeDpsrZaTy8HccQdvHFF7dFQd3AkMI1ZCoMxpOrrrqqrf4TgHslNdKN0WPx9BG+SsJoC+KkoxmPyGrLQEMHvSpfnewVvf3Pi4fpie9+97vbvgJlfhkdx/Xwwgg16rCNnLP1fXy99/79ftP3iI+7l/uDqNfhf+KJJ7YVm/WwPvjBDwZGhmCE5dpgeOSZ1AtBV++zzz7JlwPoQn7xM9BY9iI/ilMEREAEREAEREAEINDXESg0wP2vzHjCfPjUyIOmLt3b3/72sNJKKyWjY+oKi+iljCesN0He6goLJGJEiYURL6nRHrE/1lvxa3cUGU9oSKamDbFeBsaClHBtMBjEBgLz+9KXvrRtMV9G5bCmiReMGK9//euHnKZMmZItdjrk8PQOU5dSbGN/dkx5PvzhD7eNHLFzts2bFmDnmQrBm3Az7pg7WwxiqYWKYcEbcKY5nXfeecPYYHw58MADA4uW9lJYT4ZRTLHwBpgRSN/5znfCYYcdlvxsM29yd9lll7agTdaDtohH8IBrmxoxwhtqRqIwWgLDR6x3MI7RyU9Jak0kOvN0Hhm5VWVqSSreTtx6Ub5O8lE1DJ1sM/ClwmB4Sq3/hKGSzjs/OMN7xx13TEXR5tb0PdIWeQ8PBk2vU1ReMPhnjRWfEaMYlrmXrr766sx4wuLvGBp7IRjOi76O5Z+BGFze+MY39iIbilMEREAEREAEREAEhgj01YAylGrJDkO++QrKf/zHf5T47O4003D4Ukfe3O5U7Hz9BMMLjbVOhDfde+yxx7CgZ5111rC357EnhjPT0cMoUSS8lfvv//7v5Bt1wmEIgS9GiSqCUYSGaWyQOeKII4aNgKFscWN65513HraGCQ3fuuuGYPj49Kc/nS2aWiXf3g9fMnn/+98fdt99d+88tI9x5YADDggvfvGLh9zKdmbNmpWFwRjRD3nb296WNKIUpU3d/sQnPpGsr03Vg6L0+3mOESaf//znSxcW9nlixNXHPvaxYWv1mB86txhYBkF6Ub5elAujIsY+pmVi1MgT7mfYl32inhEPqcVLU/E2fY+k0mjabdD0OuXjmhx88MFt69akyo3BkhGbVZ8lqTiK3DCwMWrTr5+T55+vkmEsloiACIiACIiACIhALwlM7mXkVeKm40oDktEZa665ZrZOCEaGskZ1lbir+KFTgrGB0QWnt6bFpNYjIY9MkeBtWBMjYjBEMFUoXquC6QasL+LXTonLQGfiq1/9ajbdhukkXjB08KlQPldb9NaOMBg1aGwylYY3iqlRJ1wD3vzyVYzYSMCb93i6BKMwUkYv+LEmyte//nWf3Wz61G677TY0XL/tZM4Bi8my4CfXC6MTa52wNkNKSJe3o3wSlelCZXWKxvpb3/rW7BozPJwyxmu7kA6dBuoCcabeoKfy0oQb5WEUAqNJWI+AUVLUIVv7xdLgzT/3EsaisvrabT2wNAdly73zqU99KqvT3M+phZUxfrL+BnW1jI914Fhgmvji0Sv9LnfT5es2//DBOMk9wY9RXIwsqdqhxsDHJ3BZpPvGG2/M1sSyPBEvI/2ox4yOqyK9uEeqpNutn0HR674cNoKI9bXQs/4reVxfRu0xHTLvq3A+rm72qVeMZGKdE6Z4+VEnxMuzDsMZU+qYHioRAREQAREQAREQgV4SmNAaHt2+SmYvUxsFcTNEmSk1fP6WjinDmFmAs8ioMVLFmj17dvbZWqbS0MikIYlBqK5gJGCaA2VmTREMWsTHmhBVO0J102zKP8YTPjlMvjECURYY8OOtJYa5ToUv/Nx///0ZF768Qj2AcZkhptP0OglH+VkLhc4NHU4MJ512aEZzPchjxzQxu5/p7DM6inrdieGLjhv1gfioG9QDDDHxiKu8vPTCvcny9SJ/deOELT+YUp+bkCbvkSbyUxbHoOp11pZiyiDPRO4hjFX9FvQw+o77kPsPfZeaatTvfCk9ERABERABERCB8UNABpTxc61VUhEQAREQAREQAREQAREQAREQAREQgQ4JdLaQR4eJKZgIiIAIiIAIiIAIiIAIiIAIiIAIiIAIjEYCMqCMxqumPIuACIiACIiACIiACIiACIiACIiACPSVgAwofcWtxERABERABERABERABERABERABERABEYjARlQRuNVU55FQAREQAREQAREQAREQAREQAREQAT6SkAGlL7iVmIiIAIiIAIiIAIiq2460QAAQABJREFUIAIiIAIiIAIiIAKjkYAMKKPxqinPIiACIiACIiACIiACIiACIiACIiACfSUgA0pfcSsxERABERABERABERABERABERABERCB0UhABpTReNWUZxEQAREQAREQAREQAREQAREQAREQgb4SkAGlr7iVmAiIgAiIgAiIgAiIgAiIgAiIgAiIwGgkIAPKaLxqyrMIiIAIiIAIiIAIiIAIiIAIiIAIiEBfCciA0lfcSkwEREAEREAEREAEREAEREAEREAERGA0EpABZTReNeVZBERABERABERABERABERABERABESgrwRkQOkrbiUmAiIgAiIgAiIgAiIgAiIgAiIgAiIwGgnIgDIar5ryLAIiIAIiIAIiIAIiIAIiIAIiIAIi0FcCMqD0FbcSEwEREAEREAEREAEREAEREAEREAERGI0EZEAZjVdNeRYBERABERABERABERABERABERABEegrARlQ+opbiYmACIiACIiACIiACIiACIiACIiACIxGAjKgjMarpjyLgAiIgAiIgAiIgAiIgAiIgAiIgAj0lYAMKH3FrcREQAREQAREQAREQAREQAREQAREQARGI4HJozHTcZ6feuqp2EnHIiACIiACIiACIiACIiACIiACIiACA0JgwoQJA5KTzrMxkAaURYufCgsXLc5+7C9uGUgwkshO0vmFVkgREAEREAEREAEREAEREAEREAERGDQC2FUwrkxs/SZNnBAmT5qY/dgfNJnQMkwMxPANDCXzFywK8xcuCuxLREAEREAEREAEREAEREAEREAEREAExicBDChTJ08KU6dMygwrg0BhxA0ojDSZO39hy3CyeBB4KA8iIAIiIAIiIAIiIAIiIAIiIAIiIAIDRGDq5Ilh+tTJ2ciUkczWiBlQmJbz5FwMJ4tGsvxKWwREQAREQAREQAREQAREQAREQAREYBQQYETKUtMnZ9N9RiK7fTegMGNoXmuqzpzWqJPBmDw0EtiVpgiIgAiIgAiIgAiIgAiIgAiIgAiIQF0CrJkyozUaZVprak+/F6btuQElXmLlyXkLMwNKXUjyLwIiIAIiIAIiIAIiIAIiIAIiIAIiIAIQwICy1LT27+L02qDSUwOKN56wLOzsOQvCgtaaJxIREAEREAEREAEREAEREAEREAEREAER6IbAlNYXe2bOmBL893p6aUTpiQHFG06AgfHkiZbxhAVjJSIgAiIgAiIgAiIgAiIgAiIgAiIgAiLQBAE+e7x0ZEQh3l4YUiY2kWEfR2w84RwjT2Q88ZS0LwIiIAIiIAIiIAIiIAIiIAIiIAIi0C0BbA3YHGJJ2SZiP3WPGzWgpDLImieatlP3ssi/CIiACIiACIiACIiACIiACIiACIhAFQLYHLA9xJKyUcR+6hw3YkAhU6mM8bUdfhIREAEREAEREAEREAEREAEREAEREAER6BWBPPtDnr2ik3x0bUBJGU7IyOKWUYVPFUtEQAREQAREQAREQAREQAREQAREQAREoNcEsEFgi0hJnu0i5TfPrSsDSlEG5sxb1BqVkpes3EVABERABERABERABERABERABERABESgOQLYILBF5EmRDSMvjHfv2IBSlDCLuMxfmJ9pnwHti4AIiIAIiIAIiIAIiIAIiIAIiIAIiEATBLBFFH3EpsiWUZZ+RwaUsgS17kkZdp0XAREQAREQAREQAREQAREQAREQARHoBYEym0SZTSMvT5PzTuS5lyW0aPFTrdEni/OCD6x7WbkGNuPKmAiIwIgR6MW35UesMCOUsHTvCIFXsiIwiglI9zZz8aR/m+GoWERgPBEYTfoXm8T0lm1i0sQJuZcIPVi3TLUMKFUU7fwB+OoOkCZPmpj92J84YUIGprWRiIAIiEDPCTD3En3JAlYYlRlCyI/9sSzSvWP56qpsIjA6CEj/Tsw6C2r7jo76qlyKwFghMKi6F9vEjGnFJo+6RpQJrQCVWvRVvOHn8TkLRqSTQMN9yuSJYdqUyYVWprFSSVUOERCB0UcAA8q8BQvDgpZFfKwYU9C9U6dMClMnT5LuHX1VUjkWgXFDYKzqX7V9x00VVkFFYFQSGGndSzt1mRlTKo0yqToSpZIBparxZHGrc/BYy4DST2GkyfSpSxrv/UxXaYmACIhANwRY3Gru/OIFrrqJv9dhpXt7TVjxi4AI9IqA9G+vyCpeERABEcgnMFK6d9mWAWViy5BSxUBSyU/LOFI6AqXMi51nntGT8xbmU2vwDNNxlpo2pTXiZFKDsSoqERABEegvARa4enLeglHz2Xfp3v7WD6UmAiLQOwLSv71jq5hFQAREII9Av3XvUq0pPFNbM1WQMgNJ2fksjjIDihlHshQTf/78nPkLW8PTe7OArE9n+tTJmfFEa5okLoicREAERh0BzNgYUea2dKhJFQVufnu5le7tJV3FLQIiMNIEpH9H+goofREQgfFIoJ+6d9qUiWFGy35gUtbGLjv/TEwWo9v6hrNzHtqNz/diTn+cxszpU1pTdgqzPZQ/7YiACIjAaCCAMRjdxjzN2XOXTINE95Up8F6WTbq3l3QVtwiIwKAQyNO/5G+kdLD076DUDuVDBESgVwTydG8v9G5soyhrY5edz7VExMq7CrzFDQ4+idMH8tLTp2aLFVbJi/yIgAiIwGgjgHGYLyc8MXd+NqXH9GAvHiZ5bCxNOy/dayS0FQERGMsEYv1LWU0f9ksHW3rGWfrXSGgrAiIwVgnEutf0YJN6txMbBfnIy8OSyUAdXBErnA+acvPnq+wTRxwPD5Bll5om40kVgPIjAiIwqgnwRRv0HXrPJNaJ5t7kVrq3SZqKSwREYDQSSOlfytFrHSz9Oxpri/IsAiLQFIGU7m1S76biSrlVLU/SgFIWYer84pZpp3Q12pJcpeIlCCNP+OKDRAREQATGAwH0HXrPC/oxT0d6f53s58Ur3dsJTYURAREYzQRS+reX5ZH+7SVdxS0CIjBaCKR0b1NtX2wU2CpiydO/5i/v/DCrRJ5Hiyi17SRMHE9eHKwLgFVKIgIiIALjiQB6D/0XS56ujP1VPc6LT7q3KkH5EwERGGsEUvoXXZmnLzstf1580r+dElU4ERCB0UwgpXspT56urFvWTuJJhRlmQCnLSBxJfFwWPnU+Lw7mRPGTiIAIiMB4JJCnA9GZeXqzDqe8OPLSrRO3/IqACIjAaCaQpwelf0fzVVXeRUAEBp1Av3VvXlu4iFObAaWTCIi803BFYSe2vkax1LThb1+LCqNzIiACIjDWCKAH0Ycpke5NUZGbCIiACDRDQPq3GY6KRQREQATqEOi37i3LW9zebjOg1A3sI/P7ZfHY+aIwgPOLKFoYbUVABERgPBFAD6IP86RIj6bC4L8ojHRviprcREAExiOBpvUvDKV/x2NNUplFQATqEOi17o31cHxcltfKBpQ4Yn/s98sStPNFYVhEZprWPTFU2oqACIxzAuhD9GKeFOnTvDApd+neFBW5iYAIjGcCTerfIl0t/Tuea5nKLgIiEBNoUvda3F4H+33Ox8cWJrXNb5GnfDfkVpbBGdO07klDqBWNCIjAGCFQphfL9CoYyvyUpTFGUKoYIiACIlCLQJluLNOtJFbmpyyNWhmWZxEQAREYAwTK9GKZXu0VgkoGlDhz/jj1SaCizPqwKX+TWnP9p07WV3dSbOQmAiIwfgmgF9GPRVKkX4vOEad0bxFZnRMBERjPBKR/x/PVV9lFQARGikC3ujeVb2+7iNvG8XEqPG5DBpSqAfIiqhK+ih99sjiPsNxFQATGO4Eq+jGlZ1NuMcsqccdhdCwCIiAC44VAFR2Z0rUpt5hZlbjjMDoWAREQgfFAoIp+rKJnq/gp4unDDxlQigL4cz6w3/d+UvtV/OJHo09S9OQmAiIgAiHTj1V1qfGq6l+614hpKwIiIALDCaAjq+pTC13Vv/SvEdNWBERABNoJdKJ722MYfuR1s98f7jPtkhlQigIWnbMoy/yUnSce/DCEvGihREtPWxEQAREYjwTQj+jJqjq1qj/p3vFYm1RmERCBOgSkf+vQkl8REAERaIZAXd1blGrVdnFeHBa+9giUvAjz3C2hvPO4m58pWvukCJPOiYAIiEAwPWl6Mw8J56v4IbzFmReX3EVABERABJ7RlVV0axU/MJX+Vc0SAREQgWICpifL9CqxVPFTnFr52Vqfu/EZsv1465O0c94t3vd+BnX0ycLrbgrzzrowzL/0yrDgmhvCotvuDIseeCg8NfvJrDgTZi4VJs1aMUxae40wZdMNwtRttgjTdt0+TN5ovbi4OhYBERCBrgh4PYn+nDBh+MKyXq/mJeb9+Djz/I+Eu3TvSFBXmiIgAnkEvK6son+r+PFx5qU7Eu7SvyNBXWmKgAikCHg9madXU+G8m4WLt/gxN++/aH9CKwCS9BO7+2Pbt5VsOZ49/5l47HwyYufo/S2/9PSBmcLDg2P2kUeHOUcfFxZcfb3LcfXdKZttGGa85mVh5pteI2NKdWzyKQIiUEBg4aLF4ZEn5rb58EYUr1PNkz+PW+xHutdIaSsCIiAC+QQ60b/EVqSDpX/zeeuMCIiACECgTPemKMV6d+bUCUO6eOLEJZNwvB+/T3zxsaWB+4SWAeQZq4edeXobN7Lt2LZ468aA4uMhrhWXmREmlnymE3+9lHnnXBSe+O5Pw5N/PLbRZJba9+Vh6QPeFabt/LxG41VkIiAC44sAKvuhx+cMK7Qp+livmkc7z3HsR7rXKGkrAiIgAvkEpH/z2aTOqO2boiI3ERCBugTKdG9efL7tmzKgEM782Nbiio/NPQtT1YDiG9y2z9Z+RGYjUOy8Tyjej/1wPGu5ma1CxD77c7zojrvDo5/9eph9xFE9TXDmf70uLPfF/w6T1lytp+kochEQgbFJgAGDDz62ZPqgLyGKPtar8XmOYz/SvZ6S9kVABEQgnwD694FHZw81uM1nmf7FX8qP9K8R1FYEREAE8gkUtX3zQz1jHMEPBhQEXWw/O85OPH0utW9uts1dRDZuZFuAJrapuHEbKePJ7J/9Ntyz6e49N57ADgNNllYrTYkIiIAI1CWAnrSRfz5sSq/G51N+pHs9Je2LgAiIQD4B9C86M9al8XEqhpQf3NT2TdGSmwiIgAg8Q6Cbtu8zsdTbS+lsiyHXgGIe6m6LEiOu1PmUW910O/X/8Ps+FR5618fCU08Mf6PbaZxl4UiLNEl70OTf//53uPvuu4eydd1114VHHnlk6LhsJw4f+58/f3644YYbwty57Ws4xP76cTxnzpzw5JP9u+51yvTwww+H66/vbO2dOunI7+glEOtNjmM3X7rUuZSbD9PLfene5umW6d/mU1SMKQKLFi3Knps87yTjg0AV/Rvr2/i4n6Skf/tJW2mJgAg0RSClN1NuTaWXF0+tr/AQSZxJO7ZtXkJ57p2Gy4uvqvtTc+aGB/Z9V5h73KlVgzTu74nDjggLb78zzPrjT8OEGdMbj99HeNRRR4V58+YNObF4zvLLLx/WW2+9sNFGGw25Y9xYuHBhWG211TIjx0UXXRQ22WSTsO222w75Kdrx4VP+MJxccMEFYcUVVwzTp/e2zKn0cbvsssvCHXfcER577LHMy7Rp08Kmm24aNttss7wgXbnfeeedYbnllgvLLLNM5XjgyG+dddYJU6dOrRxOHscXAfQnwxCrivcv3dsf3euvzSmnnBLuueeesN9++4XJk2s/fn1Uyf0y/ZsMVOLYif4qibKr0xgl/vCHP7TFgX5deeWVs+fWmmuu2XauykFTZSRvZ511VsCQZffXsssuG3bdddewwgorVMmK/IwiAl6f1s221Y+64br1P97avscee2zghZTJjBkzMl2Bvthggw1a6y7We4/8+OOPh0cffTSsscYaFmVX21tuuSXceOON4SUveUkWzxlnnBGe/exnh4033jg8+OCD4R//+EfYYostwuabb96WDm3pv/71r2HdddcNz3ue1lZsg6ODMU+gru41//HWQJm7HVfZ1tMcLkYSiyXl5v3E5+3Ytt5vL/d5gNy/95tH1Hhi5cOAQ17IUy8FIwG/3XbbLftts802YdKkSQEDyU033ZRMGgPHPvvsE7baaqvk+dHoeM0114Srr746e0DxwNp7772zBxBGlUsuuaQnRTr77LMzg02dyLk+sJfxpA618eXX9CZb24eA3zci3s379+7mt5fb8ah7jScNXjrWCAbc0SKd6K9+lA3D/8477xx22mmnsMoqq2Rs6XzceuuttZNvqowYyOiska9XvepV4UUvelGYMmVKOOGEEwZi1GVtMAqQS8B0p9eneDZ3H9C7ef/e3fvv1f541b/oB+5Jfuuvv36YPXt21val/VtX0N3oi6bkoYceajOuoj94wYg861nPyl5w/vOf/wwYbrxceumlmRF+LLXPffm0LwJ5BExv2tb8xcfmbtvU+ZSb+S/bVjKgdJNAWQbsfD/SsLQYeTLvjPPscMS35IU89VIwlqy11lpDP6zbe+65Z8AaX9SYZ5QKYceCYM2//PLLM8v+DjvskBlReEBtt912mXX/2muvHZhGLm+neasqEYEUgTJ9WXbex1nHrw/Xyf541L3G6bbbbstG3T3nOc/pqJNv8Wi7hMBKK62UGb/hyRtYDBaMPjnvvPOyN7f95kSnjGfM9ttvn40cZMThqquuGl74whdmnerbb7+931lSej0i0KTObDKusuKOV/3LvchIDX5bbrlleOlLX5qNqmbEHtPUR1K8AWXBggWZccePVsNAwstPb+y59957w80335zpGgy0EhEYLwTK9GXZ+SqcqsYx6eCDDz6kSoR5fiwhtgsW5/kabpW3cISw/aVnTMuPoKEzzPt88rd/aSi25qJZeMMtYfG9D4QZ+7y4uUhdTDwollpqqbZhhwz9RxEzZYepPAiNPBao5EGDHHfccdkoCAwpCOeuuOKKgPWbURuEZ4gycSNxeB4Ip59+enjggQfC6quvnk0j4oFFo5eRIOeee272IODtLMMW/XQE4iadCy+8MIuX9UrMz62tt4wMlaaBysMF4UF00kknZVZ7y0924uk/0mXazgte8IJhwzYxpND4nTlzZlYeghSlz3nWKIEBhg7eSFx88cVZPjkmnvvuuy/wRpK1VnirwDBNOC699NKBod6UizC8XeDNNHmwaU2MCuKcXRc6BTAkrnPOOSdL9/777894+AeozzNr2XBv2dsM8vz3v/89S+Nf//pX1tEgLOlKRheB2XOWrK3A/WL60987lMaO7byVkOP4nHRv73SvcWeEG29C6eRzzzOCwhunGT1BJ5yh5SamQ9CX+OXaoX/RHRiDmQ5EYxtDOBLr3zI9QxiGkKNfyB/h0QnoKUs71l/oW4bFmy4jDsRG963TmnaImK5BlxE/+p7ywcAPm4cFug5dytB4nicnnnhiwEBi5coifPqP9UWIixcC9lyy8zxjKA/TVW0qTxGDvDJW0dGWpm3R8XRqmA7qnz8Yw3mecp1s2hYcKC/XET4827judl/as4XnyJlnnpldc8KfdtppYe211x6Kh7RJE77UEbiWPQPsWQJrnls8R4hTUp2A9G91VmU+R6LtS57QL6zvxwtEXiiacEy7lLYn7Ux0Ce1OhDYnbugUttxrdu8UhbO4/RaDCLrqrrvuykaXcB+iE8yIgj4xXYkB6Kqrrsr0HfvoAc7F03p8/NoXgbFIwOteK589N/OOzZ3t1EkThp6zFi7e4s/c4n2OTSqNQDHPedu4gZ7nb6Td+doO6440LdP22DHwW+6QA7uKmryRx34JCppOthlLUulicPBrp5x//vnZ2hw0TlkXhWuP0SK10CwNXRQ9W6akeOHhQby8OWQuKY1vOgQmGEMIS/yMEMEPBhAanIg1Ir1VnnM0MmfNmmXRtG0pL8YC32kxD3QaGG5NAxwpSx8/5B+jC3mg08CbDYxRrPGC8KDDjfQw9LBP5wDBqETjnXVXtt566+yhSaeB8Ahx2xotHNPgpnNDY5kwG264YdbwpfNhwjUgXm58uFJW8sKD3oRGMw9pDFbkx3fWzI+2Y4MA906ebs5z71XJe6V7m8pvr3Uv9y8NZDr96AJ0AvezlyeeeGLYCDga0+gBu1406jHEMieedTWY4ofeoEGfkjI9w9ofdBbQpxiWWfuKTjWGmTz9RV7Ik+kqSxedQhlM0DUYe9Bl6H/ixjBAmiac50dngFGBGADITyp+C1O0RY/T2UF/mxQxyCsjYYvCWdx+a88WjEHxcHsMMmYchxvPNvKIDsbwwTW1Zxtx+mcLzyT40eHD0OL54Rf9TjmoU1WeAdRFRkPxLMGIx5QGSX8J2P3cr1THu/7N40y7Ep1l+pMXWRiyuZef//znZzoLwwUGW4R7xfQ39y5rqCBl4TJP7o/rj66yeoBuxFjKfY/4F3kck0+eHegWDN3oWq17AhmJCAwnYPfV8DNLBmwUnU+FyXObnHeiinvVTMT+/HHqc5xV0q7rZ9Edd4eHP3JQ3WCl/jGaLHvwR4f8sf/Yod8Ojx7yrSG3Ojvkcfpeu4dJa65WJ1ipXxQzo1CsgUvjljeLDDeu2oCiw0+jiyHJKHwE4wujLOgM+LeBXFfenHGtMUzYmzfLKG/o6AAgGB9408jDgTcB7POQ4CHGmi1mCcQ4QqOWhxajKnbcccdshAyNQToaNFr32GOPLM7UH41L0qoiVdInHtKFoY3yYPQJPOgAYCyhY8IbP/JubyowKDGyhIY+DWsEow9vbDHI2NuO7IT7o+FN+YwlXHh7SfoI/DCIeK40qs3AY1GRxyJO5k/bwSfAfWb3B/ea7eflfCzp3rwydureK91LftBR6DUbZYABmo5vVd1rZeJtJR1u02PoCuJBD8XrJVXRM8SH7rIFtIkPvUtc5Delv6yzYXkq2tKxR08j5BkdzZta4iXPdE4wIFv6uGNIQA92KpSHN7uUHynTtakyVmEX5w+9zPOK594xxxyTcYUnz0h7PhCG0X88j1/xilcMXTPOn3zyydnzz56j8GF9Fx+WegM/qzf4ofNmOr/qM4DyMYXXniVxWXRcjUCR/vW61mLzbqO97WtlamrbS/2bl0e7tzBmYsS1exhjBYJuoM3Mi0Z0FMYTXsSZDrN4y8KZP9vynGZqDu1mdKJ9pAHDCO1G04fmny0Gk6OPPjp7kYhONYOs96N9ERgvBNCfNpK1Sts3xaXTcBbXRNvxW6/kU+6p8yk3H7Zsv9vwZfE/+tmvN/qpYgwnaz5115DxZN7p52WGE/KBEYXzjEqpK3zimLw2LVbRaJzxw6LNGy3eaNIJryI0alHaZjwhDPGyGCtvRE24lkwz4U0XxpZUIy0e9WIdAh5OCA80Hl6+Q0ieicsa15SDIYw0GhlVwUiVoocKBggMClWkSvrEQ0fDHsIcWweJt815Qh5o1GM8oQHMA9QaU0WfVcbI4lnywMcIZkYxGtIwIT77YSyhsc61MPHXz9y0HV0EmtSXTcaVoti07k2l0YRbr3QvecPIQefX9BkNdIZ/c//WEe5njNjobO5r0yW8sYzFzhXpGeJD12HIMD1CPjGiNCHoKC8cY4hHSBdBz3uJnw3+XJV9yo0+5VeFQSrOTsMxWuS1r31t1tnhWcRLC6bBnnrqqUMGHZ4N9rbZ9LRdP2NCngjvny248ZxEz/PcQDCA8UywkZNVnwE8p/yzJItMf5UJNKkzm4wrVQDp3xSVJW7c54gZW2ljoZu5JrTFeOmGwZgXjkXSaTjau/4e5/7nZVtKrA3POXvxlvInNxEYywS61Zep8OZm25hfnntXI1DiRFLHccL+2O+nwjblNu+ci8LsI45qJLpsqs7BzxhH4tEmc08/NyzXOo8RpdPRKOR15rvfFKbt3NynyRguyMgNs3QbDN6GMS2HN2VlSpmHCG8UywRrPVJkzIjjwS95ZOQGRgAaiLEf4iSP/mGGpZ7FX5mXX9bw5sHkwxJfSnhwVk2fPHvhgcyDzgwi/pzfp0NFp8XyE8fj/dp+7MeOScsMLww1teGmFo4t6Vgj3RoN/rz2Rx8B9CcdcttSgngfN+u0e33LvveLv15Ik7q3F/mL4+yF7kWn0TDG4MH0FIQGO/wZmeLn38f5iY8ZVs6IMkZpMLINIzhrbmD0SEmZnmEKB/lChzKVBp3Lc4I4mxDTURYXnXarh2Y8YqSLl/jYn6uyT6eEt7iWdhmDvDg7DYdRHa786HzxjEXXM92SYf/2fGSUSiz2PMA9pacxfsOQODA88SacDh/PHD0DYpr9OfZ6NN4nB3n6tx+5k/4tpmwv7MyIwf3KtGfuL9qAVdpypFA3HPGTNnqB0di02Xgm4Mb0SbY8F7wO4EUh+cHoTZudrzT688Ul1VkRGDsETM/alpL5/dSxL33s15+rs9+IAYXMdCPdhi9L+4nv/rTMS+n52HDCiJNHD/1WYOuF4/tO3zcbgWJGlE4MKeS5SQOKz6Pfp/HFdBVGdZQZUDhvjT8fR2of5c6QZBr5DGuOhRER/i0nDyt+PExoQPNgsAahD4ubzyeNXOoP8TE3nFEqeYIBBT95N4/N+8fQUDX9vLSK3OlMsc4AnZQ9WlNyrDxHHnlkUbDCczDj4cqQb95SSsYHgby6XLX0o0H3xmXxa01hsI51cOy/7nHTuhcdhWDsMLGGL6NJvAElNrzGxxiKd9lll2z9EUZyYPhgzj7TMRhV4KWKnqFzR6eeEYT4Z2QLo/lozOctUGgdQntra2nGeTX3vC2GcoS3vP5ZYJ2avHBF7tRnuFiHqAqDVHydhGOEIwz8VCr24ctIERYBRxiFg87HGFZXYG+GE551xMvaNYieAXVpduffdKfdD3Vjs/B1w9Xx30Tbt056TfhtWv8W5YlRgNw3/BAM3Bgx0bHoU4ywGJZNh+fFVTccusD0Ae1e8mEjq0mf0YD2jCBN7nOmJXKvYxxmuveVV16ZTX/My5PcRUAEeksgOYWnV0n6B4bf71V6xLvwutYK9388tqskaLCvfNofsyk5mYHkBfuG+1q/ooY7a6DcMWH1YdN6qmaEPJP3XosZRFKjPeK0aZRiwIgbuDS4WQTPhOHENI533nnn7A0Zb+BisXTNHeMFgpGDBgnhzc380KjF0m+NY+aLYpVn6s4mm2ySvZXlYZQn5IsHU2qEBoYV1i4h/qrp56UTuxMfjWsThnBj7KBhDXfO28PT/NTdEgfsGMLthfLg5tP357U/Ngh4fer3rXTeze/b+V5sm9C9qXxN233HoRF+0/fYKeWlK7emdS+NbxZ9plGOgdN+u+++e2a0sKkzGI9jPeB1LQYLdAf3NKMQGI1Ag5pGfmrKYBU9g04lffQHRgzWU2Kev48v1l+kx68or1UuAG9SKTPTSM34Qtl4nnQqPA8wyNhoxCoMSCsuY9VwPp8Yw1ijgDLEwrWzZyzPL+K3MptfOlGplwZ23raUjQ4VP66DGc70DDBC/d96ner3yQnH3s3v9zKnVfWvb9/2Mj9V425a/+aly/oj9kVI88N9uU7rBRRtRe4tJNZzNirF379VwlkabDFY8xzgnmXKH1PdWROFdNnn2WBCm5ZRMZYv9Ajh+fAC+lsiAuOZgNenfr8fTHpqQKlSGPNj26YLPfvIozuOklEnGE4YQYIwXafMcBInhiGFcAjxsG6Kf4Ma+/fH3eTdx8M+DTgMEvbj4cEwcL58Q8ebX5nw5oypPnzKjcYbDVUauxgkrHHo46AhjqKngcwDxgsGFIY0Y21nGDsPCEbDWDy8/cQd6z9+MHDYZ4vtTS75pxHOoorPfe5zs4cRo2nyhPwQL3FSbh6MDK/nLS4jQnh4mXGmSvp56cTuNHDhTQOZhyFp8PC1dQe4JpSlW4EBb5BtahDM+doDQ/7924xu01H4kSdg+tK2cY68u9/3/nC3n3dvar9J/dVUnqrG01TeMYCgY9BtsWAAoZGOnkOYR49OomHM2hgYXvz6VNzDrC3FPU28dNRZYwOdEq81QnxV9AwdiOOPP35oXQ10EW9G0fMmsf7CHWMLb0T5kVfehnpjj4Ut2tJ5oKNAekcddVQ44YQTwp/+9Kdha6LkxUHngecQ01hIn68RUR4WW0SXI1UY4C8uY9VwhDWxNbtY7wSOTFHienLNfB3AmIbxH3fKznOUIfmE850yizfe8vxjZAvPVTpVcDTRM8BI9HZrOtW2cWp57t6f6d4qfn24qvtVdRjtUtq6vTBGV81r7K9q3uNweceMUEZX0I60UXvcf9yzLGJtwn2P3mUUG/cs7VsbKWJ+uP+4T2n3ovuQKuEsvG3RX4wmsbWI0BXEEwt5oP3Oi0ITRi/zkpER3lV0hoXTVgRGOwHTl7YtKk+Rn6JzRXH6c11P4Rn0m3fO0cf58lbarzpdp1JkLU8YUfjZKBYeWByXCXlf7vMfL/NW6Tzz3PkxygKh0YXxgbnzrIviG2F5EWJ5p8GL0sbgQMOdoY+MNPENbh+eBh0PI4wfL3vZy4ZO8clKHkAYMniAYNywrzXgieHJ+LH543Q0zA95xSBBw9niJA4eMAxn5w1dXn4w6PAw4iFpnwAmLPP+/YO0LP2hglTYYYg+RhumNO3RmrJD457RJ5SfPPAWlrfTdAC6Ea4lb5BtPQPighnXp8r17SZthe0/gU4eAJ2E6bRknejeKmkxdTIcusRn0SjAKnHl+WlK96JnWN8ppY8wiKAL8MNaTvxoVKMT6RzTmMaQS+faBP3L8bHHLhlVie7g/vZTYMwvDf0yPcPncdHj1nlHz8ZroKT0F7oaQw6dEASdy8LYGA7qCPl+9atfnU0NpZPDs4hnCkbgMp2FoYkfwrOM8pJXb6yqwoDwqTKWsSOcF6ZX7b333tmz0Z6znKc86H0zcjF9h2OuMUYj7knyz2gim87p403tYzjh+QF3L3oGeBq93Y91Kcdldba3OWqPvVf6tz2V4Ue8IKSNG68PONxnvktT+tdS4IWdjXrmfsRgiu5D13mh/cRXtKwthk5jLSN0tAk6C3eMtRhkuOerhLPwtkXXe4MJx+h7L7Sd+fQ7Ot6vKUg9YwrgP/7xj0wPxOF8HNoXAREYTiDW38N9lLtMaBlAhi1g4iNO7ZsbWzqjCPtzFj7zJsTcspNP//lwdh43c1911nLee9f7DGG8Z+Ph628URWzKHz80zlPrnBSFT52LDTL4qTqSZdVrzwyTN1ovFe2IunHNMMh4pd5JhniLSkeiaIQE6fDGrenGCUPXqb+8BSiKu6n0ScuXE4a8ieSB3rSQZ9KytxtNx6/4RpbAPQ88mulN6q39yJHVY+qW7fucmq5laz/8DYLu9flkpJ4JuhLjM2IGE3QqUtRIx4/5zzzX/Bsp3YuewKhRpFuZkoc/Ou1lwnUu0zNV/MT6i3TR39QfG+5elpf4PIZw9K+th8J5OgyMmnvd617Xtp5IHLbOcZXyEV9cxqrh4rxw/Rg5yXpaRfo9tW5KHFenx3oGdEquPFxd/Us94j5hi7C130jrX9O1RbrUiFTRqfaiEN2L7u5URkr/kt+q9w4vkHmxaFI1nPnXVgREoB4BdC+C3rSfHWcnnj6X2sdtxuRn2sb0kYgDibfeLd7nGHnmzl9y3Ni/PSgswvjY3Hu5nXdW9WkRPBi6na6TKgtx+geKNeirDpesU4ZU+r1yo7IVNfCrpothxBsVUuHoJFjlTp3v1I23fbz5K4u7qfTjcpJuUeO603IRjjzLeNINwdEbNta11lDPK1HsP89fHfeR1lumz6tOl0yVbaTKgJ4o063c21WMJ5Srip6p4ifWX8SN/u7UeEJ4pi/xtpeRhgyxZ7g603EYSUHcTUmV8pFWXMaq4eJ8woQpWWX6nevYZDl9PvQM8DT6tx/r0/g4zknZ+dh/leNe6C5ry3ajU6vk3fz0ogwWd9m26r3jjSfEWTVcWfo6LwIi0AyBIv1adK5K6l1N4ek28bYMPm2Zb3Pr8mD+pVdWjoGHA4KBo4lRJ34kC/HaiBPcadxXFcowM7yxqnf5EwERGAcEnmq9+Wr1jBsq6bBBiF3HW0f3phIzQ7Ods+N5Z5xnTtmWr/CkhE/JIwwlR6pMmcw8uj/pXgejR7sspMh0HRZgZQFVRqOwRoiGpPcIuKJthECe/u2sTTx4+jcFydqtLOLdD5H+7QdlpSECo4wAtoLG2r7dlb0rA0onSccPmPi4kzjzwiy45oa8U23u3qLOQ2L6GTt1PPSb8DTe7WFDQmY8aUu04kHVMlSMTt5EQATGEAH0J2/J/TaveKZr422e/27c6+qtzLD8dMM8NpIU5YORfGYswV83Q8bjdOqWIQ6v43ICjPjg6xP8JCIw2gh4vYse9mLnzM30bt6xuTexHQu6ayyUoYlrqThEQASGEzD9Gm+H++ydS8cGFP8w8PuprKbOp9xSYbtxW3TbnbWC85YTw0cnby1jw4m9MfWGlFqZedpz3TJ0kobCiIAIjD0C/dCxedTq6i3eapquxIBi+1n8h7aGRkej9ux4mN9EhtDn/q1p1RGGdcuQSFpOIiAC45hASgen3JpG1C/dZSOtq6yfUreM/SpD3XzJvwiIwGATQMfGBm2fY3/e73s/VfY7XgOl6CFQdK5Kpprys+iBet9IpzFuo0VodFf95DAPEb/OCXFk8UTDzTspV90ydJKGwoiACIweAkP6NTHtcehcojhF5xLeu3Iaab0Vj2LB4GI/P2KlqJAjXYaivOmcCIjAyBAY0qPSv0OGaW+gbuqqSP82RVLxiMAYI5DQvUUlHNLZRZ46ONfxCJQO0soPUhNGfkTtZ56a/WS7Q4UjRo7cd/q+wSzrRaNRaJD76Tq9sMJ3UoYKxZQXERCBMUKAh0ORtT1VzGceKM3Pvye9qnrLRpL4TxMTPl7bZNjUnNaoFBPv1+Kzc6ltllbqRORWtQxRMB2KgAiMIwKx/o2Pi1GMrP4tztvInpX+HVn+Sl0EBp1APV3bfGn6akB5ptG+pCDxcfPF6zxGFh2kYc7IEowo/MxAEhtOOk9FIUVABESgWQKph8qg6lpbvLtZAunYTH+nz8pVBERABKoRaH2EOLQ+olnNc8tXrH/j48oR9ckjLxAR2sA2Hb1PSSsZERABEeiIQKrt21FEFQNVNqA0qfBTcfFAalomzFwqPPXE7I6j5cFxx4TV20aj2IgUIuU8bzNZyNC7d5xgIiBlkIiACIiAJ5BqwKf0qg/DfspPyi0OV/e4W91bN70i/+jwTkS6txNqCiMC45NASo/i5kcH5vlpmli3+te3Z0fKgCL923StUHwiMPoJ5LV9vZ7tppSxzi6Kq+M1UIoiHZRzk2at2EhWGI3C20sTHihD65y09nspTZWhl3lU3CIgAoNJINVg70dOB0VvDZv6U6Pwg1KGGlmWVxEQAREIY0F3jYUyqCqKgAiMDIF+tH17bkDpRyHyLs+ktdfIO1XbHSOKNcZZoLBbq7yft1+UmSbLUJSOzomACIwtAqNB93rDdNP00dHd6Gnp3qaviOITgfFDYDTo30G+GtK/g3x1lDcRGBsEutHTPTeglCLu0QKypDtl0w1Kk++XB9ZNsfVU6jTsB6kM/WKldERABCoS6Ep/Nj9t0nI9CHqr6mKxlud4OwhliPOkYxEQgQEiIP3bs4sh/dsztIpYBEY/ga50bzPFr7wGSjPJPRNLN1afZ2Ip3pu6zRbFHvp01n+pB+OJjWSpkvyglKFKXsv8zJ07L1z1z2vCqqs+O6yx+mpl3nW+AoGTTz0jHH/CKZnPzx/8yTBzKa2ZUwHbmPOCPq06B3SQdC8j+/x8+6YuDCNbuhl9Qj4GQffOnz8/XHnVEp25+mqr5uJBt86dOzcsv/xyuX50QgREoDcERqv+zaNBG5W1/fxI6ZRbtgbgGe3+zC0v7qruvdC/CxcuDDfedEv2rFxvvXXD5EmThmWn7PlY9Tk7LGLncOttt4d773sgbLzh+mG55ZZ1Z4bvLlq0uJXnm7MT6z1nnTB58oh124ZnTi4iMMIE6ujeprM6pu/EabtuX4kXDwka8b34lj0ZsE9r8gCq26ivWoZKBR0hT7868g/h6L8cGy674qqwYMGCLBeznrViePUrXxYO+szHw6RJIz8Qqpdobrr51nDbbXdkSey2207Jh3an6V99zbXhd3/4cxb8M5/8iAwonYJUuEYJ1NFbGDuaNKJ0omdTha9ThlR4c3vgwYfCltvtbofDtquu8uxw8Xknt7lf3tKV3/ruD8N5F1wc5syZm51DZ371SweFvfd60ZBfGg8f+fjnwl/+elxYtGhR2G6brcIRv/jfsMzSSw/5YWdh69w+r35juPqa68Jf//SrsPVWg/FyoS2TOhCBUUQgtZhhWfbLOudl4aue71Z3pUZJd+NWNd/eX7dl8HHd8+97w4cP/Ey44MJLAkYUZMqUKWGXnXYI3/7GF8LKK83K3P7vV78Lnz7oS9l+3t8r93lp+NEPvtF2+rbb7wwv2PPVYd68eZk7RpFrLj+nzQ8HX/vWD8KvjzwqPPTww0Pndt35+eEH3/1qWGnWs4bc2EHvf+yTB4d/nHhKyzi+JF6MJy/YfZfwvW99qdTw0haZDkRABBon0HjPtZMHRC++wAOpyRutF6ZstmEpNDNqZJ8nfvrzbaWBCjz46Tp4o4PAlyAsnYKgbafIO2VoWs47/6LAb9837j/0o7EeS3w+5ScOEx//+Zjjwic/+4Vw4cWXDhlP8EOn4me/+HV4x3s+PPRwiMOOlePfH/Xn8Jb935/95jw5Z6wUS+UYYQJ19WZKN6fcmihWVd1LWvEi3d2k35TxpEnd+/DDj9Qq0qOPPhbe/f4Dw6mnn501oqdPn5aFR2e+870HhN/8/k9D8R3+f78JR/3pmLDHbjuHd7z9zZme/exBXx46bzs/+vEvWqP//hXeuf+bZTwxKNqKQIMEvC71+0VJVPVXFEfqXB39mwo/0m5N6t+77/l32OvlrwvnnHtBZmTecIP1AiM5eJl32hlnh732eX3WHu2mzJ879CtDxpO8eA754jfC9//nJ5nxhFEsSy01I/N61jnnhz1b+fPPCQze++739swwjvEEvzNmTM+MPyedcnp42ave2CrL4ryk5C4CY5pA3bZvr2B0NAKlV0q/F4Wc8ZqXhQVXX18aNQ1vW6OEkSgMQ6xr8CAccdiIE8J3Eo9llrw3LRhBvv29Hw2LFoPKTs9/Xtix9UPMyGIeOUYI+9EPvy8ceMD77VTu9vIr/xkO/MRB2XmGlh/wwfeEvV7ywsAD7evf/H644KJLAw+Dnx7+q/DB978zNx6dEAERWEKgSPdyzoYXe395+71mWlX3kg+MKIwERH92IhipiaMpaVL3PvzIEgMKI+1+f+TPh66R5XVq602ol49/6tBw1933BAwn3/3ml7IRJ3fceVd4y9s/EG659bbwvR/8JLxh3//IRu6dedaSr8B99YufC6ussnI45m/HhzPPbv8y3A033pzp7XXWXit84sAP+aS0LwIiUIOA16WpYF4Hp873062O/iVfjAJsciRgXNY6OrpJ/XvscSeGBx9aMuLjm189NOz3+v/IsvbzXx4ZDjr0q+G+++4PJ5x0anjTfvtmunbjjYe/dL333vvC+z748SzcWmuu3la0U049M/CbNm1ay5C9Uyuu09rOc3D9DTeFn/78iMx9++22CT/+4bfCiiuuEHi59olPfz7Lw49+8ovw6U98JPNDe5v2M3Jwa5Q2xnHky1/7Tjjsp78MTAG69LIrwvO22zpz158IiMASAnk6OM+9G24dGVC6SbDsAdRN3KmwM9/0mvDYF76bOtXmhrGDUSLLtUag8BBZeY8/ZiNH6jTKmzKcWMbIe5PijSdmKNlxh+2GkjA3HNjHUOKF4eQodjPAlBlRfnjY4UNW+W997fPhpXu+MIuOB9Dvfv3T8MK9XpN1CBh+7g0oNPh5y3rBBZeE21sdh2223iIz7ryz9RCx+Z+/P+ov4Ve/OSqL74jD/yf84Ic/CyedfEZ4/PHHw047bh8OPegTQ8My6/glwkceeTTwcD33vAvDtdffGLba4rlhl513CO/a/y1D6eOPNwCH//LX4dzzLw6XXHp5tv7AlltsFj70gXeHDdZ/Tli8eHF45WvfknWG8I+8/k3vaHV8Joc//vbwrIPE/XDEr38fTj/z3HDxJZeHtddes1XW7cL+b31T1iFaEmrJP2ud0EG65NIrwjrrrFXJiOXDa3/sE+jFQ6JTalV1r8WPDsaQ7deMsnOpLQ1ypI6OTsWTcmtS9z700BIDygrLLx+8vk2le+ddd4djjz8xO/X+9+wfXvHyvbL9dddZO/zssO9kOgKHRx97NKy4wgqZ/uTNJMYTZL11186m/Twxe3ZYeubMTAdhxOZt6ze/dmimczKP+hMBEegrgUFt+6JHe2k4McikUVVXN6l/r79hyfohTNl53WtfZdkJ//mG14aDP/+1wHW54Wk/K6+8UuAXy+cO+UrmhFH7na12oAl69eAvfD07/NAH3tVqfz6R7duLDPN3TqstafK9b395qG2K0ebU085qTdM5NfziiN+2XjK+NxttgsFl2222zHT8u9/5XxY0G0GIAQW5/sabZEDJSOhPBEJ2H8f3Xa+59M2A0u+Hh4FjKONS/5+9qwCQq8i2FVcICS4BdlkCBIeFBYLvwkLwEFwXCA4LHw2WYMHd3T0EDS7BF3d3CBpISMhMZGaSX6d6bvftmve6X3e/193TfQpmym7Z6cmp6lu3qoZuZhpHj5WknL4QPMgeP7AqwaI+zEFpou9OKUTLHlYn0tHnOI/vaOUJvrxrZUlYP4IUJFIPlCjaYiWojvfe/9AlYyIQ5YnIde3a1Zww/P/Ms+NecEmYeOaYo7f7QrCdPVo04bffRdRp96Hhf/ud993Z044dO5qff/nFxt9zMsNPOM08bHcZxD348GMGZ17vvyel8S9EFudOd9/7IKekQH34Bznu+ZfcD0zgL7VnVdE+/p6PGj7C7iDcL826XQ7cd/KU7eutN1xhVlpx+XQfRQgXQsK1zGpx/kg7+eIoExzawtlYjOuJp8aZ++6+yfTtO5fLw/iHHXC4axcJsOKBwmXD9dd2+fxFBKoNgUK5F/13SpRxGb4VpbS+0BAySbq4uVdMs+e2d5jA/c+ew//yq6/N8ssONMstu7TjExnPp59+IUG3U4qysNTDsZ7VV1vZ7Lrzdul8BPovsrCt6xtngo47Ur77/gfHGVCewEERDIXr7rvukFd54wrwFxEgArEiUO1rX31RbKwDL7KyuPl3yy02cRtyUHZgAxCbYXCw1JPPBveahDmsJW+9I2UZudsuO2TdVXLF1Te6NetfreL6oP33Mmeec3FgNVCIwGHd618G/tNPv7i8Rnu8G5YlA5dZyuy95y7ux2WoX6/YzTo4rEFhyUJHBIhA5RAomwKlckM0pvdhwyIrUNBPKFHwI8dx+s/+wVmj6IkGC3u9U4pFfSnHdXx80OckHKxKoihPwtqGUkUsUc6zSpTRrUd+fHks/L8f/6NLXmapJf1sF4dSxVeswEwdyhOc+bz4/DPMQGtOiSM+0M5DSbLcsstkWaugok8+/dzccv3lTvkABQ++RLz+xtvutvW/2ZvWtcsnO/LUs9wXDuzqXnvlhU5JBGXGQYce7aw//r7qStY6ZGc3IYvyBLsa/z14mJ38vnfmmDC/v/CSK80tVony9OP3OdNNuej1wXtvNb169zI9und351tFeYILYPfcbSc3GUOBAyuco4872VxzxQVu9/iQ/xvuJnvcGo/PYNmBS5u77d0HWnGkx8kwEagGBArlXr/PoiwR389PIh4398oRnjnnnMPsuc8h7tii9BuWI3fbYz04kw8Hizc4vKaFRffBhx3rLOJcov2Fy1/vuPkqp2xG2nrrrOWUuzBFxyIe3LPVFps6cVxcfZY9KokFO/iFjggQgXgQwBfvcu92FtPzKPwLbi0nv+YbR9z8i4tisVmHo49YWw1aa3Uzy1oPwyoEl70eefhBzso5rF8X2XtL8BoajugcuO+eaTFsYl182dUuPurUE9yltOlML7DCcgNdCup5ZtzzZqN/rp+Ov9u60YgErCGhQNFu9H0Pmfftxhvynn3uBbc2PnXEcGflrOUYJgJEoLwIdCxvc5Vprdug1Uyv3bN37qL0BJYnYiYOaxQoTOAQFuUKJh7I4SeuSQh9RZ/jdFB6xOXymaGjnc+sAkAcjqVEcVj844w/HI7B4LUJlD35pGPTXzBefPl/baoadcrxZsMN1jFDh2xp9thtx3T+d/ZmdN/lk5X7A3bbZXt3MSN2DDYfvLEZvOlGrioc64H7Xyue2PU9e9RJBib2uB191KnHmyFbb2bmtbe644gPnqmb2551FYcLzJCGHQRpa/nlljEw14fSCIqRww7ez4m/3HrvDJ7dww403IEH7G0OPXhf888N1zWXXXy2WSbgvK4T5K+aRkB2zqp9kMVyb6XGlQT3Tpo02Q0HSt1PP/vcDNt7d3c0B9zy88+/umN9YqUCxSlcQ2OjOeTw4WZ+a04OqxNYs8HBOm33vQ5yYfzCpbBQ4D7y2FNWaXuV+cdqq5iz7Es9+Ps4cvhIdwnt2WeMcMd5MAdss90eZunl1zQ7776fs1xJV8QAESACNYcA+Tdl2Ys162rWgg+v5ODIDKyKYZECK+rVVg2/RwSbgHfcNcb9Xey6k70nUR3vOXXUeY5fN7NrQ7ykk8uts/Ya7hJYyBxoN+NQFneiDNnhP1nFJkz4LSuOyLP2MnFstD31zHNWadfRHH3EIe4FyzaCTCACdYBANa1968ICBX9TfU472jSOGWtmT20s6E8MliiwPNHWJlJBXMd1pD74HXr3dH3Vae0xvFj/RdLdFhPFdEJIAEd0xK2yUuoLA+K4fHGF5Qe6Bf+7732YNrsU2QFWISFONP2IT7eTpe9yyeL4DKxX4K6+9mZrcfJYujguEYN7q7WPchRn6aWXdGaZIvivDdcz+Ini3nn3AyeGo0GrrPHPdBFpC3exQKH0iTLrX8fupoiDNQoWAB9/8pkk0a9DBIrZDdWTkA4nAV+x3JtEX3LVmRT39u3bx51Vx1OZF503Kr2Qxp1GeFUHSpQX7QsRuO+kj7VSEYedyNtvujJ979JhR57gXtzBi2ZY2PdfZCGniL3w3NMMFMPTZ0x3Z+ZR/lZ7PxSUvdsP3copgmGGjhfPOnXsZBXNW5g77h5j9tj7YPP0Y/e6nVVpkz4RIAKFIVAM/xbWQmnS9c6/D4193CktcCcd7rPbeqvBzgIFlh3g4CethfF1V18UuG6DJTGePYayG5tc4qAMx1FxWKWceNyRkhzqL7LwQuaGay5xnIujOnKPCY6tg7/B7XC42853e9pNwQ3sUe2PPv7UPP7EswbHvnGE/vqrLirJmtxvh3Ei0N4QqDT3Vo0CJelFfKf+C5m+F5xiJg7LT3b+H5GzMrHn8nHBLBwUKnFZm/htoY/oa1KuXJYoME3Hu/Y4jvNp6/lPf0wwMf/8y9SO61prrG4wsYjDxKRdd3vkBW7GjJnuKTqdBwWLuI5WqZDL5ZKd6inXBtiLYMXZ60nMkkv8NX1fAZ6Wg/Nf0BD5KP7UqQ1pMd0WvkT17NHDmenPmNlkpk3P4IKjRdr5cZ3HMBGoBgRK4d5y9j8p7sXCWy++ZUw4vggTcliXYUEOBcqii2YUzzieI5dmo8wuO27rFCgI4/4jKFDEwXoNP3AwLT/tjPPdbunIE452aXjCE+2MPPFodxk2nsm85ba7nfJVrFucIH8RASJQVgSqee1bTiCS4F9ge8KIUe4ybbxCdt89N6U3vHAv1NobbuYU2Lgk1t/4wn0ko+990EGw0w5D0hd1I+HcCy9z6XgsAC9Jinv/w49dEHfpnXvBZWZlazkIa2E4WKm8NG6se04ZG3Dgb9y98o7dFBQH62Tf4aUd99rONlu44+OD1mCI8MkAAEAASURBVBtspkz505xpj2c+MPoWX5xxIkAEyoRA1ShQyjHeXvvsZGa++Z6ZeuXNRTUnF8wWVThCod77727QxyTcEfbuk6H2SAgu0cI9IUEXxEZpVy6RjSK7gn2RBpefvmpNx996+70250yPOHaE6w92Zt945WmDF2zE4YZx3Dci7tPWuwGwK6u/VEh+HD5eB8LLFrBEwbnYww/dP7RaWMTgxQwcr9EOSiFYqWDixl0EWmEDOeyCiFtpxeXcnQV4NQivEoW5adacXxwscHAPgjjE6YhAtSNQKvcmPb4kufeqa26yFiM/mIEDl3IvP8hYoAwWpbG8ooMjfuJ69+opQef/MTl1FAiRhRdeICtPR46xdyf9OXWqufC8052CBnnCU1jww4mPdCpQHCT8RQQSQQBrgUrfl1Kv/Isnin/7faL7XAcuMyCtPEECNp8G/G0Jp0CB5TE4c47evdN/AxdcZK1PrKIZr/ccbI9Oaycvq31gFSb48R2OCl1w8ZXu8m4oUGBl+N348U5ss003dsfNpcwjj17ognPN1cfMP/98Low7rX7+ZYK7ZByv+4iDJUt/a90Ny2SMjY4IEIHKIVBRBUrSmvcgWPtecYZptndjTH/kmaDsiqV1H7yhQd+ScvIsMUz/8ONbouCMqK9UGWpfw/EdFDBwuIzWl/dl99x1RzPuuRfdJHTgoUfZ3c9j3KWHuFTx4suuccoTlNnG3hkCRQMW9ZjAMJFdbC/u+tcG67pd1DH3j3UKGMiuap80TtLhyWScNb39znvdji/OvOLir5Psc3d4IWMZOwnDXH5FawqKewcw8eJ8Km5Nx9OhBx9+rOsrvpTgLhQ4bU2D3Qrc1QK36sor2idLnzSv2Vc2YG4PRQrc9Tfdbh56+HHTpWsXc/N1l5mlBixpcFwHk/k5dldjKbtLgbtP7rznPvPCS23vhHGV8BcRqDIE6pV7p9in1XEJNp7AxNHGQfYYHszCTz3jPHcOHx8T0uBw4SEuysai/DL7DPz66w5y90DBku+scy9xMrhgdhWlRHWJrb9Gj3nQXlL4otvZ1Bd0L2Jf64Eb33qx9/etRxUlvbU4PSJABMqAANe+GZCTXPtCIYHLtb/6+lu3VsIjAku3PmqAy1tff/Nt1xHcQ6eVJ1As3/fgWJe3w3Zbm4UWzFZYb7DeoLQSOjMSY61JPjDYRIPSZfAm/zIrLp/aFJw8ZYoZsv2ebmMN9Z09agQuZ3HrvHvvf9hVseN226Sr6tS5k3vO/omnnnXtgMtnzZrtLBDlnsB1114zLc8AESAC5UegogqU8g831eI8o68xEzbd1cx47pVKdSGrXTyDjD4l7UTh4RQorYoQaVMUIyIDSxNJExnxoyhPIIuLXU8/+Xhz7AmnujP7OIOPy1O1FQYmmP2H7emqRt6lF51p9t73v05+1TX/5S5glSeNYd6ItpN0p44cbmCGCTP4f6yzibsRfbzdPcYuBvp3SOtuAF7iweSGJ0JHWOUKFD6TrVklvhhht2mYvdxRHL4QifvvEcfb549PNh+8/YLZc/cdzZNWWQOct99lHzexw/QTpqNwhxy4j/vShfDxx/6fOfn0c9yLHFqxhcUAFgV0RCAMgWrYAZW+1SP37mAXxriTBByCf+cLLjC/5YopaesTmHEv38oR4I6TjjvC7LzH/s46bdAGm7ljPeAgXEqN/BNtfpAV3q/2AsIR9nw8rOhOO/k4gdz5a6y+qlvUu1e/bB0PPPSoe+4YzyjTEQEiUB8I1CP/HrDff8yxx59i/vxzqtl0yx3dPSizZs8ysN7FRbLYnNpvnz2z/gCwRgbfgmexDvPdcccc7ie5OKz/oEDpZa0HL7eX/IvDptc29u4VbAbi9UbcvdK5U2dn7QwZPEk8/JjDRNzstvP25j4ri7Uv7smC0hx9xvoQDi+67WwvtaUjAkQgHIGk174dw5uu3ZwO1nRv3kdvNdB8V9qhD+gL+lQOBwXJD1+/7xQRUEboH1GeoB8I6zyER99xvfvRcvn6jNdsThlxrLsPBbKiPMEEsOP225gxd99kcIRHHM6hXn7JOe64DxQWmEDwhQAv8txxy9UGZo5JOhzjwTOh2PnF/SbvvPu+++KDCfCmay81G9rLvOBw3wCeTsa9Bbjr5feJk5zyZDF7h8HVl5+fdUv6vzfawD5zvJ+zpsEXoJYWq2Sx/8Ey5cZrLzFD7dlWvNqDy2ChPMF4Rxx/lDnmyEPTQ913n93d6zsw4YSD+SmeJt1y83+nZRggAtWOQD1yLzhl7AN3mFVXWdEpYXGhK47ugAP3+c+u5rKLznLp8tnBGuWB0Te7l72wAMCCHIt5/Nu/6PxRBpwa5I4/6XSnYD115LFZL39BFs+5n3vmSMdlWOR3sl8arrE81btXr6CqmEYEiEANIlCP/LvzDtuau2+/3m1QYe2FS7hxh9Rse5wam1v3W66FckMcnpLHBbFw29sXzmTNJfnF+rhAHGtnrN1whwmOisPB8viqy851ihypG1Yzjz10t4GVCS6wxatsUJ5AoQNly6MP3pm2bpEy9IkAESgvAh3sF9rZfpPavFDC4kMWX4IlrsPTmjuk06VOkQvyXZpdILr/rL/wfP2kWNn8SQcML/pOlFI7iXP3SR7bKbV/cZaHZQae6PzZvmazuH2aGBd6QZmQy+GiVrxIE/UZ5Fx1FZOHLy0wl8RTorgtPZfDUZ657IWQ+FKUy+EYTkc7biiHfIc6unfrmvVUni+DOM6+zj333G3uVwmSZVptISA8+sOvE92/HyjibCDr35L/7wplkCZlgUgqbJkX/Gt/Fpl/7rIDVY/ci2N+eHWrX9+5DO478T8r/0PA0+5ffvWNO6sv96T4MoXEMV//YvkDVjB0RIAIFIaAcCj5tzDcfOlKrX1xNwnWoVh/QakM5US5HdaVeDwBTxYvtmh/AwV7LidrZ/ztYc4Isj7MVZ55RKCWEAjiXllH+T7GLWkS7tE5pfJAunwPg+/LiTx8OJ2fSrFp9a5AARAN195hJh1+UsFPHAuIhfp4LhM3jid1YWyh/aE8ESAC7QOBWlrAA3Fyb/v4u2MviQAREMWzMUGLeMHHX2iDs5Em3A25VLiyCmz0g/wLFOiIABFoLwgEca9wru9jTJIm4TgVKG23wdsLijH2E4qMBT96zvTafbsYaw2uCm24thJ6bSe4VaYSASJABKoPAXJv9X0m7BERIAL1gQD5tz4+Z46SCBCB+BGoKguUBeft6443xD/M6DXOeOl1M/XCa0zj6NQN3NFL5pbsOXQz0/uwYabboNVyCzKXCBABIhCCAHYuZ9mfnyZMcpr1uI7wLDRvP2vOmPtIXUiXYksm98YGJSsiAkQgAQTIv4WDyrVv4ZixBBEgAm0RCFv7ipWJ76MGSZNwnBYoVaVAWWDuuarmXofmT780DbeNMdPGPGKaPvys7ScZIaXLsgNMjyGDTa9dhpjOSy0RoQRFiAARIALhCGABjzPUP//+R6wKlAXn6UvuDYedOUSACBABd/SG/Jv/D4Fr3/wYUYIIEIHCEAjjXlGS+D5qlzQJ16wCZd6+c9qXT6rvZWUoU2a88JqZ+dZ7pumjz03Lt+NNy28TzeyGRvfpd7BPlnWap5/ptNgipsvAJU3XVVYw3dZZnUoThw5/EQEiEBcCUKDMbGo2EyZNiaxAkbZRVlwqnDmDP2+/PqYbuVfgoU8EiAARaINAMfyLMljEk3/bwMkEIkAEiEBkBMLWvqIkCfOlAeTXjAIFg8JTYnYZ7yaXPvZy1d49y/OcrwBKnwgQASLQXhDAInxq43QzeWpjrAqUueboRe5tL38E7CcRIAIVQaAY/g1SoKDzs2enXrNEPvm3Ih8nGyUCRKAdIRC29g1TnEi6DDFuBUpVXSLb1Nwi46RPBIgAESACAQgkwZNJ1BnQdSYRASJABNo1AoVypb+IDxp8oXUG1cE0IkAEiEAtI1BtPFk1ChRMMjNmNtXyZ8+xEQEiQARKRiAJnpxO7i35c2EFRIAI1D4CcfMv1r7k39r/u+EIiQARKA2BuLm3tN4YUzUKFAykuaXFVJuGqVSAWZ4IEAEiEBcC4EfwpHZRdji1PMK6DMLNzc3kXh8kxokAESACCoG4+FdV6YLkXx8RxokAESACGQSS4t5MC4WHqkqBgu5Pmz6j8FGwBBEgAkSgDhAQftQKkLiGLXXHVR/rIQJEgAjUEgJJcmQj17619KfCsRABIhAjAsK9Sax9i+1m1SlQGqbNLHYsLEcEiAARqGkEkuTHJOuu6Q+FgyMCRKAuEBCOTGIR3ziNm4d18UfEQRIBIlAwAsK9BRdMsEDZFChRJ5zmlmbTOJ1KlAQ/c1ZNBIhAO0SgYdp0e3ynObGeo260QUcEiAARIALZCBTLv1HXvk32GCXXvtmYM0YEiAARKJZ7k0aubAoUGUiUyeTPhkYRp08EiAARIAIWATzhls9F4ddcdURpI1d55hEBIkAEahGBPxumlTSsKNzMtW9JELMwESACNYhAlHVpFH6NG5qiFChJdxQ37XInNO6PmvURASLQXhEAH4IXc3GvzosSDsKC3BuECtOIABGoZwTAvzObmnPyL/DRvFsMXuTfYlBjGSJABGoVAVn7Rh1fGAeHpUetN0iuKAVKUEWSVkwnO5gOrrgu+8eUBjNr9myplj4RIAJEoC4RAA+CD8UJTwpvSno+X8ppOUkTH3nkXo0Qw0SACNQzAmH862OiOVSHfTkdFzn4Eib/aoQYJgJEoF4RCOPeQte+SeEXuwKl4I7aiUM7mUiaW2aZSX/8qbMYJgJEgAjUHQLgQfChLLCzAPD4Mysvb4TcmxciChABIlDXCITxr1vEF8i/2RxO/q3rPywOnggQgZwIhHGvK1Qg9+ZsqMjMiilQsieS4N5PsWdOp0zlfSjB6DCVCBCBWkcA/AceFBfGm2HpUk77UWTJvRoxhokAEahHBMi/9fipc8xEgAhUGoEkuDfuMVVMgRJlIB07djS/293Xxul83i0KXpQhAkSgdhAA74H/wIPlduTeciPO9ogAEagmBIR/oyic4+43+TduRFkfESAC7QUB4d5KrH0LwSjxlXm+yUfnIyxxbZ3zy4RJZvoMPm1cyAdLWSJABNovAuA78J7vNEciT/jSl8uX5+djogqqi9wbhCzTiAARqGUENP9qXtRhjN+Pa0xy5fllISvyXPtqFBkmAkSgnhDQ3KvHrTkS6cKXWqaYcCn1JK5AiTQgPWO0FtCDwlWyP/06kS/zRAKTQkSACLRnBHDrOPhOX6HdsWP2eXk3vgDe9MetedTPS8Xb1qvbIvcGo8ZUIkAEahOBIP7VVJvmVJ1YNBRt+Tddv62T/Fs0sCxIBIhAO0MgiHv1ejQ9nAjcq3k0XS7mQEUUKEEDC7tVF7L4wW28+FLxx5SpMUPA6ogAESAC1YEA+A08B74T7ovasyBe9csGyQSloZy0T+71UWScCBCBWkQgjH/DOFJjECTjp/lxlA9Kk3TkkX81ygwTASJQiwiEcW+UsYZxaJSypciUVYHiD9KPy0Dk3BOUTCIj/m+Tpphff5/EJ44FLPpEgAi0ewSwSAavgd/ghO/ggwfhhBcRDlM4uzwpgEirk/okHuZLG+TeMISYTgSIQK0hEMa/GKfQqXCjS7MMXIjz+dePS13SBvlXEKFPBIhALSMQxr1xrX2TxK5zkpUXVDdmjNZd19nW1w5AIg2Ty6xZs6wVSoNpaJxu5u47p5mzdy8tyjARIAJEoF0hMGVqg/ndKk6amlscx2UW0TkW6bKqtyMNW4znAkE4NSWDdrI5V8qKHLlXEKFPBIhALSGQi39DuTUH/4aWCQUtxb/CtVpM0si/GhWGiQARqAUEcnFv6PhycG9omYQyOliFRJuVs1ZgSFh89ANh+YFCQ/KmNWcW/JIm8tJ/SQ/yZ8+e5cSQp3+ki2gLP3DOt3LdunUx/frMaebo3dOl8xcRIAJEoD0g8Kd9onji5Clmxowmt80pihP4mXDqCCMW0vKTGlsqjjDSte8iOX4Fca8oUDTvIkzuzQEks4gAEWi3CJB/2+1Hx44TASLQjhEohXs7dMg8eOCvfSUOaMLCPTqnVB7IxzobvvwIpFJWfL++tJxVRCSuQEFj/qJd0vx0KFEkDUoShO3/rT4W9JKWUrIgEzJdunR21ii9e/Uw3bt1lfHRJwJEgAhUDQK4YXxqwzQDzXtTU3OK5BWBg7CzST01EYhCJUX0HR3nCbn7vgxW0oVPJV3i2odsMdwLPu7atQu5V8ClTwSIQNUioPl35symlKI6Av+CHzM/0fgXIKR4tc0S2/F3HPyLOrj2rdo/N3aMCBCBVgQ095ay9kV14NUovhNS8ojXlAIFA8IkkJlMsq1QsECHg55H5LL8dH6mHBb0Pbp3M91afUww+ALSyf7QEQEiQASSRqDF8hK4CxPFtOkzzAy7WIePRbuQf1op4mnBZaEut4+LQgV9TuW1XcBLnfCFSyVNxyUsHIo6EU6VyyivkUbuBTp0RIAItDcEysW/wrHia5wkTThX50kafPwI/0JG0si/GjGGiQARaA8IJM29wEC4Fb4OCz6SFhSPU4FS0h0ofiels7l8lJHJQ8tJuoXDnsbPaOzx5QETSVBbbuKx+fAhJ/XiSwp+EJc08aVN3Yakad+X13kMEwEiUH8IBHGQRgHcpZ3Iw/fDLu6lo6zIirwoWdJ5rW0I34mcbjdqGGXBc1KH678dgnBfEPeKvPPJvVGhphwRIAIlIiA8FVZNJfjX74twqp+OeFiejAv91+vSIP6Vesm/ggR9IkAEkkZAOCqsnXJyr/RF/LA+lSO9JAVKrg5icLIQh5wfDy2LLxU4smP/kzIpoKBUyf6CIl8iUJfOlXK6jVQdmS8H8oHrPgbJ6zSGiQARIAIaAeGVXGmQkZ+0nEqTvGw/xZmQR7rzwX+tYZcQ8gvymtekfIh4mmdRdz7uFc4VH3U6dXerIsZvG/nSvvSJ3AtU6IgAEYgDAeEXqSsojrSs9Na4pIuPOlLhDG9JOcdbtlw+B3nhOqlPx/3yaXn0iWtfHx7GiQARqEIEhBd11/w0xOUnLafSJC/bL557022oAOoOc7nywsro9MQUKLoRP4xOY0LxfS0neUiTQfpltDzCTomCupXFiq5HyjtZ2z6c1O0irb9yTXZajmEiQATqC4EgvhAEdJ6EA/1WQtd5Ooz6EJc0iUs74ku+74fJSznJ13wYlCdy8EVW/DZp1hrFCqXlpKxwqV9O8uFrJ/I6jWEiQASIABAQrgtCQ+dJONDPwb9QDEs7UlbiQW2G5emyWgbpwoXi+/WKjC4nsuL7Zbj29RFhnAgQgTgR8DlN163zJBzo5+BeLS9htKHD0qak+X6YvJSL2y9ZgYIBgNTjcOm6bJ2+Jh71404A3IUiu58ymYgPGRduXcyn60OG5wT4oL5LnlckNBpUR6gwM4gAEagaBAr9tx7U8aA6JA2+hG3AFddpQQt2ufsEwlLW1oJIurzkFco9qC+oTDod/bV0ri0A0VYQ96LvOF6Z5mMr5/qrlOMo6zsZU1g/fPmgeFDZIDmmEQEiUL0ICBeU0sOgOiQNvoQ1f0paKfwrvCd9lzolXoiPso7TCuBfKSPtonwHrn0LgZ2yRKBuERDeKAWAoDokDb6E4+beUvocZ9mSFSi5OgPw8i10c8l0tM8VzbKv8siHgLpkIY80fwGf1Re03WqJIm1IPZCTfuk0XV7ydVpYOKyOMHmmEwEi0P4QyPfv3M/XcbewbR0y0uUHSbKIT4WzlSQuzfJgmNNtaBmkC4fpsC+DuMjpPOFepEl54V6kJcW9QX1Be74LG7cvxzgRIAK1gUC+f/N+vo5Xkn/D0Jf+BXGe8K+WEf5FWlL8i74G9SffGMLymU4EiED7R0B4KGwkfr6Ol5t7dR91P3Q6wrnyfNmweKIKFL9RdFjIWYchJ3HxbQKYPJ2uZWQiQRomEqlTZOC7i2dVHup1ztYJl47bMMrrOvx8xOmIABEgAhoBcIjmkXSecE1rgshoeQnrPPAanE6TsE1sk+cSWn+l5VR5P184DrIShozExXdttXIv8iEreSnuTaUFcS9knXyR3It26IgAESAC+RAAVwTyhcchIqPlJZydl2oxO62Vj1rr1Hm6f5KONB3WceFc5EtY8h1nSjraUpyrZbj2BRp0RIAIVBIBcJjPc64/4C7lREbLS1jnJbn2Vd2JPRiLAgVA6Amh0F5Ked9HPfZjwi/n9CQDwO0c44706A8CgtqsXPKkf1mHjVCBdZAROZegfkk5lcQgESACdYRAGDdkQaAmDpEXH3IShq/DyJPJI0jO8R8yApzUUwpHoY6w8mHci6GiHI5TSh90PRKWPKm/EO6VMgHDZhIRIAJ1hIDwSN4hg5isE3nx/TRJF1/4F3FJk3C5+BftgfPEd33m2hcw0BEBIlAhBIQPczbfyruQEXnx/TRJF1+4N0guCveiXCVdLAqUXAMAUHoxrOM6HFgHPhhMKq0TCeTlSWOpUxQpUh7psjMq9cvEBBlJc/Lqg5f6pB7xIU9HBIgAEdAI5OIFnYewxMVHPZIu9CJx5IG/4NITSKuQlBffCUFOKskRhizkhOd0GZ2XlkGdIdwL+RTPoj7EMk7Kix+Fe1Fa+iU1+f2TdPpEgAgQASAQxhE6HWGJiy9lU3kpLHVenPyreQ1tSFy3l+qB9zsH/0odXPt6mDFKBIhA4gjk4i6dh7DExUfnJB0Up+MIx8W9Ui/8IKf7E5QfNS1xBUrUjmBAmBh83yakF/K42BAAQ4kClwFByqXSRMkibYucTDwSR35QmpQL8kU+KI9pRIAItH8END/kG02YrE7X4fQEoSYPtCEy6XwojVMZrV4qLnLip4RK+426CuHe7LZL597UMFvHm2Mo5N4c4DCLCNQIAtn8kn9QQfI6TYfT/KroRvLhp/Nj4l+pO9coIFMI/6KuTL2l82+mrly9zKyVc0sxlwgQgfaKQFQuwPjCZHW6Dqe5Nb20zV7TpvNj4t5yfAZlUaAARL341XEd9gcclod0ycueeJyuxU2C0p4vp9uQsjrND0s9ko766IgAEagfBKL8mw+SQZpOl7BQSCaekkvHvQkkF9IoIxwl5bW8zke6juuwLpMVRmdbLVFEgS3tCX+m/Az3orzOk7CuNyhN50sdOi1ofDqfYSJABGoPgaj/7n05xHWahH3+BWKyeC8UPdQJLoOT+qUOiUu+yEhcl5Uy4oflIV3yhENTfoZ//fpFTuqGH5Sm80VGp6FdOiJABOoHgSj/5oNkkKbTJSwUkomXtvaVT0Lqk3i5/LIoUKIOBiAIscsk4MoCdbWI12AhLBYnqbLSWjbZ6zJSt05DKUmXGuD7MjqPYSJABOoPgVyc4OfpuEweQEzSZeEu8SA0Jc/3g2R1msjrNAn7eYin+DPbF3n4dqpLP2/s4iHci+8Tun4dFo7VaahL0hEW58tIOn0iQATqG4EwbvDTdTyIf5EvP4IoeM651gJSh++LfDG+1CVlEdf8K+m2c1z7psFggAgQgUoi4POW7oufp+OtVOrEJb1a1r56DIWGO1jlg3eKPXsxKwtb8dEAwhKH8kLCjU25mxc5kdLxoLCkiW8bkqJuIY+I5Glfwqn8dJG0bCYlFdLyfh7jRIAIEIEwBGQy8PN1uj95SF4bXxbuqKy1UBsZVZnk+W2nimcrkHNxnM6TsO+Xyr3ok9Sp+xuUpvMZJgJEgAiEIRDEgX6aoswsZYnIpf0a5t8wng1LD8Ob6USACBABICC86aOh08vBvbq9XP2SfvbskgqhnFbi6HokLH5YvVVjgYKOCplL2PflSwUW83o3FOWCBpqqL6N0wR6qdro9nV5MWOoqpizLEAEiUH4ENGeU0npQPWETB9rR8hJO73qmBFx30nmtlUncr8MJl/AL9fr8JWniO+5tVWDn495MXRnuRVHdf5HRacUOQeoqtjzLEQEiUH4E4vi3L73260qCf6Ut+H57Oq/QMOoSDpOw7zv+RcVc+xYKL+WJABHwEIiLv4LqSYJ7dTs67A2r7NFYLVCmNWcmgrCRyEQh+WFxnS5h8V3Z1sU8zuWL0/lh4SBZSQvzW5sKy2Y6ESACNYqAngzyDTGI2HVaaFgUu6oxkRUfbUtYfOmPxIXzJC754vv5Ekd+vrDOxyLelSH3Ohz4iwgQgWQQUJSYt4Eg3tNpoeEC+RcdCapLOFLn6U77+RIXGYmLj3QJi+9kyb8CGX0iQAQSQqAaudfn1nxxHxrI9+icWr8i3O4tUDCIrMmhdcQ6XcLiOxF8unYikZ1bKFKQD4f6gsIu08uXNO37/WmtVoswTASIQB0iILwSNvSgfJ2WFZaFOypTJCMy4qeys63npH0tk0suSB5lhevyhXW+6yu5VyClTwSIQJkQ8PnObzYoX6dlhYvk36w6FG/7fckXRz3Cv1pWp0tYfCeHNsm/GjKGiQARSBgBcFAuF5Sv07LCRXKvbl/Xh3Q/rmWj5PvyUeKxW6Cg0aBJQXcmKF+nFRrGZCIuzCIF+bpekRcfebnyRY4+ESACRAAIgLDDSNtP13FR+joU1aSUJVNgeimfiOa9gsKKd9E+ubeUT4FliQARKAQB2T30y2gelTydVjP8i8EpDib/yqdNnwgQgSQRAJ9qTtVt+ek6niT36nZ0fyQs+e3eAgUD0Qt1DFCnFRq2hVMY2ckEH1DnTh1Nly6dTZfOndxPp44dralO+AcuANMnAkSACMSBAPgN93O32Eu2m5pbUj9Nzaa5ZVameuEtmyLkjswo4UwlmZDmzUxqJiT1xsa90v/WRTy5N4M1Q0SACFQOgWrkX6ARxNE6rdAw176V+xtjy0SACLRFoFLc27YnmRRZ+2ZS4gklYoGCrvmL9KDuBsnoNB3269R5CENp0r1rF9Oje1cXDmqPaUSACBCBSiLQ3NJipk1vMtNnNjlliib2sDD6q/PyxTU36rHqOnyZXPF8eeDeHt26mu7dOlvu7aSbZJgIEAEiUDUIQIE9bfrMquNfAKR5Vodz5UGOa9+q+fNiR4gAEQhBoBxr35Cms9bPcVqgVFSBgsH6E4Wf5ufrOMKwMunVwy7erfKEjggQASLQXhCAEqVh2kxnnaKVGzqMseSL+zKaIwULvw6k+3KFxMm9gix9IkAE2iMC5eRf4ONzsM+3kNFpOhyUx7UvUKEjAkSgvSGQFPcG4eDzbrtQoGAg/gQQNLgwGT9dxxHuaM3H5+jZze56UnEShCvTiAARaB8ITJ/RZP5snGFmWV7TZK/DMpKoaZovg8qgPi0j9UdJw4FJcq8gRp8IEIH2jIDwb+YmvdRogngzaprPo0HlfBnB0E/XcYS59hWk6BMBItCeERDujXPtq/EI4t12o0DBQDT564HpcJiMTkdY4j3tMZ3ePbrZLxu6FoaJABEgAu0TAUtvZuq0GabRmpfDgfg1+euwHmFYOmSEL6PI6Dp1WQlLXeReHynGiQARaO8IkH/b+yfI/hMBItAeEUiCewWHoLVvu1KgYCCy+JZBBflhMrPsJYzaQXHSszutTjQmDBMBIlAbCDTa+1GgSBGHCSBoEkB+WLqUjeqTe6MiRTkiQARqGQGffzHWQl77KQYb8m8xqLEMESACtYSAz72lrn3D1sdxKlA6luMDCBuIbtuXwaSCH0mH36dXdypPNGgMEwEiUFMIQDkMnhPew+CCFtg6PwwAyESV03WQezUaDBMBIlAvCPj8C/4UPtQYROXVqHK6bmlPysLn2lcjxDARIAK1hoDPvRhfKWvfcuBTFgUKBiKTQa5BiYwPGp4gnqt3D9Ota+dcxZlHBIgAEWj3CIDnwHfgPXGaE4UnJS/I1zI6HCSLNJHR7SCd3AsU6IgAEagXBIL4F2MXbhSuzIWHltHhsDIiI22IHPlXkKBPBIhArSMQxL2aE4Unc+EQRSZX+ULyyqZAQafyDUyA8uVwYWGXzmXtaiEYUpYIEAEiECsC4DvwXjHO50/UEZSm6yb3ajQYJgJEoJ4RCOJfcGg+HgVmQTJBaRpf8q9Gg2EiQATqFYEg7o2KRT6ejVpPVLmyayXCBigTiHRc5HrbJ4q7daHlieBCnwgQgfpAALwH/oMTPkTY50qkidNykiZ+WJ5fn8iRewU5+kSACNQbAkH8C670+VLjItyp0yQclufXJ3LkX0GOPhEgAvWEQBD3Yvw+V2pMhDd1WtLhsitQMCB/oGGg9LCv7fTgM8VJ/w2wfiJABKoUAfAfeNB34EyfN31e9csg7sv4dUgZcq8gQZ8IEIF6RYD8W6+fPMdNBIhAJRGIm3uTGEtFFCgYiCzkwxbwOPvZi8qTJD5z1kkEiEA7QgA8qO9D0V0X/hQ+1XlhYZGVsr4cuddHhHEiQATqFQHyb71+8hw3ESAClUQgbu6NeywVU6DkG0gvu+tqj5zSEQEiQATqGgHwIPgwLhemOJH6yb2CBH0iQATqHYG4+TcfnuTffAgxnwgQgXpAoNzcWyimFVOgyCJedkN1xzt36mjvPemkkxgmAkSACNQtAuBD8KLvhD+FT/38XHEpq2XIvRoNhokAESACxq1H4+Jf4WryL/+yiAARIAK5EUhi7Zu7xei5bVfk0csWLSkTiFSAiURPJj15dEegoU8EiAARcAhoXvQ5EwI+rwbB5sv49eg2gsozjQgQASJQjwhobvR5E3j43BqEkS/j16PbCCrPNCJABIhAvSGgedHnTGDh82q58Cm7AiXXQAEMtPxdaX1Srs+f7RABItBOEAAvdurYMUvZ7Hc9F7/myiP3+kgyTgSIABHIIAD+xfoUXBnmcnFsrjzybxiiTCcCRKDeESh17ZsUfmVVoOSaQGSAVJ4IEvSJABEgAtkIdOua/2hjEM8GpWXXbKi49gFhnAgQASKgEIiyPg3i2qA0Va0LRqnbL8M4ESACRKAeECh27ZskNmVToESZQCDTtXP+LwhJAsK6iQARIALVigD4MSqXyhiiypN7BTH6RIAIEIG2CJB/22LCFCJABIhA0ggUw71J96ksCpSoC/hO9unioIu6kgaB9RMBIkAE2gMC4EfwZFROjSpH7m0Pnz77SASIQCURIP9WEn22TQSIQL0iUCj3lgOnxBUoURfwGGwXWp+U4zNnG0SACLRjBIQn83Er8qPIAAqpsx3Dwq4TASJABBJHQLgyCrdGkUGHpc7EO88GiAARIALtFAHhyXy8iuFFkSkVhs6lVpCrfJQBaJlqtT5p/vRLM+OF18zMt94zTR99blq+HW9afptoZjc0uuF36NXTdJqnn+m02CKmy8AlTddVVjDd1lnddF5qiVzwMI8IEAEiUDACmifBn0GXGmpeDWtAy+g6w+QrkU7urQTqbJMIEIEwBDRXRuHfKDK6zrB2K5FO/q0E6myTCBCBIAQ0T4bxalC5pNI6zJo1a7ZfuV5YS1h8yCIscVs+HZ7WnLmdXPL9uv24lpurd/eqOcKDiaPhtjFm2phHTNOHn/ndjhTvsuwA02PIYNNrlyFUpkRCjEJEgAjkQ6C5ZZb5Y+r0LDGtRNGcKkI6H2m+DLlXkKJPBIgAEQhHoBj+RW25OJj8G443c4gAESACQCAf9wah5PNuj84plQfSO9pXLeEQ1nISFl9knLD6VVEFir+I7zdHDzugjBJG9bNswRkvvW6mXniNaRw9NtY2ew7dzPQ+bJjpNmi1WOtlZUSACNQXAtB5T/xzWptBC9n7vCqCko+4L0PuFZToEwEiQATCESD/hmMTlMO1bxAqTCMCRKBQBPJxb1h9eu1b9QoUf3EeNChfBvF5+vSyWqAg6eTTWr7/0Uw+4WzTcPM9iTbWa/ftTJ/Tjjad+i+UaDusnAgQgdpEwFKl+X1K6vigHiEmCZ9X/XzEfRlyr0aJYSJABIhAOALg398mN2TtWEI6H/+GyZB/w7FmDhEgAkRAEMi19hWZID8pBUril8gGDcZfwEMGaZVSnjRce4f5aeB6iStPME4oaFxbtk06IkAEiEChCIAncXTSd0G8qmWQHyRD7tUoMUwEiAARCEcA/BvEpUHc6tcSJEP+9VFinAgQASLQFoFS1r5tays9JXYFStAEobsZlB+UpsskGZ50wHAzcdiRZvbUtju6SbWLttAm2qbLIDBt2jQzZcqUwC95GSmGiAARAAI+byLup2mkgvKC0nSZJMPk3iTRZd1EgAiUE4Eo/OvzrR8vZ3/Jv+VEm20RASIQFwJBvBmUFld7YfUk+gpPWKM6vRKDRvuzp003vw0dZqY/8ozuTlnDU6+82TR/N97MM/oa06FH90TbHjt2rJk0aVK6jR49epj55pvP/Sy55JLpy3TSAnkCf/75p5k8ebJZZJFF8kjmz/7mm2/Ma6/ZV45mznTCnTp1MgMGDDCrrLJKGzPZ/LVRggjUDwLgT22emG/kWp7cmzz3fv/99+a5555Lfyy4tGzuuec28847r1l88cVNv3790nlRA+PHjzd9+vQxc8wxR9QiOeUeeOABs8Yaa5j555/fzRFPPvmk2X777V2ZcePGmQkTJpitttrKdO3aNaued99913z88cdmiy22ML169crKY4QI1AMCmk8LHS/5N3n+xWdSzWtf9O/rr782X3zxhdloo40QdfMFuHjppZc2v//+u3nsscfMCiusYJZffnmXL7+mT59uHnzwQfOXv/zFrLYa71YUXOjXBwKFcm+h8lFQjNUCJd+E4OdLXPwoHY5DBsqTCZvuWlHliYwDChz0BX1K2i2wwAJm0KBB7udvf/ubaWhoMK+//rr7KbRtfDF48cUXCy3WRv6HH35w9fTv399suummZvPNN3cTxSeffGLefvvtNvJMIAJEIIWA8CZ8CSNHhwUrnabldbrIJunXK/digQvuXX311Z2y4csvvzRQVEAJXagD74J/43BNTU0GyvC+ffu66qBk10od9LelpcW89dZbWc3BUvDDDz80K620EpUnWcgwUi8ICHdqPsXYJV3joNO0vE7X8kmF65V/q3HtK5/xxIkT0/yLNM3BULYvtdRS5oMPPnA8LWXgg5M7d+7sOFinM0wEah0B4U3xZbx+XNLFz5cvclH9WBUoURsNkot7YEFtSBosT2Y894pEK+6jL+hT0g47ltBW42fFFVc0m2yyiVl11VXN559/bj799NOkmw+s/7vvvjNzzTWXWXPNNd3OLMLLLbec075DM1/Ov4vADjKRCFQhAvn+XeTL10MqRFaXKyZcr9y76KKLOt6F4nrttdc2W265penWrZuBhYdY3hWDZ6llsHiH9YhYl2DxLsoU1N2zZ0+3QMcO6W+//ZZu7tVXX3VyWNzTEYF6QyBOzoyzrnyfQ73ybzWufeWz0goUKLSxsak5GEpqzBXY7BT3yy+/mK+++sop5Lt06SLJ9IlAzSOQjy/z5ccJUKcRI0aMLKVC6Sz85ln2dq0QJ3KSreMS7t2jm2Qn5uPcZ+Md9ydWf7EVN3/+tZn1y2+mx+b/KraKnOWgJMFi2D9yA1PyP/74w+1owmRQHHY4X375Zafl/sYesZkxY4Yz8Ub+Cy+8YJCGhT98kPliiy3miuYqJ3VrH5Ym3bt3d18udDr6hS8dmDjkiAIW8W+++abrE0wbcQxJTMcxCWFHd5555jGvvPKKOxKEsWKhj11e7EBoB7NIXMQJDT92WN977z1XNzT9kMcEJl8qPvvsM2cNg7aef/55A9P1gQMH6uoYJgJlRaBhWuq4G/5tCH/KvxPpiMQlX9IR9/PIvclwLyw1vv32W8cXeqGLnUNwEvgGx3FkwQxOxXHGN954w+X9/PPPjqPAkb/++qt5+umnDe6KgqIDfAiFc+/evR0Xh5WTz1374Ox33nnHcSkW7egnlNmiKEEcXzrAseDIH3/80eDoEI57QrENhfsGG2zg8nW9DBOBekCA/Bvfp1yva18oRMClsMKGFSCOSsLqWpQo4HjMETj2CS5+//33Hd8j/Oyzz7o8/1hPfJ8KayIC1YmA5l7poaxnw+KSDr9Lp1QMZaScDiNXp6ekM2kSh181Fii6U0mF8doO7h2pVoe+oY/ldlA0TJ06Nb0TikU7zu1j4Yyz8QsttJAjb5hsw2EXdcEFFzS4qwSWLFhUw+Ur54S8X7iHBYtzKHj0yyL4sjHnnHOm/5ChbYcyBAoSOe+JSQQLfbjm5mYXfumll1y5v//9725xD3N0mMtrh51U/OCcKRy+eEDmr3/9qztrCmUMdoZRJxyUR1DYYMJbeOGF3d0sLoO/iEAVIwBFia88ke6GpUt+3D65ty2iovwA34gD70BRsuyyy5qVV17ZLaafeOIJx0VYOINvwbvgX4TBkXC5yknd2gfXivIZ6QhLHPMBwlDawGExgXkAinYoXaDcQf9E6eOE+IsIEIHICJB/s6Gqt7UvPn+sceXvAGtscC7WmnAIC7cjDk7GhiK4F5uIuP9E1sHIpyMCRCCDgPy7yqRkQrnyMlLRQmW5RNbvsI7rL83RulycVMv3P5pJh59UXOEylkIfu/97PdOp/0Jla1XOvGMhD403dkfXXXddR9joBKxLoGCBogMLZyzeoR2HtYlYnkAuXznI+A7HdaCcgHIE2ncoNWSykB1b/I0gH6aMaB8O7T711FNuQY++ioMyZ5lllpGoWdxe1AiLEbQBhRAc+o3FP3Z+8WUFyhMcZ4JyBg7t43IupIuJOnYF1lprraz7AZwwfxGBCiKAfxuiLQevSjisS+TeMGTs2fMKca8oUGAJt8QSSzgOhFUJHDjp4YcfdvwFbgTvwcIO/CXcG6WcP2pwOH6w+wleBefBdByWJeutt16bvyO0By6EEh2WjNz59BFlvB4RyMW/mmsFG53Gta+gkvIrxb9ovdxrX8zT4F1Y/cH6BEfp4aAYgeJE1rkusfUXFCZjxoxxHI0j76Lg1jIME4F6QQD8CessuChr3yRwKYsCJUrH9cQSRb5QmcknnF3Wp4oL7Z/I44lj9LXfTRdKUuI+djThsBCHE0UCPhOYi8OsHD/5Ljwsphza3nDDDZ35IswZYcUCBQesPdZZZx1n8YF20Tcs4jHZiMOOLMzKtYMmXzvIQHGCOrUCBV9U4OTLC44K6boRh9JFHCYrUTRJGn0iUCkE4pwwyL2pT7FS3Cu8Cy4UXoLCFotp+ZLV2NgY+qdWbDm0C24VXgMXwiomnxIORxtlzgjtFDOIQA0jQP6N/8OtFP9iJMLBxaxhUb7YctiIFP5FPeBgUYwjrp18WUSaKNh1PsNEoB4QiJN7S8UrcQWKvzjXcR0udSC5ys946XXTcPM9uUSqKg997bXvLqbboPI8TQYShxMih7IEFh+wOMFCHsQtC/lcQBVbDnXizhP8wEGJAlNF3Dey3XbbOdNxpD/zTPCT0zL5QSZoYY9Lc3FECBp/fGHAsR+kwcEsHQ5PefoOShRxQfVKHn0iUAkEZCIRH33ww0iTL8SabxHWspBLwpF7c6MK7hXeg+Q39k4pnHUXZbVY4eWupbByOJoISxMoiPE3AMU1HI7nIA4rE8wFsFARh/7gLij0FWf1cVcKjnLSEYF6R0DzqB8GNmH8Ww7cyL+5Ua7U2hdra7QNrodFHzgX61ik/fTTT87HnYR63Yk1MdbisJz+3//+516s1Pm5R8pcIlA7CAjPio+R6XBQXI/el9V5hYRjUaCgM6W4Usvna3vqhdfkE8nK7zPyCBfvtt6aWemlRiaffJ6ZMe6VSNWgz+VSoOBCQVwWiB84XB6LBTNei8AdJVjE4xgMFve5XKHl8LlD6YL6tXYdx4hwvh/3sGBCkbP52267bbqPufrh50Gjj3OjUJzAEgVjwqQFh7phpbLVVlv5xRgnAlWPQKkTQbVxbzUAXi7uhYUJeFaOCWL3EU8U44Lq9ddfP73LeNttt+WEpdBysCoE52MRD4cwnPwtIK53OJEux4Y23nhjp1zHE5q4D0rmDFcBfxGBOkJA/r2IgqTQoUv5QssVIl/o2reQupOSLRf/ov+VWvvKPXzoAzYp0Q+xeMacgCPzWjmCo5ZQdOPibhzxwbFOPHyAe7LoiAARqAwCsShQonZdTxg6HLV8MXLNn35pGkePLajonCP+ryD5qMLzrT/afN9h4Uji6HMf2/fOS6WOmkQqVIQQzmBiN1KfucQO44ABA9wCWaoUcpe4WKXoc2hRykl58TERwGwd1iHaicULlBsykcAyRSxHIItJBqbtUIjkcljkQykD5Ql+9M4pdloxEeH8vyhqUBe+lGCMMGmnIwLVjgD4VBbyOiz91nyrw5KfhF8I90JpDYV1IUrmJPqMOsvBvdhtxCXYsHKDIgIO/AnOkYtikaafDkYcDp+zXHCNeNRykIUDp+LYJC7PhvJaFuH33nuvW6CLJWJK2rj5AXw4ePBg1/Yqq6zi7k5BedyXQkcE6h0Bzbk6DFx8vvXjSWEXlX+riXuBRTn4F+1Ucu27wgoruCOa4FxsDOL+QFhJ40g6lCTaQcECi3Dc5ydzBcrDYhCbgz5f67IME4FaR0DzrQ6XY9yJKlCiTBQiI37cg264bUxBVXZbP2V18usGQyNbi0RpAJMUFDOoP6oVCvre55SjolQfSQZKAmiygTWUD9B6YxcSJCyLaFQEQoa1CUy4cfcHLlPFQl4faYEpN5QcMD0EsWNRHqWc7ii+CEB58vHHH7sJBBcZ4nw9LnaFuSIuTZSLsnAxLBbs6DvaxtEbxFEmnwIFbaKPUJRg9xW3mYuDYgXnV/GKBTDAOIARLFYGDRpEBYoARb+qEMC/A/z7Ed/vHNLF6bCkwQ9L1zKlhAvhXlFad39urcj8WErf8pWNm3thlg3+hOIDCg/wLpS/G220UdoaDvwJToVZN5S8uJMJF2v7DnyHxT/4EWWilvPrgVJELtwGL+IFCJiHa4d5Agt1KNhFmQyOxoWGOGKJJ5rDzuzrehgmArWEgPCu+P7YonBrFBm/3kLiUfm32rgXY4ybf6tt7Ysxgn9hTQLlCRw2KcHlvsMcAIU7XpYUBytFrNFhGbjppptmWXCLDH0iUIsICOeKn2uMuWTi4N+SnzGOoxO5ACg1b9qYR0qtomLl4+47Fu3Y9YSyAIoP7HZiNxGKAu1WX311R+p4PhOv0cDUXMzMRQ4XskL5AesVmJ3DRSkn5cWH5Qle4vnggw+cWSJuGcdRIHxJ0Jp49BPPDGMywX0lL7zwglOe6ElF6gzyoTTBOKAU0oogWLdgFxVHevCFAHXjCwxuRYfShY4IVCsCxXBvMWWKHX/c/FVIP6Cw7j/7BwO/GBd338Fp4F48sw5lNBS/UJ7IxdboIxTDsD755JNPzP333+8Wx0H8hrPxWHTjFTIom6OW0zjg7wBKaFmwYzEP5YlY+4ksdj5hmee/ugM+xRhw2bc8vSll6BOBekDA51I/XmkM4uawqOMplXvRTtx9r8a1LzhX+Bdj9uNIA7/j7inMA7KZiHRsnsjT8ljL0xEBIlB+BDrYHa/MVmVr+3oikLD4EEFY4tCMSnhac4esEUi6JEpc+whLfMF5sne/pFyxPkwYf1o688RtlHpgITLfs6NNUhYohda74CfPJ36MJwwXLIyxoBYNeZgcdk2hjBEXtZzIw8ffAHY7Ya6InU5dn5ZDGLulmEwwicTp0AcoWXiuP05UWVcSCPz022T3bwb/BuQH7ci/CfwtS1i3L1wLX34gV2nuhbIDbsrJ55vJI8/TXW4TjmLFBw4XOXBuMa5S3IvPJQoPYe7VCo+o5YrBgmWIABHIIFAo/+LfJngWPhx8+ak0/1Yj9wKjSvEv2o66ho1j7Yv26IgAEYiGALgXDrwpPxJ3Ga15QWGk9eic4mCUlfWTrgcyiGvfD7tM+yuxIzwyUUhDflzSk/RnvPBabNXLTqYs7hHPd8lssQt33WmMIel7UHR7OqwtNXS6H/aVHVHL6XrwB4vjM1FcUgoO9CGpuqOMizJEIA4EfK6VuEwKfhuS76eXEo+Te3U/RDESRdGiyxUTrhT3RuUhmfxlbFHLiTx9IkAE4kfA51M/7reYL9+XjxJPgn/Lyb0YY6X4F21HXcPGsfZFe3REgAgkgwD4NdfaNywvSm9KUqDESvytmvkonY4qM/Ot96KK5pXDOVH/7hLscOZysgOaSyZfHsbQy+yUT4z5RIAI1BECs63Vl50VYhpxGyPEkuuNk3t1Z4Rz8ymvdZliw+TeYpFjOSJQ2wiE8W9xa+L2wb/l5F789ZB/a/vfEEdHBIpCALqC2Na+RfUgXagkBUq6lgIC/gTjxwuoKq9o00ef55WJKuC/ngNLFLFGiVpHMXJxjqGY9lmGCBCB6kUA/AkNuvbDeitc6/th8qWk1wJv1cIYSvkMWZYIEIHcCGje9XcyJU9qEN4Ni0t6HH4tcFctjCGOz5J1EAEi0BYB4VffbyuZXErm4ork2kif+9RN+JOJzosr3PLt+Liqqlg9tTCGioHHholAHSMAji0HzwZBXE7eiuPSwkqPIah9phEBItC+EQji36C0uEdZLv5NinuBR7nGEDf2rI8IEIHKIlAOjsUIi1ag5Opgrrxywtry28RyNpdIW7UwhkSAYaVEoE4RSPNrwLHHdF4ANrnyAsRLSionb8lxHvFL6rgqXM4xqGYZJAJEoIoRSPMo+Td9D2Dc3IuPn/xbxf8I2DUiUEkEArg3V3fSnJ1LqIi8sh/hCexjgWAE1hGQOLuhMSA1WlKfEfb5yxHRZKNIyfnRKLJappQx6HoYJgJEoDYRwOTgm4/nG2lmQon//D3argXeqoUx5Ps7YD4RIAKlIeDzrx/PXTv5Nwwf8m8YMkwnAkQACBTGtfFjVlYFSmbRnhqIH49/eIXXKBfFFqvwyNei1J9PjvlEgAgQgWIQCJpUqpFr841NXj6bPu7lNhd45yvLfCJABIhAUgjYw5HGPqIZuXqff/145IrKJEjuLRPQbIYIEIHYEAha+8ZWeUBFZVWgSPtBkwcmpLhdh149zeypDQVVK4oTPEEcp7IDExJe8kH9hdSLMdARASJABDQCQQv4IF7VZRAOkglK88sVGi+Ge/02wJfiCuFMKVOqT+4tFUGWJwL1g0AQjyJNWweGycSNUqn8W2nuBR7k37j/KlgfEWj/CIStfTXPlmuURd+BUq4OltJOp3n6lVK8KsrWwhiqAkh2ggjUIQJBC/ZywFALvFULYyjHZ802iAARqC4EaoG7amEM1fVXwd4QgfpBoBxr38QVKOUYRNifRKfFFgnLajfptTCGdgM2O0oEaggBcm9pHya5tzT8WJoI1DMC5N/SPn3yb2n4sTQRIAL5ESiFpytyhCdrSAldIIs2ugxc0sx47pWs5oqN4AiOPouPozjd118rtDotGyoUIQNjqHU3a9YsM2HCb2b++eer9aFyfEQgXgTAnx2in8XPbjz+Y5NSf5zcK3WW268H7i03pmyPCNQUAuTfxD5O8m9i0LJiItD+ESiJe+MZfsUUKKVofaIOvesqK0QVzSvn7i9Zb03z67ihThbKE31O1K8AeXHcoxLnGPw+SvyV/71uXrY/r7z6hkEYbs01VjNr/uPv5ojDDhSxRHz8HQzeakfz/gcfm5OOO9LsN2yPRNphpYUhcNSxI82s2bPMoDX/YYZsvVlhhSlddgTw7yjqGdD2wr3gT/AslNHigtImn3ye6f5ctpykSbli/CS497ffJ5rvvx9vFlusv+nXt29gt/J9PlE/58DKbWJj4zTz/ocfm7n79TV/WXwx06lTbkPUSZP+MN9+973p338RVyasXqYTgXpFoNb4N4hng9KEZzVHS1qpfwtJ8G9zc7P54suv3Vy5xBJ/MZ07dWrTzaT5Fw1+8+135pdffzNLD/ib6dNnzjZ90AktLbNsn79ySUv8dXHTuXPFvrbpbjFMBKoCgUK4N+4O1/S/xG7rrB4bXt93WDirrskjzzP4SdrFOYagvp534eXm/IuuaJNxQDL5AABAAElEQVQFRQp+kPd//z0gsiJlx12HmRde+l9WfXPOOYf5+yormtVWXdlsvNEGZumlMlY1TU1N5rvvf3DyX371TVY5RsIRgNXOuOdecgKLLLKQGbDkEuHCReTcNfo+g4m7e/fuVKAUgV+9F4mDt3BxrH95bClphX4mcYxB2rzpljsNuPb3iZMkycw37zzm2KP+a3bYbut02gqrrpslk85QgeeeetD8zS7+tTvmuJPNrXeMTiedMuJYs/eeu6TjCIBfDznsWPPBRx+7f9tI692rlznt5OFmu223QjTLjXv+JXPMcaeY8T/8mE5Hn1H3Fpv9O53GABGoRwSCLjPMh0O+L+f5ykfNL5W7SuHZoLJR+63lSh2Druunn38x/z3iePPqa28aKFHgunTpYtZe6x/m/HNOdVyMNPD0cSedjmCo23LzTcwVl5yTlf/td+PNBhtvbWbMmOHSoRT56J3U+kwLnnXeJebW2+4xEydl5oF1Bq1hLrnwTDPvPHNrUTNt2nRz5LEjzGNPPG2mT0/VC+XJBuutbS467/S8ipesyhghAkQgdgRybz0V0VwxE0QSL/Cg652XWsJ0WXZAEaOojiLoO8aQlNPKE1icjL7jevPD1++7H4ShOIGDEgWyxbopU/40z4x70WDy2Grb3cxHH3+arqpr167mpmsvdQqao488JJ3OQG4EoHjaba8D3c/td96bW5i5NYlAobwZxM1BaXGARe7NoDjqrAvcohzKkznm6G1WXmkFp7j41R5b/L+jTzQXXXpVRriI0Dvvvm9uy8MB2HUdutNe5t33P3TKk549e7iWpjY0mMOOPMFcfNk1WS2PffRJs8deB6WVJ7BWgUOf9z/4SHPPvQ9kyTNCBOodAc2lOpwLl6hyueoIyiP/ZlD58aefzb8328689PKrlvta3GYTLDmwhnr2uRfNvzff3sAysBR34slnpJUnYfWMPO0cc/GlVzvlCawIhYOx4bix7R8s/cQ1234O3fE/5v4HH3HKE8j26NHdKX+efHqctdreKa0ElzL0iUC9IFDo2jcpXIqyQEmK9JMYZI8hg03Th58lUXXidaLvSTmtPIGyBAoU7dwRntY0KFDESiXqkR7sbEKzbx9ONR9/8rmdqF4yWOhjwb7rfw40Y++/3Sy4wPyuydX+vrLBDx0RIAK5EcjFvciT4x1aLiycu6XSc4vhXhx9zHU0stReTTn5/EiWg3FxLxbCotxYZukBZsxdNxpY5GEHEsrkr77+1tx8293m0IP2dZ/djVaZ3NS6Q6rHioU3LEKwiNY7lfhsjx9xhnueeqstNjUPPPSoLpYOn3P+pebXXye44zoXnHu62XqLwVYZMsHsve9/nVLl0suvNbvuPDR9rOia628x6PuSf/urufXGK8wiCy/kLFiwqIcS5d77Hg60Wkk3yAARqEEENJcGDQ/5wsFB+eVMK5R/q4V7gVFc/Iu6xj7yRNqq79wzTzY7br8Nks11N95mTjr5TMeLjz/5jNllx6Fm03//0yxtedp3v/zyqzngkKNc8qL9s63Rn37meYOfbt26mfXXXcs8/uSzfnHz2edfmmuuu9mlr/73VcxVl59n+lml9F333Oes/MDNV1x9gznumMOdDKy/33nvAxcecfxRZu//7OrCUMZfec2N7gjQW2+/y3WzQ4W/iEAGgTAODkvPlCw8VJQCpfBmMiXyTUAZyXhCvXYZYqacemHBlfUZcYSZsX48F9Ci8W72/pRCHfqelBOFCKxMfOWJtIkdS9yDAgULwiizFu5G8ZQtIq99WJZstulGLmmzTTc2Rx5+kDn8qBPM3aMfMJiMsON5xqknuPwh2+9hZjY1m0023tAcfMDeLg3n9M+2i/5XX3vDfPXVt3YBv6BZfvllzfCjDs26bBbHTK6/8VZ7h8sb5s233jFzzdXHrLjCsu4LCRb/4vB3d5s1cX/+xVfMa6+/5c7y/8OObbshW7gdYZE7YcQoO3F9aBZbdBF7J8sR5uTTzzUvv/Ka++IC002MA6afcFtuu6uZNWu22XzwRmalFZc3l9gxvfXOe2Yhqxg60I5j2603l2qd/8yzL5gHHn4sXR9w3NGa72NHWjvshlx3w63m9TfeNh9aa52/LLao+fuqK5mjjjjYzNG7tzPVv0PtOONL0xtvvWu22WqwEbP9P/6Y7BYI6Psnn31hVlphObP2oH+YYXvtlnWGdsJvv1v8bnMWQo2NjebfG22YtjzSfWK4fSCQxCRR7MgL4V4oNpJUnMgY0EaUo5dxcS8ux8a/RbgtNtvYKU8Qxv0nWKxfduX1dgH/m5k8eYrjrlVWzuYCyIIvcT8V3G67bJ9lug0+hWIa9Z0w/P/SChT9JQ5/E3K31TZbbZ7mJSiwzz3rZLPR4KGmwf7bv/HmO92/fYRRZlV77PKg/fd2yhO0jV3bf264rrnjrjHmsy9SZ/KRTkcEiEB+BPBvqpwuKv9WG/cCo7j4F3V99nmKq7Bu00cVd95hWzPilLMc133eKjPffPMa/PjuxJFnuKTu3buZfewaShysWEaceraLHnrQMPPnn1NdWPMvEl6y6zBxF50/Kn1kCEobrAsfe+IZc8PNd5jDDtnfWaZA4QL+Ba/vu8/uUtS2vatToCDhsy++pAIljQwD9Y5AJda+ZVOglHvykD8mmDL2HLqZaRw9VpJy+ji/KRMKXtqJ06Fe1B/Foc9JHd+R4zi57jaBwgSLbihQxBoFcVw2G0WBEjTGc84Y6e7twA7mu++mtOuQg8ICZ0eXXSal+cektNnWOzmtfceOHc289tw9lAD4eebZ581jD99tFlpwATfxHTV8hNXi359uDmbyOOv/lN0RuPWGK9wkhMxTRp1rrr42tQOAOBQHqA+m6Hfdeq2RLy6f28u63rZKEHzx2cvuzsouAMpcesV1pqO9dOyYI1JHjfDFBQqcXr16OIUQvgTB4cjSoYcPd5MkzrfCwSQepu+4uwSTK/49oJ/33T/W3H3HdU7BATmU3Wm3fbOOOcHsHj8wQb3r9uvMjz/+nNUv4Imf1VdLWfHg7Ozuex9kFUrvokrXHnav8YPLei+1522BK84CDzvgcKeocYL2F3ZBvh//g+2fpNAnAsUhUAj36ksIi2stvlJxci+UFLCugzL0xZdfcwoJnGOfOXNmWimy7tprOuVJ2AgusopZ8CMW7wfs+5+0GLji9DPPd/ETrbJ3rj590nk6AE6Uu1f++pdFdZb5618WT8c//OgTF+7Vs6d5YPQt6XQJ4Bz+O628jXmBjggQgfwIVPvat5q4F2jGyb+ob8stNjG333WvO7KDNSw2kuCwmSafDTbHwhzuT5H7pXbbZYcsC8Arrr7RfP3Nt5ZHF7Pcvpc585yLA6uBQgQOG4sLL7RglsxPP/3i4tg0xOWyA5dZymAjTDbDtPArdqMQDus3WLLQEQEiUDkEyqZAqdwQ7UV5hw2LrEBBP7FDGfekElVxIjihz0k52c2ENUmQSytPbL4c2TnCWqoMtZOPlA0qly8NXxyWX36gM3f86JPP3IQm1hy6LJQ0MuHcecvVZpC96AuT1C57HmAaGxqdtn6vPXZ2k6IoT7Cz8N+Dh9kJ6HtnEvnDjz+ZCy+50txilSj3PfBIWnmCiRJjwqR46P8d58w3d/3PAebNV552VibSD1ycuOzApczoO28wb739nrW+udydRYXlhyhQRPbFl161Fi/DzLrrrOUUIrfdOdpl4W4SKFBwSe7B9vJGKE82H7yxOf2U402LVV7gUjOcf93dHml6+7Vxzrz+uJNOSytPRp54tLXK+ad50cocc/zJTuFz9+j7zX/22MlZ62y65Q6uHVi6wOKlX9+5XHzkqWc55QnM/a+98kJnNfTEU+PMQYce7XaoYc0C/GCmjy92cPiSt+/eu5vfrGIJlj/oKx0RKBWBqNwLfiyUI0vtW1j5uLn37FEj7DGbUc7yDBcNLjtwafPeBx+Zby1Xrb/uIMsHx4V1xYDH5I6jXXfaLr1ziQI4lgPFCBbS2227pbt0MKiieebu545LgvOefPr5tBIHsk88lTE3B3f6DvXDsg5HL8HL6DO44vSTw/vs18E4Eag1BPDF27cyqMYxRuHfauJeYBg3/+KiWFjnXXTJ1W5jadBaq5tZduMLViG47BVWxbKBFvQZXmSPT0LhjSM6B+67Z1oEd6tcfNnVLj7KWlMHrWVFeIXlBrog6nlm3PNmo3+un45jc0wcOBgKFO1G3/eQef/9j9za9tnnXnAWKqeOGO6OV2o5hokAESgvAnWhQOk2aDXTa/ftTMPN90RGt5KLefQVfU7KiTl3kCWJVp7g6I44kZWykl6oDzNwnBeFlQkUC4j7buLEzGVauHB21VVWcs9tvjzukSzR/7WateMLwtmjTnLafTzLOerU452iABMaLEReeCll9YPJ8vyzT3WKErxiceLwI8whhx/rzOff//CjLI0+yl5+8Tlu1xe7ra++/qbrNyxXYOEB5YS4f6y2ijnmyENdFF8uHhz7mDPl/M7ezA73mi2LiRMLLpzBxUWScKfZLyHr/WtL9yXos8+/MLgjQRRU/7avFeG4DdxOOwwxf0ye7BQrGA/uQJiztQ7k4ywtnsMTh50VOJj74wsaHBQ3sIJ5sPUIERQoYqGCY0E3XH2x6duqgEF9+x10hCvHX9WJQHtZwBfDvZVEPAnuXdgeP8RxHSyCcecJfuBw3BDHFuefb77QIWPRD650i/f9MtYnsJ676dY7ndIVCph8X+b+bdu50ZqIw7pu+533Nptu8i/zww8/2TruSrcNqzvfwaoOilZxMCs/87QTc1rMiCx9IkAEKosA+TdlgYs1HBTAOC6DH3FrrbGuex1S4r7//fgf3ZFFpO+609Cs4z2njjrPrQVxVF0sjf3yEl9n7TXcmhFrxwPtRtbu1pJlgfnntUe6HxcR5wdx8LP2AQZcJguHTcijrQX01lsmdz+ia4i/iECVIlBNa9+6UKDg76DPaUebxjFjzeypjVX6Z5HqVofePV1fK9HJMOVJnH0ZbyckOEwE/e3zu0Fu3XXWdEd0oOHHzeWnn3Wh27XFBV1D7Z0lUJLAvWe/kMAtvfSSTnniIvbXvzZcz/1I/O133ndBKBm04mPllZYTEfPOOx9kKVBwBwpM5sVhBwGKHziY0+t6BijlRWd7xGdZu4PwP/tc3nQrB/d2q9k7/uGvt1HmudBZ9pJGcbg7ZR6rGPn5519dEu5x0U6b7ut0P4zLKeVZaBxZeuChx9IiuEsB7q1WPD759AsXh6WNKE+QkG8x4ArxV9UgUMyEgjLidFjS4vTrmXthlo2n3WHFBqXsPvYywKWW+pv58KNPzS233WWOPeFUdy/SbfaiVihJtMPTmHdZizO4na0Sdf75M4qWk+25eyhToST1dyx1HRIeecJRlhfGuy8Pr9o7oPADh+eIO1nOwgJ98cWzj/cgf7755jGXXHCmU+DiCCGORv5zkyFmsFXAXH35+XkVN6iDjgjUMgLF8G858ahn/gXOD4193CktYFWLu+C2tnfFwQIFlh2PPv60efKpcea6qy/KWjPK5wMrZhx1xtGbA/fbS5Kd5S42o8DZJx53ZDo9LIBLuG+45hKzx94HG8wJuAgWDptpF557mnsJDfEgDt5ztx3NBuuv7TbQHn/iWTPScj/uI7z+qouKPk6PtuiIQHtHoNLcWzUKlKQX8Z36L2T6XnCKmTgsP9lV8o8KfURfk3SwJoElCX7EsiSf8kQsT0S+2P598OHHrujSS2UrPXR9eDLzvntucsduMPnhfg/cN4IfnDm93k52sKzAmXy4rvaLSS6HCQvO/4LSvXvGigQXJ2qHLxXa+fFcebgnRbupUxvS0QHqYlskdurcySy5xF9Nj+490uNBei5zUOSHuameglC3Zw1gXFs4Pws3bXoKlx49Uk+aSp3ACTI8xiOI0C8FgXrmXtyxBOUJHCw35AUIxP9iFRa4xBDcCp4bOmRLJKedXrwf1Hq5NjJfe+Mtd34f4b7WiuX6m25H0Fm5uYD9hV3Wifb4DRb9eAITfAIrM1w2jYuloQTGUT6YkuMJTbilByzpfP0Lr6kN2XozlwSrtaOOHemOTj7y2FPu+CHub6EjAkSgeAS49k1hl8TaF9jiYQCsZRa3l/FjXQllCNzuu+5g1t5wM7dphUtisfGmHe4jGX3vgy4JVsALLJBRYJ974WUuHQ8V4Flhce+3rm9haXLuBZeZle3jArh4Gw4bUy+NG+vussPmHzYQcaQcdwCK05bEkgarZvyYbbZwR68HrTfY3ZV35rkXB95VJeXoEwEikCwCVaNASXaYqdp77bOTmfnme2bqlZnLRMvRbtQ2eu+/u0Efk3YwZ8Si/TyrxR5tlSm4VFaUKfrYju4HzB/hSrk8EC/viHXE8ssto6tvE4bG/pQRx7ofmFE+Yo+fjDr7Qrfwh2UFFCgr2PtUcFfJF19+nVUe5/RhZYHJE097rmh3HSD3+RdfuTQxd//UmsGLg0xSbqUVlzOjxzzovsTgSVBY34Q5mPXj1Q70Vbs33nzHXu76o7UU6ZM+liP5WtGBJ/ZwczssUdzLR4fuL2Jt/GWWGuAWD3jpB0+WwnoG7n17P4Ous01BJhCBAhGoV+6FpYk48IB22A0V94GVGzpEYsYd87nX7pDCQekiT74jro84glOD3LPPvWifjn/R7Ln7Tk6BguN6LbNaDI474vJwcbjI+tNPP3dRWPLB4V6ka66/1YWPO+a/7ouHi9hfa625ulOgII6nN+mIABHIjQDWIbLmyC2ZXG698i84Cq8awg20jxSI8gRxWBEP+NsSbg2EdemfU6e6Vw6RB3fBRdb6xK6LoHyW1yFTORkOxoagbApKHnwoqC+4+EqnpIECBZbF340f70TwKqVWlj/y6IUuHWs/sTLE88o//zLBLLfs0u5+PSdgf2Fd3L//Iu5OQPKvoEKfCFQGgdRWdGXaTt+AXc7m+15xhuk+eMNyNhmpLfQJfSuHk8tjoTTBDxwsS8KUJ1CwyLPHcqlsvn42tzS7l2JgNYJdWFyYevZ5l7hiOC6y/7A9Q6vAjee77XWg2Xu//7r7QaCpx1NuuOkcTixJROmBye9a++wvFiqYBA+295ocfNgx7hnfTp062gvClnflcIkiXpmBcgDPzZ19bqo/sLZYacVlnUwSv1ZdeUVXLe4yuNw+WyoOZvTbbLeH2Xq73dPHkeRLFS6+lZ1r7ITsai/QxZhesi95wHXu3MXdf4Aw6pEXgBCXC9Fw+aRMsriDBccF0N5xJ50OMXdJLnzIHH/iac7SB3fOHHv8KUimIwKxIlCP3LvWmqulMbzuhtvSikkszG+85Y503iAlh0RcWo0jOlC2+ov3BRec3ymGoRzWP7g3SRwU1Mjr1i2123r1dTe7f/ubbbVTesGPC2qPsf/W0Re5jwXlsav6+JPP2DuTnrC7t2c4ZSzScQTwWnUfCo/6ARU6IlA4AlirlNvVI/9CISHrRlzY/0mrshjY4/LW199MXaIPvsRdcOKwKXffg2NddIfttnZHyiUP/gbrDcriXuHhxRbr78SgdEHaisun1pWTp0wxQ7bf03Hw8SNOd8eCwLtY5917/8OuzI7bbeN8/IJlMvgX624cM8LfC+aDO+++zylPIEPrP6BARwQqh0D4Vnjl+pR4y/OMvsZM2HRXM+O5VxJvK0oD3dZb06BP5XJQlmAXEuSMozsIhylPoGAR5YneuczXVzyxicW672BOfusNlxtc4hrmoHUfbr/sQ9EBywuYL+I+AHmZZ+iQzV1RmJTjFQnsrsIU/mJ7W/pk2y7OrGLHZ9heuzq5/9hd2KetSTtM108/8wJzxVU3mil/puQgcIY1rYfVRlIOljL4EoRnkM+ySqTbrGIDliTYncYY8YoGXuaAg9XNNlahgtcvthiyi9uRkLtLcF5WjgBAMbS0tSDB06PYAVl+1XWcUuq4Yw43p44cbmBKijtk/rHOJu6OhPH2aWLsxEBZdIh9MQgO96o88NCjzrIFSit5qm8pe6cL8KvEIs91jL9iRQCfY6V3QGVA9ca9G/1rfYN/T7B2w1OauOAZCgos5KHQhVtu2WXMevYFL3HgObm7aIehW7d59hKL8ssvPlvE0z4UoY8/+ayLb2/LgR/F4ZWwZ8a94F7T2XTLHW2dC1irvJ/cv3H8beCeEzwNDwdlCjgTl8fCimWFVddzL3zJU8iQwbEe2S1FnI4IEIHqR6De+BefyAH28m1sCmHTDNyHTapZs2eZd+3RGWxqwfJ2v332zPrwsOYVBfYhB+6TlYcI1llB7pjjTnYvlfXq1TOLozEHbGPvXhlz/1iDlyOhFOncqXNaOY014PBjDktXudvO27sXHfFowT77H2bwtDz6jKNBcHPOOYfZ2V5qS0cEiEA4AkmvfStqgRI+7GRzOljTvXkfvbUqLFFgeYK+oE/ldLAkEYUIJgs5xiN9gOIEyhX8wEE2qvWJ1CE+yH7DDdZxL9U8dN/t1tojZREi+b6PCe4e+wIQzoNOnPSHm2w+ts8eQ7t/47WXGJhAwkEZc8v1l7uLEPEyDRb4UJ7gAlhccCg3lcNi5YZrLjZD7RlSLPpxvGW2nYzwxQX3EuB29aTd8KMPc/jhyxOOE73/wcdudxnncG+67tK0NQleJbrtpqvM2oP+4SZNKE8wwQOzB++9NevVogvOOdXgBSBcdovJXhyO8dxx81XuqA/uh4EVEJQnmMRvuvZSs6G9kAwOX5SusxeRYSdZ7lyB9QrumOnYsYNUR58IxIZAvXEvFr6PPHCn2cNeBIhXwPBvH0oJKE9giTfMPh3+0Jhbs0zLwcVQrML6RJSdpX4AUNCOvf8Ox3moG8cBsbhAn0bZZ9WFE6QdPKF+hn2aE3wJOVGegGfBZRefXx5rSekPfSJABEpHoN74F4jtvMO25u7b7XrS3rvXYi2jcYcUNuZmWx7EGvD+0dY6zyo3xOGFM1wQC7f9tlu5YzOSV4p/0Xmj3BoQR4ewwYh1KByORV512bnpI9RIg9XMYw/d7axMcOwId/RBeYI5AcqWRx+8M23dAnk6IkAEyo9AB7uYamNLiAWTOAmLj3QswCSuw9Oa2+5ai1yQ79JsW+4/6y88Xz9ptmz+pAOGV+xOFNx5Uq5jO2GA6uM5YTKlKE/C6oyajrOkOKIDs3VcaJjLQW4u+4UACptcDl9ioDzIV1+uOkrJw5cRXCyL86ywJAlzUIp8+933brdYji2FyWInRZQgWgZ1fP3Nt/ap1HnTzyfrfAljgm6a2eRwkTT61YeA8OgPv050ViUdjFV0WQsCbWGiwxgByiBNykqazXFpSF9k/rnLPth65F45C7/4ov2znsQsJ/iTrFIaR/V69e5llloy+2WyoH5A+fq1fXoZL0RAgUJHBOoVAeFQ8m9pfwGVWvtiPYn75WCJCytofSdKaSOKXhprss+//MrgyeLF7DyADa9cDpuCcn/fgCWXcEqUXPLMIwK1jEAQ98qa1/eBg6RJuEfnlH4D6eABOPi+nMg7AftL56fT6l2BAiAarr3DTDr8pLI9cYyninHjeDkujJUPOp/vLFBefSPrThRcGIv7Ukp9eSdf28wnAkQgGgK1tIDHiMm90T53ShEBIlB5BMi/pX0G1bj2LW1ELE0EiEA5EaACxaKNichNRvBbd0IrYYEiH3zL9z+aySecbRpuvkeSEvF77b6d6XPa0Yk/VZxI51kpESACFUWg1hbwAJPcW9E/KTZOBIhARATIvxGBChDj2jcAFCYRASJQEAJUoFi4ghQoC87b13S0ZjWVdDNeet1MvfAa0zg6dQN3XH3pOXQz0/uwYabboMyrDHHVzXqIABGoDwTAm7Psz08TJjmTwriO8Cw0b7+K33tD7q2Pv2GOkgi0VwTIv4V/clz7Fo4ZSxABItAWgbC1rxyv8X3UIGkSrtkjPAvMPVfOOyHawplcSvOnX5qG28aYaWMeMU0fflZUQ12WHWB6DBlseu0yxHReaomi6mAhIkAEiIAggAU8zlD//PsfsSpQFpynL7lXQKZPBIgAEQhAgPwbAEpAEte+AaAwiQgQgZIQCFv7ipLE99GYpEm4ZhUo8/ad03TtUn0vK0OZMuOF18zMt94zTR99blq+HW9afptoZjc0uj+GDvbJsk7z9DOdFlvEdBm4pOm6ygqm2zqrU2ni0OEvIkAE4kIAC/iZTc1mwqQpkRUo0jbKikuFM5fIztuvj+lG7hV46BMBIkAE2iBQDP+iDBbx5N82cDKBCBABIhAZgbC1ryhJwnxpAPk1o0DBoPCUmNyB0sdertq7Z3mf8xVg6RMBIkAEqh0BLMKnNk43k6c2xqpAmWuOXuTeav/w2T8iQAQqikAx/BukQMEgZs9OvWaJfPJvRT9WNk4EiEA7QCBs7RumOJF0GVrcCpTwN1SlxTL6Tc0tZWyNTREBIkAE2h8CSfBkEnW2P2TZYyJABIhAbgQK5Up/ER9Ue6F1BtXBNCJABIhALSNQbTxZNQoUTDIzZjbV8mfPsREBIkAESkYgCZ6cTu4t+XNhBUSACNQ+AnHzL9a+5N/a/7vhCIkAESgNgbi5t7TeGFM1ChQMpLmlxVSbhqlUgFmeCBABIhAXAuBH8KR2UXY4tTzCugzCzc3N5F4fJMaJABEgAgqBuPhXVemC5F8fEcaJABEgAhkEkuLeTAuFh6pKgYLuT5s+o/BRsAQRIAJEoA4QEH7UCpC4hi11x1Uf6yECRIAI1BICSXJkI9e+tfSnwrEQASIQIwLCvUmsfYvtZtUpUBqmzSx2LCxHBIgAEahpBJLkxyTrrukPhYMjAkSgLhAQjkxiEd84jZuHdfFHxEESASJQMALCvQUXTLBA2RQoUSec5pZm0zidSpQEP3NWTQSIQDtEoGHadHt8pzmxnqNutEFHBIgAESAC2QgUy79R175N9hgl177ZmDNGBIgAESiWe5NGrmwKFBlIlMnkz4ZGEadPBIgAESACFgE84ZbPReHXXHVEaSNXeeYRASJABGoRgT8bppU0rCjczLVvSRCzMBEgAjWIQJR1aRR+jRuaohQoSXcUN+1yJzTuj5r1EQEi0F4RAB+CF3Nxr86LEg7CgtwbhArTiAARqGcEwL8zm5pz8i/w0bxbDF7k32JQYxkiQARqFQFZ+0YdXxgHh6VHrTdIrigFSlBFklZMJzuYDq64LvvHlAYza/ZsqZY+ESACRKAuEQAPgg/FCU8Kb0p6Pl/KaTlJEx955F6NEMNEgAjUMwJh/OtjojlUh305HRc5+BIm/2qEGCYCRKBeEQjj3kLXvknhF7sCpeCO2olDO5lImltmmUl//KmzGCYCRIAI1B0C4EHwoSywswDw+DMrL2+E3JsXIgoQASJQ1wiE8a9bxBfIv9kcTv6t6z8sDp4IEIGcCIRxrytUIPfmbKjIzIopULInkuDeT7FnTqdM5X0owegwlQgQgVpHAPwHHhQXxpth6VJO+1Fkyb0aMYaJABGoRwTIv/X4qXPMRIAIVBqBJLg37jFVTIESZSAdO3Y0v9vd18bpfN4tCl6UIQJEoHYQAO+B/8CD5Xbk3nIjzvaIABGoJgSEf6MonOPuN/k3bkRZHxEgAu0FAeHeSqx9C8Eo8ZV5vslH5yMscW2d88uESWb6DD5tXMgHS1kiQATaLwLgO/Ce7zRHIk/40pfLl+fnY6IKqovcG4Qs04gAEahlBDT/al7UYYzfj2tMcuX5ZSEr8lz7ahQZJgJEoJ4Q0Nyrx605EunCl1qmmHAp9SSuQIk0ID1jtBbQg8JVsj/9OpEv80QCk0JEgAi0ZwRw6zj4Tl+h3bFj9nl5N74A3vTHrXnUz0vF29ar2yL3BqPGVCJABGoTgSD+1VSb5lSdWDQUbfk3Xb+tk/xbNLAsSASIQDtDIIh79Xo0PZwI3Kt5NF0u5kBFFChBAwu7VRey+MFtvPhS8ceUqTFDwOqIABEgAtWBAPgNPAe+E+6L2rMgXvXLBskEpaGctE/u9VFknAgQgVpEIIx/wzhSYxAk46f5cZQPSpN05JF/NcoMEwEiUIsIhHFvlLGGcWiUsqXIlFWB4g/Sj8tA5NwTlEwiI/5vk6aYX3+fxCeOBSz6RIAItHsEsEgGr4Hf4ITv4IMH4YQXEQ5TOLs8KYBIq5P6JB7mSxvk3jCEmE4EiECtIRDGvxin0Klwo0uzDFyI8/nXj0td0gb5VxChTwSIQC0jEMa9ca19k8Suc5KVF1Q3ZozWXdfZ1tcOQCINk8usWbOsFUqDaWicbubuO6eZs3cvLcowESACRKBdITBlaoP53SpOmppbHMdlFtE5FumyqrcjDVuM5wJBODUlg3ayOVfKihy5VxChTwSIQC0hkIt/Q7k1B/+GlgkFLcW/wrVaTNLIvxoVhokAEagFBHJxb+j4cnBvaJmEMjpYhUSblbNWYEhYfPQDYfmBQkPypjVnFvySJvLSf0kP8mfPnuXEkKd/pItoCz9wzrdy3bp1Mf36zGnm6N3TpfMXESACRKA9IPCnfaJ44uQpZsaMJrfNKYoT+Jlw6ggjFtLykxpbKo4w0rXvIjl+BXGvKFA07yJM7s0BJLOIABFotwiQf9vtR8eOEwEi0I4RKIV7O3TIPHjgr30lDmjCwj06p1QeyMc6G778CKRSVny/vrScVUQkrkBBY/6iXdL8dChRJA1KEoTt/60+FvSSllKyIBMyXbp0dtYovXv1MN27dZXx0ScCRIAIVA0CuGF8asM0A817U1NziuQVgYOws0k9NRGIQiVF9B0d5wm5+74MVtKFTyVd4tqHbDHcCz7u2rULuVfApU8EiEDVIqD5d+bMppSiOgL/gh8zP9H4FyCkeLXNEtvxdxz8izq49q3aPzd2jAgQgVYENPeWsvZFdeDVKL4TUvKI15QCBQPCJJCZTLKtULBAh4OeR+Sy/HR+phwW9D26dzPdWn1MMPgC0sn+0BEBIkAEkkagxfISuAsTxbTpM8wMu1iHj0W7kH9aKeJpwWWhLrePi0IFfU7ltV3AS53whUslTcclLByKOhFOlcsor5FG7gU6dESACLQ3BMrFv8Kx4mucJE04V+dJGnz8CP9CRtLIvxoxhokAEWgPCCTNvcBAuBW+Dgs+khYUj1OBUtIdKH4npbO5fJSRyUPLSbqFw57Gz2js8eUBE0lQW27isfnwISf14ksKfhCXNPGlTd2GpGnfl9d5DBMBIlB/CARxkEYB3KWdyMP3wy7upaOsyIq8KFnSea1tCN+JnG43ahhlwXNSh+u/HYJwXxD3irzzyb1RoaYcESACJSIgPBVWTSX41++LcKqfjnhYnowL/dfr0iD+lXrJv4IEfSJABJJGQDgqrJ1ycq/0RfywPpUjvSQFSq4OYnCyEIecHw8tiy8VOLJj/5MyKaCgVMn+giJfIlCXzpVyuo1UHZkvB/KB6z4Gyes0hokAESACGgHhlVxpkJGftJxKk7xsP8WZkEe688F/rWGXEPIL8prXpHyIeJpnUXc+7hXOFR91OnV3qyLGbxv50r70idwLVOiIABGIAwHhF6krKI60rPTWuKSLjzpS4QxvSTnHW7ZcPgd54TqpT8f98ml59IlrXx8exokAEahCBIQXddf8NMTlJy2n0iQv2y+ee9NtqADqDnO58sLK6PTEFCi6ET+MTmNC8X0tJ3lIk0H6ZbQ8wk6JgrqVxYquR8o7Wds+nNTtIq2/ck12Wo5hIkAE6guBIL4QBHSehAP9VkLXeTqM+hCXNIlLO+JLvu+HyUs5ydd8GJQncvBFVvw2adYaxQql5aSscKlfTvLhayfyOo1hIkAEiAAQEK4LQkPnSTjQz8G/UAxLO1JW4kFthuXpsloG6cKF4vv1iowuJ7L/3955gElaFG+8L8ApikoQEBDJEkRBoiKCgCBRgoCS+ZM80oFEQbKACpIOBEnCiRxZEQNZsuQMkkHJSZB8Ye/+/fbMO1vT21+asLt39/bz7HZ3VXV1f7/ZrZmp6a+HdTxGr31jIuqLgAh0kkAc06xvq2M7WefEXmvPNuawbc5JWVxn2XNcp+u2Eyi4AAT1TpSGL+8zzsTDP84EwFko/PSTTyasYRPa9RfzDX9QRIXgU2unLhqS2U35yDSWQgREYNAQqPq/nlp4ygdlqNn2jTDcylIv2Hn2CYw51ntBpzGeuqqxB/5SYxpyrNeHc7sDEHOlYi/WjtsrG/HY24X1muQ4xsaF15S1jtg+1U+NTdlJJgIiMHgJMBa0s8KUD8pQs23jJ2XtxF/GPa6dPtmvUmNsiGkV4i/HcF6MH6LXvlWwy1YEplkCjBvtAEj5oAw1252Ove2suZNj206g5C0G8Ipe6ObZDPVfVzTJfysPHwT44gt5yOIX8E1rwdz1nSicg35gx3VZmR1PvZVltbN8ZNlLLgIiMOURKPo/j/W2H17Y1i8Zcv5AxBfxtXZzkiTIfBzMKnYOawM5Y5htxzbo087qGHsh43jGXsi6FXtTa8F8ccm67thOfREQgamDQNH/fKy3/YGMv1n0ub5UzGP8tTaMv5B1K/5iran1FF1Dll5yERCBKZ8A41DWlcR62+/v2GvXaNdh5Wjn6WLbrH5XEyjxpFgwg7Ntw4591l6ASN6QWxs+kUCGJxL6pA3qcPCs0cFvKN4nSqPv2xhvfcR69FVEQAREwBJADLFxpKFjrKkLaGPt2bY6xDUUK2PbC/vogqD+q2Fnxsd6xjjYsg0b9lmHueqxF3rYUleLvTVZKvbCNti3GHsxj4oIiIAIFBFArEjGiyiG0Mbas92sq83YLKvHo7pPq7Proxwy27Z9xlzo2aY+xEzKMZeJudZGr31BQ0UERGAgCSCGxXEurAexyxTaWHu2ra6br33Ncjre7EgCBSDsE0LVVXJ8XMOPf5jwKxT7JAPg/jkm3NJjHwgY2m3l1HF9TTcbwYEvsKFdEJhfHGdEaoqACExDBLJiQxMC88RBe9awYxu1bUPHJ4+UXYh/UCQK/bQTo+Aja3xW7MWlYhxup+QarB+2qaP/KrGXYxKXLZEIiMA0RIBxpPCSEZh8oT3rWEY5a8Zf9Clju7/iL+ZDzGMd1qzXvsCgIgIiMEAEGA9zp6/HXdjQnnUso5w1Y2/KrkzsxbiBLB1JoORdAEDZF8O2b9tJH3hg8KRSfyKBPb/SmD6ZSOF4yPnJKP3ziQk2lAV788DTH/2whr2KCIiACFgCeXHB6tBmnzX8UM7wwj50iF8ojSeQuhHHsw5GsKOTnDZsYcc4Z8dYXcMGPjNiL+xrcRb+0OstHM+6TOzFaK6LnuL1Ua5aBERABEAgK0ZYOdrss+bYmq7G0uo6GX9tXMMc7Nv5aiuIfufEX/rQa9+ImboiIAJdJ5AXu6wObfZZY3GUI8TZPtqdir30izpV7HpS+rKyridQyi4EF4Qnhrj2gsYLeRxsCMBIoqD0QuC4moxJFs5NOz7xsA99SsZxqZr2KZ1kIiACUz4BGx+KribL1sptu/EEYZ48MAdtGnokjWuKelXr0451zai93/BVJfY2z91+7K1dZv16cy5FsTcHjlQiMJUQaI4vxReVsrcy227EVxNuqEfd0Hco/tJ33lXApkr8ha9ev+3H315feavsfa2cbyWtCIjAlEqgbCzA9WXZWrltN2Jr46Vt82vahr5Dsbc/HoN+SaAAon3xa/u2HV9wlg5y6pqfeEKuJTwJcr7Yzs7BsVYWt+mHcvhTEQERmHYIlPmfT9lAZuVsM4T09mt2jX70BJJHGmMYozje2ls95LZv23ZMUxuLre9EYQKb8zF+1ure2IvxVse29ZuSWT19WFnq+qxebREQgamPQNn/+9gOfStjO46/IMYX71XpwSdiGQr90wf71NOGfTuWY1hn6SCnjjG0VvfG39g/7egbdUpm9bSxMsyrIgIiMO0QKPM/n7KBzMrZZgjp7bf32pePBP2x3191vyRQyl4MIDCw80kgjAV18yLewkKbO05qYzlbc7C3Y+jbyjCKcnpAHdtYndoiIALTHoG8mBDrbJ9PHiBGOV+4s5+iSV1cp2ytjPZWxnasQ78WP5tr2qP2T3WNrzcO/YzYi/cT1r9tM8ZaGXxRjjZLbEO5ahEQgWmbQFZsiOW2n4q/0POHRBHnQqkPoI+4pn0rNX1xLPo2/lLuF6fXvg0YaoiACAwkgThu2bXEOtuvh9JgTvlgee1rr6Fqe4hPPkR3sTe/mOULW9aYAG32kbxg+8MJ+dPTjla2n2pTxtpPxKHhhTw61Nma7Zq+MaRh2yuptax9rFNfBERABLII8Mkg1lt5/ORBXZ+aL9zhrD6oj41xRl08d214cwI5L8ZZHdtx3W7sxZro0643JbN6tUVABEQgi0AqBsYyEzKbkiW0a9RTcfzNirNZ8izekouACIgACDBuxjSsvD9ir50vb11c5wzT1VoYZ5M41g/brLP8DpodKFgogznbcc03FXgxbz8NxbjUhdb89SZd8BmqLXY+K2+lTV+tjNUYERCB/idgY0Y7s6f8ZD1xYB5rz3bjU8+aQVhOQ1d3xn7sIxi38Qt+4/hFGesQe+sJ7KLY2+urN/ZiqF0/bays1Uugr1bHa5wIiED/E+jE/z5XHfvqRvzlXKjj+ayuahu+GMPYjusQf+FYr32r4pW9CIhARKBT8Svlpxux185j29Fl9Xu3oztQPprY+0SQdSV8oqA+q2/lbLMOY+sv5nFfPovVZ7VTtpRl1fWpstSSi4AITKUE7JNB0SWmAruVZbaZ2DWT0ZY15mabNdfDPmMe+9SzjvXsQ1/Utnq8iA9jFHsDB/0SARHoDgETEgsnSMU9K8tsV4y/WEjKF2Ok1dlFx3r2acM+a8jZZh1sFX+JTLUIiECXCAzG2BvH1qJ+jAb2nxxee/2K9hS/AwUX0fTkUL9iK2ebdTDBo+ufSPjJLRIp0KPAX6odlJGeMlvH66m7tSZqi4AITIMEGFeyLj2lt7KmNl+4w5kJMrRhXVM3757j/NYmzy5lj7GMdUVtqw9rVewlUtUiIAL9RCCOd/G0Kb2VNbVbjL9NPkzcjtdS1Icfxl9ra+Vssw52mFPx1yJTWwREoMsEEIPySkpvZU3tFmOvnd/6gzzuW9sy+ti+TL/jO1AwaepJwS4mpbeyqm08mbBk7UiB3vqlva2L9NZWbREQgWmbQF7AjnW2z6RvoGeelJpsKsrbeSRs3KvUNnEX8yv2tvMoaKwIiEAVAjZe2nEpuZVNNfEXF21isOKv/StQWwREoFsEbDyN54h1tt/N2GvnideEPvVT/A4UXIh9oc6Lo8zqy7Qbn95mZOXhH74JEH0Wzol+Sk871SIgAiKQIpAVN2J505MHHFVMksT+4rVAb+NZSg9ZbGPHVWpz/fUX8bw+uxuQ86XWbteR0sfrV18EREAEYgKp2JGU2U894YTxKzR7P121Y7Pa8Rpq7vLjb5YN5mAsrNpuXINe+6YeEslEQAS6SMDGRztNLOdrw4ZNF2Jvw3eiEa8nYdKSqCuHyNongaxVpWysLG7DD55kIE+1g5APinkyCbbm9p5gV/9l/Vm52iIgAiJQhQDjUjymzxMHDBinQrP4hXttSK9dXt/GTdilSpGN1cdt+LNxM7zw5/VEiZRgq9ibeggkEwER6CABxKlU6RN/Izs7LqsNv1aX14ddiImJxdBHysbK4jZcxTGXvhpz8br02jdBXiIREIFuEWAsiv33ib0wYJwKzd6YbX3Ydm1Ir12ZPmz6q3QlgVJ28QDVeAKoD7Iy24ba9uM29A1ffJASL+iDnX9RjwIfrZTGPK0M1hgREIFBTaDVuICLSj5pBEVzrInnsH3brg3NHwubopLyaeMY9Fl9jqXe2jbpbDxV7C16SKQXARGICDCeROLS3cEaf+MLsDGUOiuzbehtP25Dz9jceIOi+AssKiIgAhUIILa0WgZr7G3nmopYdC2BYoN80SJivR3Li+cTRJEOvmjbeDLhBBlPKlSHsfXkipXFba4plqsvAiIwdRPIfJKILzvjiSiOHXn9WIcpyshg04iBGWPi5dJ3ahxlnBt92+ZY1LRV7AUNFREQgU4TKBWDW4i/jGlcb9yHvIwMNo04WHeWGsd5bG3Hcgx9Fengh7aKv5aq2iIgAu0SKBV3MUkLsbc2rDd5w9hn11xWVjTG6tttdy2BgoXZgJ+10CybWG77aKPwySKrb23CgNQDW0+qBL3/VfqPhANUi4AITNsEUnHFEGF8MqI+L8Rjm6I+fcV2Vs74SFlcY2xsQ39WHtvZfmzPPuayPpJPqoq98UOivgiIQFUCgzz+2phoL83G0Ty5taMvxtasPvzRJvhOMVL8tdjVFgERqEogFVeMD8YnI+r6a187V7fbXU2gYPE2+GddTJZNLOeDwSeGrD7miW3s3NQFWcEfgB2ntgiIgAjkEWBMStmkdLEs7sNPSpYn59xZ46inj6Z4WFdirJXTF2VZfQyPbeouQ0Vd6Cj2WjRqi4AItEmAcSnlJqWLZXEfflKyPDnnzhpHPX00xcS6EmOtnL4oy+pjeGxTdxkq6kJH8deiUVsERKANAoxJKRcpXSyL+/CTkuXJ7dxZY61Nu+2uJ1B4sU2BO7FqXGzKJiUnGNqzD7d5Mk5r7SmzNX1YmdoiIAIiUBQ7LKEs2yryKrZ2brQ5tiiewS5lk5LHMs6B+ejDyqwc7VgHmS30YWVqi4AIiAAIFMWPmFLKPiXL8l3FNmvuopiGOVI2KTnXQ3v2MXeejGuz9pTZmj6sTG0REAERKIodllCWbRV5FVs7N9pZY2O7dvv9kkDhBRUFZ150bFdFTlvMST9WRmDUsW/rlL3Vqy0CIiAClkBRzMjTp3QpGefL06VsYJ8X7zCGPmO7lDwlsz7Qtn5oDzmL1VOGOmVr9WqLgAiIQEygTNzIsknJUzLOmadL2cA+K97F9rEd5yojpy180t7KOBd17Ns6ZW/1aouACIiAJVAUM/L0KV1KxvnydFVsaNtu3W8JFCwUF58XvHkxWXZ5coyNfcewrT7Wce5O1HaeTviTDxEQgc4R6Ob/PldZNEeWPksOv3k6zptlh7Fl4lKWHee2PijDnFaeWkORHmM6UeJ5OuFTPkRABDpDwMaMznhMeymaJ0ufJccseTq7ipQdZGViU5Zdnhxzx77jNVh9rLNrb7dt52nXl8aLgAh0lkA3//e50qI5svRZcvjN03HeKnZ2TDvtfk2g8ALLBFkAS9kRZJ4O8xTpY2gp+9imbJ9rLGP/179e5RZeeEG30EILljHvqM2zzz7vHn74Eff9768b/N508y1u+LBhbsUVv1k4zzv/e8f95cq/u/XXX8d95jOfKbSXgQhMbQSq/J/j2vPs83RFYy3XPD/QlYlzeXb0H/uhHGuJdUXrT9nba6rStuuoMk62IiACUxaBqv/refZ5OlAp0pNcnh10ZWJdlh19p3xQh3UU6blW1il76qrWdh1Vx8peBERgyiBQ9f88zz5PBxpFehIra0f7TtT9nkDBonGhWUF7k023cF/96hLu4J8dkGtnYcW+3nvvPXfXXfe65ZZb2s0444yBU2wTw4O//7zwonv22efcKiuvFKtb7j/44MNu2+12dNtuu7UbtccuffyccOJot83WW/okykJ9dBC876/lTn8ty/tr+XT9WpKGLQjvv/9+9+vjR7sNNlgvjB49+jQ3/XTTu299a8VCb/fcfZ87/oST3Rfn+WJHeRVOLAMRmEII2BiVteQimyK99VvGFjZFsRA+6SvLNk9PHdeW5YP62J5y1SIgAiLQKoEycaXIpkhv11bGFjZF8RA+8+zsPClfVg9fKRvIWWJ7ylWLgAiIQCsEysSUIpsivV1XFVs7rt320HYdtDq+7AXDrsg2tnnhhZfc3vvs71Cz0CauqUd94z9udj/96SFW1Hb771ddE3xcffW1Lfn6j7+GffY9wCd3eq+lJUclBp1+2mg3evSvS1g6t/rqq7qxY8e4lb/9rVL2U5sRduA888yzrqenJ3lpeNHy3HPPuzfefDOpLxJOmjTJPf74E+622+9w7/7v3T7mSKxB949/3OQ+/PDDPvoygldeeTWMv/vuex3myytvvPGme+yxx9348ePzzDJ1mAsJylQBy5tvvjX8vP32f1MmuTI8Dlib/Xnv3WZmWPddd9/jrr32eh8X0uvInaSuxFisFdeDYuPJq6++6m7yuhtuuMl98EH+Y8Jxdbd9qiJ9PAD2ZUsnbcuskzZxXXa9shMBERCBLAJxXGE/yx7yIpsifewb9mVLWdsya6hiQ1vWZdcrOxEQARGICTCOpOrY1vZpb2W2XaS3tmjDfqDKgOxA4cXiwouy49YW7Tz7ZpDloDaPwYPRuQcEb0rxhm3bbbZ05553fnhDvOiii/CSmup4HVRSjppt6tqv4bP3emeb7fOlXWItiy7y5dL2U4shbnsa8/s/uL/97aqQTLjmqivdbLPP1rg8vFHHbVljfn+BT6A85zbc8Pvu0EMObOjLNPDme9Se+4QEzBxzzO6e83Mef/wv3QorLBeG33LLbT5BeICbZZZZ/O1TM7oDDzrUrex3TR1x+MFuxIgRZaZwp/jdRueOOd/N43cQTZgw0b333vtu8x9t4nbaafs+4z/++GO33f/t7F566SX35ysuDWP6GGUI/vnPO915Y/7g7rjjTjf33HP7274ua7JE8mbvvQ9wM3xqBvfJT37SIQlx7K+O9rugim8jo6P99j/Ivf7a627EJz5BUWD+7Xpy74033nA77by7e+P11938C8wfblvDdY788Y4N+zIN7Li65JLLw24xJLd22nF7t/3224Sh99xzn/vxyN3dvPPO66abbjp30M8O9Y/X8u7oow5zn/rUp8q4Dzat/I+3OiYvltoF03+ePW04Ls+WNvEYylWLgAiIQCcJlI01Ze3s2lodUyZGYh76z7OnDdeVZ0ubeAzlqkVABESgEwSqxJgqtlxbK2M4thP1gCZQcAEAUCbY82Jh//LLr7gzz/qdu/XW29xnZvyM+/bK3wpvhvDG5ff+jesFYy8K5ti5MWL6Ee7CC8eET4XPOONsN5mOTH3Jxee7nx18uLvzznsc3ixusOFmbkH/Ruu4444JVq+88oo76+zzHN644ryPlb+9ovuxf/OF+fIK3hy+8847buuttwi34WA3SlYChX7wafoBfhfMllv80L3rP0W/YOzFQYU3zHhzfOHY89xDDz3ijj7m2ND+hHnTuO9+B4XzVHbcYbswBuOPP2G0f/N6l/voo4/cYost6vbdZy83//zzcrqm+qijf+U+8YkRbu+fjAryf/3rcXfCCaf4T/b/5WaeeSa35hqr+zeJO7ph/pyUZ/ytTnjj+5tTT3BzzjlnsC/idOhhP3ezzDyzm3XWWdwfLrgorOewQw9yW2y5nfvZQfu7ZZb5emM95533B3f//Q+4E088Nsg23vhHbpdddnYPPfyQu+qq6/yb/glujTVWcz/Zaw83/fTTN8YhYXXJpX90jz36mFvEJ6sOOnA/d8wxx7nvfndVt8kmG4WdFv/0PL7mbxP79KfLv7HlBEhW4Myavfbc3f3yV79uvLih/mb/N4KEwVZbbe7+ePkVzqeoqCpd4+8Xf+NX/Oliv8ZPu58f9Ut38MFHuKuv/rMbOnSoQ1Ll/N//LqwDTvFYbLLJ5m7hhRZqvKEvmmzZ5ZZxP/zhJm7Wz88aTC++5DJ3tH/88ab/q1/9StPw004/I/w/IIFS5XLeeed/YUfXpptu7JMnc/n/r7ub/KJzxJHHuG9+cwU/9+Hh2pDYOfzwoxvX2mdAhmC33UaG60mpTzvtrPB/fe21fw1JGiR1Ru6yh/vemt918803b2pIH9kDDzzkzj9/rBt7wRj35S8v5K66+lp3wAE/c6uuunLwsdhii7ibb7rWzTDDDOFv4jWf0Fl3vY3d2AsvcTtsv20ff7Gg1SeCVsdh/lZifWwZDwAAIzNJREFUL8aVidepdZUZB/8qIiACItAqgVTsKfLVyhj4bHUcx1aJiZyrzBja2usuM87aqy0CIiACVQik4k7R+FbGwGer44rWU0U/YLfw2EUCRFkYSATsvsfe7oknnnS7jNzZrbfeOu6Pf7zSv0muvdFefvll3Q823ii4Rz1y5E4h0bH4VxYL7V18nz/TDR/u3/B8Mug33uj7/vDUFXx7+qDHm22sqTbfPmH3CMatt+7a7nI/3y9+cZy9hGQbCZOvf30pn3yY2a3h38BfddW1uW8+XnzxRf9J+W7+DeVy4WBX7Dj4wcYb1q9lw0aS6IMPPnDPP/98n9suXn75Zfff//beAjFqz/3cvffe77b/v23cqFG7+vNU3vc7CXYKbyZTC3711dfc66+/EVRvvfmWP7tlJzfHF2YPSQwkBMZeeLH7zW9+G/TjPh4X1jB+/ITQL8MJtz1cfc117s9X/s1t5t9Ub7Th+v4aeoKf+DYU3Mrx4ksvN5b5nL/eU0493Sek3nV77bW7W/Gb33AXX3yZu/HGWxo2eIO+v39T+9nPftbvADjAs1/SIan0xJNPurd9IgvljjvvcrvuOsqdffa5oV/119lnnRZ2eiy44ALJoSv6ZMAfL7/Q4e9p+hG9iZ2kcYYQO1jW9MkhJE/+52/fuemmW/ytQG84JORQFlpowUbyBP0F5p/PLbDAAp5X+du88H/C5Al8IJmA8uKLzT6QRLvllttDQigYVPiF3TFI+uyyy04hARcPRYLvhRdecCuvslJInkC/1jrfC9d6330PNJkjofbDH23jUFctDz/yaEjSYIcLCv6vZppp5pAEsb7AF3MccMDBVhzaf/U7jhZbdFG3yCILh7hwuU+ODR8+nd+JdHXoY5cJfhjHsJtrttlmLby9qkrss4tqdZz1gXYrfjgGdZVix+W1q/iUrQiIwNRNIC9WpHRVaHB8lTGwbXVcPE8rfjgGdZVix5VpV/EtWxEQgamTQJlYQZsqBFoZA/+tjquytrK2A74DxS4UYIoKbo34n/9k+/LLxza+/WXRxb7sdtxxV7eF37WBw1hxS8LJo38T3igtvviiweWX/K0K+GG55prr3Ss+YXCR352CeZdffjmfJHkq7FRZc83VaebO/8OF/gyK/7nLLuudb7HFMd9ubvPN/U6VjDfS2CFx/fU3ut13Hxn8f/e7q7mTTv6Ne/DBB91SSy3V8M8/BpwxgeTJWt9bw++qqO0A4bWMPuU0941vLO94LTVOtaRTX2Y1OW4l2dAfDrv00kuFT/8xIXZdbPyDzd2jfnfGMsssHdbl/xzrdWNJoX/3vfe5cePGuwN/um/41H7ZZZf2t+ws7N7679vGvvZ4YQ1lOU3w6/rdOaeHT+oxIw785Rqar8WvC5rG38QQN88X5w7JC4wDpxd8wglngPDxOuHEUzynFfwtIEc1xi3skw377Htg6MPX4ost5r85aN1whkuvb3gsV7hrpbYsv0LfsH6wAyEuVh/rUn3sPplvvvmC35NOOtV9368XO3Ze8gmllK9aIuLFsGsppU/NEcse9buMhgwZ6pZYYvHGHDjf5bDDj3L77fsTv5MLyaDwiDT0sY+4j51K+EHBusDMrm/YMISfIeEcGcrxfwMZdnBQhvGv+dtvcNvM0j4pZuXQYVVj/a4d/MzxhS+EpCN2J7EM87t2Jk6c2BiHT+JwbfEc77//QZgDSb14jpdefNk/JvMGl0iaTPCJQyRi4oQTkpC4Veiqq6/zya/3wt9pGFT/Ffu1urLtTviI56LPqp9Schz9VR3PcbaOfVqd2iIgAiLQDoF24ks7Y/PWTL9V4yfHwXfVsXnrgc76LrKVXgREQATyCHQinnTCR94aq+oGxQ6UKot+4P6H/JukOcIn8zjQET9zzDFHcPGY/7QcgAnZtu0cGHP4EUe5ww49sJFcsHrbvv++B93s3j92AnC+2Wevzfcv/4Yuq+CAT+wUWW3VVYLJF/2b/0W+vLD/xLrvYbLYHbHDjiP9twYt6/bdd68sl5XkuK0FX0+MWydwpgbWjqQKymuv1XaZ5Dmcd94vBY6HH3GMe+SRx8JulyV8AmaVVb6dHFaW05JLfa2RPEk6yhEu79+w2rLcssu4+x+o7VTAG2/c/oSdFHz8Ybvaat/xtz717gT53Oc+64484hD3Fb8jaTCW999/PzxOM844Y7iF6d577w3nksw446d88qp3d5Fd+y9/dbzD47Xeemtbcen2uHHjwo4q3NKDM1FYxvhbkfD3g+RdNwqSUfPMM3c4lJWH2F7td2mhvP32201Tzj/fvH7X0Qr+9rP5muTofNN/7fY222zld8ls4SZPmux3HR3od6X9uWGHW9fu9gfIYpcUCm7hQdLpbZ8MtGUWf5sa5lhqya9ZcWi/9d+33Ix+Rw3GnXjSaH9L1U/D+TPxY7LnXvu5LbfewV3kd0eNPvnYkNBlHLJ/l30mKCGgnxKmLZt0ao39sdaWL1IDRUAEpgkCjEO2bvXC242NZeZtZw57jWyXmVM2IiACItBpAoxBrNvx3wkf7cyfNXZQ7UCxiwQwlDirftvt/wzyddat3aYTOvVfOGwzVegLOrzR3m//n7l11l7Ln4vR+yl1ahxkt//zjqDCeQZxwYGiWeUv/jYVvCnEDgKWx/1tR/g54IC9G5/MQ/e7340JJjjDopMF5zSc8duz3LPP/Ttw/JQ/qLNswQGxxxxzhPvt6WeFM0o++9nPuLXWWjPc3oR2XMpy+sSI3oM+Yx9F/Rn9LS224ODRnp7at8cgCYXHdpZZZrYm4daQmWb6XJNsMHdwCxkKbmk61d+ydOCB+4cE0MSJk5rOeuE1XOB3puBsnjHnndX0N0V9UY2/0QMPPDTcLrSnv82L5T//eSEcfHzh2NrfJuWdrvfxZ/Lss89P3fc32CTsdMLXaM855xyhbefCLXX4SZV99q7t2IIONttut7M7+5xz/QG+6wfzHXfcLpyXtMaa64fzS55+6hmfrFymzxxfW/Kr/ha1k1JTePYjQmLrRP//vN666/hbpuYLu1qQqLTxZewF57o3/e1vOItn5x+Pcscde3Q44DfptKTQ+i85pC0zzBfH3VYdZq29U/5bXZfGiYAITD0EsuJMJ66wm75T6+N8nYiR9BXP0wnfsU/1RUAEpi0CWfGlUxS67b/ddQ7aBAovDABtsF/e79L44hfnCp8A04Z1Gdj4Jo2enon+TdueTW986AO19dPKfPik+9rrbrAuQ/urfgfHQw897A+UvTuc4UEDJCt232MXt9tuezm8IcatSCxcC2rbhn7ixOZbDWq3KdTWj7Mr9veJou223dJ/Yv5rN/dcc4bxSy61QnBNX+iwzTnYX9snTPDz73//x78hvCF8+8xzzz3vzjzj1D5jynCK/WNuHIqKgtuuOC/6Eyf6WznMNUOGYm1qkpps9tlmc9hd8tTTzzR9gwt2DLz66uuZY+mjel1L8PGaUuOpS605ZQ8ZDvHFzgwckoxbtrD7A0kO3OqE5JD1dY0/T2b0Kae70/yb/vnmm9ePrl5+dezx7smnnvYJmDObEgqXX/6nsFPodJ+AQ/lvfbfGySef6tZdZy1/eOoqXlq19P4Nc+QqK68Ubo+70x/siwOa8e07a6y5rj8/5PNN10r7MjXOG/rVsSeE23SGDx/u5vJ/+5dddmHY6YLdNisdtWI4mHf2OWYrPcesnv3dd90Tpr/00rFh3LvvvhcO9LVrwt8z1o7/4Tv8mTx/uuLKlhMo9rG2c/RHG3PbuNvpOQfy2jp9LfInAiIwdRIYyDjVzRg8kNc1df6l6KpEQAQ6RWBKiU+DPoGCB8Q+kSy62ML+jdDtjTdH0OOFPg6AxG0MePMydFjtTXl8MCnOJPnTn670314zpum2DvhAGTZ8WNjFgJ0M/IadMvPVRvf+vtEf+ok1X+e/9ePz9W85oXbTzbZ0V/392qYECnZ2fGvFb/hzVbZzvz7+5HAOBZItKKlrmc0nC1AeefTRhh9c6wsvvBTOPIHugQcf9odcDg/fXMOvtkXypmzBDoQPP/woHJr5pS/N43bYYVuf7BjiTv+t/yYjzzsurXCCj9rhmzOEc1lWX/07DbdPPPl0o122gTMpcMgozkeZY47ZQ+LhaP8NPIOx7PWT/cKZJnjst9t2q6Ylftnf6vWU3yWxr0/yoeDAZPxN4hYwFnyz0sGHHBl2OCzlb4tKFSRhsBMCjx++Gjgup/vdRddfd6MbM+ascNCx1eOMHJ5fAvmk+k6fmWaaqeVbsKx/27bnE+EgYJy985WvLG5NHP6nHvTfhLOk3yWysk+65JXHH3/Sfc4fJIy/fxbsmuItTjjr5C6fDMEZQbY87W8B++tf/h6+JcomMWGzsP/mnX/ceLPfkTU6xA4ktR599F/+G7m+ZV00tYf6GPDyy682ycp0BsuTB9eR+n8vcx2yEQEREIEplQDj30CuH2tQ/B3IR0Bzi4AI9BeBwRBzq1xrLdNQZUQ/2L7iD9HEN4/Yn5tvvjU8kWy26Sbh7IKfHniI/0rbR9zTfsfBkUce43b1uzfwJhNlIX+wK86QuOiiSxvnd+BgzkMOPdJ/Mvyj4Of55//tv/2l9oM3QyhfX2rJsC3/nHPOc//2CQSUTTf5QeF8wdD8wrft4ByFOHkCk9VXX9Vdf8ONjfNIzLDwLTs49BWHnuIrYFFS17LggvOHN7FnnnlueCP4lN9BgK+5RYKDBW+2sSPlzDPOCW/Uce5DlWTC/Q886Db74VbuUv+VwFjLM888F3bVLLPM15Of2rfCCWvFPwzeLONbTvDtM0jcnHbamT5p8BQvpXSNr0LGbUprr7Oh22rr7d0q31kzMJl77rkaPnAd31n1e/6bgP7akFVpYEcL3mjj7wkF3w6EPnY2sGDHDmQfffRxODPD2tMGt3/hjT4OHI0LDo0dN+7j8C1E8IukFXYp4VBhFOwuwlkbm/9oU/cFfx4Q/gfwg0NmbcEhqZgDf+dxweN6xpnnuL33GRVuF6IPnj2y0koruj322LXxw9tntt56i3B4auwvq4814Prffvud8DePNh4DlmeffS6sD3+r+H8+/Iij3brrrtXnVqw7/bcnne3/L1HbAl/4tiv8jeKxuczvnLnu+hvc99b6bsMMu3fu81+JjfiAx22//Q8K/5vxeT7/fv4/YQ7sGonL+v7bvrC7BDuwEC/OPff34TFfe+01gyl2A9162z8dzrABQ3xLz00+Zn0jOrcn9mv7+F8YjE8gXBdru2a1RUAERGBqIMD4xnqwXBPXw3qwrEvrEAEREIFOEJhSY1vvR7QdoIC37333JlR3jDci+InLPXffFg61POmk4/xOjZP8wZE7hp0oOFjylNHHh636GINPnkeO3DEkUDbfYlt35x03hW9rwRupM844O/xY37ff9o9w2wRumdjAfyp9wdhLwifeYy84L8x34onHOtz6kzWf9YU5br31dv9NOrtbcaO95hqru1P8bRf4atjVVlulIUcDb9B++Ysj3aabbuXPpTjEn4FxYvJa8HWsOFvh0MN+7g+f3SV8Ij5q1G7+W4V6P+3GroRd/dfHnn3OGHeG34mAHRm/OOaIcD5E06QZHdymgR0t4HyET1DhrAccsHnYYQclRyBJUYWTdXLE4Qe73Xb/iUNSDGUd/1W2G2ywrj/ss/nNsh2TauMWkEsuPt+/yb477A7YZustA2MkVPAPijJ+wviQ2OCBoik/ebKrr77OHfnzXzRM8O1PKDiDBLsjULb7v53DORhoP+a/3Qa3c+FWHOxeKFNw+O/jTzwR/t6wCwRJkt/4vwUW3BqCHUdIKOCHBbdRnXlm75k7lKdq7KZA0gK3edmCv5mdd97BitpqH+93VCHBwbLRRj8Mf9P33Xt7ED3jEyj7+oQhPmXDta611hr+m5/2o3lh/cGHH7jDDz868GAQXn/9ddye/v+BBTupRo4c1fj67iV8wg63ofH2Mdrl1TgE+qifHxb+F44/YXT4f/j1ccf4r0OeKQx744033ehDf960Dux4wdeo5xX+XebZDDadXbM+HR1sj47WIwIiUJaAjWVlxwy0nV2z4u9APxqaXwREoBUCNo61Mr6VMbV3ga2MTI8Z4j9N7ZPzsEE51YaMcnway/a4iX6rf/hS0fRknZbiTSTeBOKNc1waa/K3A9hvYYntUn2MhV/exkObvPlo080atzbE14IDK3F7QrxWrgOPz5tvveU+P+usjSQCdWVrvDmc2X9Dib2lI29sq5zwTUdIflU57Nau49577w8JNRwQyoIdChtutJk7ySfBvvOdlYMYTKq8eaav/q7BEUyQQJmaC3ZtvP76Gz4BOlefv+8y143/Vex0+fjjcT7hOaf3MaLPMHwDFXbo4ByZVLzoMyBD0NPTE3ax4FyV+G8Iuto6PvYH4X7Bn2fT98DkgXjSyLiUrokZe7s2gRyLgAiIQAsEFH9bgKYhIiACItAmgcEQe4f6LR4j6ttGsB6+hkeb62ONy81qE0VHEyjje5zrmdzpHA+X2rlaL/A7x3Iwebrwokv9Nwcd67bbZku35NeXdM/7bx+68i9/C7sCLr3kgpYTM4PpGrWWwU3ABtzBvdKBWZ1i78Bw16wiMC0QUPzNf5QVf/P5SCsCItAagSkh9g4bMtlNP6x2fVjvoEqgTOjxOzcmD8pjVVr7izCj9MRjYAzi5hVX/CWcg4HzLGb1B/guscTibtSoXd1Mn5tyvsp4EOOdppY2JTwhTCsPiOLvtPJI6zpFoEZA8Xdw/CUo9g6Ox0GrEIH+IjC1xt7hQya56YbVNnkMugRKj781Yvykenqnvx5pzSMCIiACIiACIiACIiACIiACIiACIiACEYHph/a4Yf6sUZROJFBa3i5iM1RsI6/jv3QtLE6/REAEREAEREAEREAEREAEREAEREAERGAgCCA3wQNGmLPAOmy76rpaTqBkTYRDWlREQAREQAREQAREQAREQAREQAREQAREYKAIdCM30fEEyrChSqAM1B+I5hUBERABERABERABERABERABERABEXD+1p3O5yY6nkDBFpmh/suMVURABERABERABERABERABERABERABESgvwkgJ8Hbdzo5d2ECpZX7g5RA6eRDJF8iIAIiIAIiIAIiIAIiIAIiIAIiIAJlCbSSkyiT+yhMoBQtMDVJ7bAW7UIpYie9CIiACIiACIiACIiACIiACIiACIhA5wgMCbtP+t6+k8pdVJ217QSKndAuaNjkHqtSWwREQAREQAREQAREQAREQAREQAREQAS6SsDmImyOohOTtp1AsQtiu1ZPdkMnT+zEGuVDBERABERABERABERABERABERABERABHIJ1HIQ/uuLh9ROQGGNQbad6yRH2XYCJcs3FjfE70LBj4oIiIAIiIAIiIAIiIAIiIAIiIAIiIAIdIsA8w+dSJRkrbFrCRRMGJIokyY4pyRKFn/JRUAEREAEREAEREAEREAEREAEREAE2iGAzRs+99DN5AmWl0ygZE1KOWt7fZSxbtL1jPdJFB0qa5moLQIiIAIiIAIiIAIiIAIiIAIiIAIi0CYBn2sYgpxDVJibYG3VlLG2OrSz5MkESjw4q0+nrGmHvpWF9sSPfQ5Ft/OQkWoREAEREAEREAEREAEREAEREAEREIHWCYQcg881xPkH24d39lm3OmNbCZQykw4d2jvFkJ5x/m4ef0uPigiIgAiIgAiIgAiIgAiIgAiIgAiIgAi0SAC5BeQYWGzugbJO173ZjTY82ywO2uyzhutG22+tmTThYy/p+73MbSxBQ0VABERABERABERABERABERABERABKZ6ApNrOYX6bTuNXIO/brZRsw0ctt0OnuFlBmOyyZPzEx4pG8rsYoOfSRNdz7iJbsiw6d3Q4dOXWYJsREAEREAEREAEREAEREAEREAEREAEpmECkyaO93e1jHfhS4rrSRLkG5hzYG0RpWRWj3YZG9iVSqDAMC6YIE6qWBm2z0ya5A9z8XYssGd/stdhJwoADB0+wv9MRzPVIiACIiACIiACIiACIiACIiACIiACIhAITJo4wecO/O06ODAWCROfb2BuIfRNEsXeykMbizEls/q8duUECiaziRPbt207KeWoUZoSKR5Az/gPXc+EIWE3ytBh03kYw+xwtUVABERABERABERABERABERABERABKYhAjggdpI/5wSbLnwSoZY4MYkS5BeYY2Ad47Fy24Zd3I/HpvqVEygpJ5BhciZW2OaCsuTWF3ar9Iz/2E2c/FFIoAwZ4jNKw4a7ocOGed/ILvnjWuoJGDtObREQAREQAREQAREQAREQAREQAREQgSmUgE+OTPYbK/AzqafH36Izsdb3CRTmFLCrBG37g6ulnm32WVOOuhMlM4GCCZn4qDIRb93BGC4afiinLPYJPedDpmmy8z+4v8mPRWHNcXGfctZFetqpFgEREAEREAEREAEREAEREAEREAER6ByBrPf9nCHWs486blOWquEPuQQU6kPH/6Kc/bI150/ZZyZQYmM4iZMSlLHmGE5I+6LkCcexjv1BHvuM+xzLmnr2UzXXl9JJJgIiIAIiIAIiIAIiIAIiIAIiIAIi0EygzHvt5hG9vXhsqg8Z5Wzn1fBukyW07Z21N59AvymdlWW1h8NB1URC1piUnDLULJjP9ilHDbk9fJZ2GGPHcc3U0wfl7OfV8dg8W+lEQAREQAREQAREQAREQAREQAREQATKE8h6z23laMd9zMCkCPW2hj7Vh9wW67eM3NrEbfjK3YECgyoJCU7ARdqxVgYQVod2Ss/5rT5vDujoh3ZxbeeNdeqLgAiIgAiIgAiIgAiIgAiIgAiIgAiUI1D0/jv2krKnDLVtY2wsY9/asc25aMN+lTr2FY8d4hMKKLG80Y91ts92qqYMu0lQ0E/JYj1tMIY6jkfNYu0oQ50ltzZqi4AIiIAIiIAIiIAIiIAIiIAIiIAIdJdAVkIilts+d55gZZDzB33oaEu7WG/HsZ2qrQxtFPqu9Zp/Q5e7A6XZvFoPzpHMwEUxEZKSQW+THrThWOoo5yrQR6GeNeW0Uy0CIiACIiACIiACIiACIiACIiACIjBwBPg+nbVdiZWxjTpus4+xNnlCXykZdZ2qww4UOGMCIuXY6ora1Nsabf7YuSBjciW2t3a2be1Sa6WMduyrFgEREAEREAEREAEREAEREAEREAER6D4Bm+xIzUZ9XMPWymwbOiRJYhn69if2Yftl27CzhXNW3oGCgUxO2LZ1Hrc5GWokTDgOdbwDBWOtHnPhBzJb4j7XRJtYT7lqERABERABERABERABERABERABERCB/iOQ9f7cytFmP1Wn9FV3ndAvrty2y5Jo7EDBgDgJQSex3PZTbcqy6tSuEzs/9VYWt7PWRrmtuQ4rU1sEREAEREAEREAEREAEREAEREAERKAzBMokJFI2VmbbcXKEOtZFetqxxlVmtWOdJdI0xicXGifImqa1D+1YZ/tss8YAtvNq6PL0XIS1szK2UzX9pnSSiYAIiIAIiIAIiIAIiIAIiIAIiIAIdIeATTqkZoj16FsZ26na2qb0mI9y207JuDaro4y11VW+hYdOUjUcZyUuqLM1fKAf39aT5Rty+sc4WyinLNZTrloEREAEREAEREAEREAEREAEREAERKD/CGS9P7fyonbRjpPU1VifKX1VWalbeOg0TlLYfqpNWVzDXyyzfbatXdxGH8Xa1iT6LQIiIAIiIAIiIAIiIAIiIAIiIAIiMNgIpBIaVha32c+qcX1ZOsqtTdxO9SGzpcmPT0CUuoWHDox5ENl+qk0ZawxiO66tju2UDXQo1NV6xb+r2hd7lIUIiIAIiIAIiIAIiIAIiIAIiIAITLsEbIKhDIWUPWWo2YavVJsy1taOMtZWF7dTfcji0uTLJxUaCRQYRt14bB99bM8+a+uzFZkdz8VYP5TFdRmbeIz6IiACIiACIiACIiACIiACIiACIiAC7RGwSYcsT7FNVt/K2WYN32yzzpJZOdoodkxN0vw71jfdwgPTMomH2Mb2i9pF+ngN1j7WoW9LbGt1aouACIiACIiACIiACIiACIiACIiACPQvgTgJYWePdbZfpV3FlvPbMZTFdWzTJ4GCAUWJiJTeylpt23GpdcR6XlyWnHrVIiACIiACIiACIiACIiACIiACIiACA0cgTkZwJbE8q2/l7bSz5qWctZ2jIfPJh6ZbeKjIEFOdTLLYMe20MYkdn+pnySBXEQEREAEREAEREAEREAEREAEREAERGHwEkomJ6Ft2Yxvbb6dNGtYHZbbO0id3oGBgnMCwztiObar0rW1WO28ddgzXk1VXsc3yIbkIiIAIiIAIiIAIiIAIiIAIiIAIiECaQFbSIWWdZRvLbb9MG3NZuzL9SuvzyYXkDhQ4yVGFOVL6WJbXz9NlzR+PCQvJ+FXFNsOFxCIgAiIgAiIgAiIgAiIgAiIgAiIgAiUJxAmMvGEp21iW18/TYd5YnyWza0yNoT5zBwoNipIQKX2RLNYX9bGW2IbrY12kp51qERABERABERABERABERABERABERCB/iOQl5TAKlL6WJbXj3VlfcYEUn6sTWECBcZFyYksfSyv2i+aO/ZnL0xtERABERABERABERABERABERABERCBwUUgL0mR0sWyqn1efTyOctZFeth1JIECR1nJjJQ8lsX9qv5gX7ak5io7VnYiIAIiIAIiIAIiIAIiIAIiIAIiIAI1AmWSDnmsssan5LEs7mOelCxPbteWNbbJxicUMs9AsYZlzLJsUvKyMqwhZWvXVtYmHqO+CIiACIiACIiACIiACIiACIiACIhAdwmUSk5E38TDFaXGlpXBR8qWvlmXsQm+fHKiVAIFxmVM82xSupSszFxZ4zBWRQREQAREQAREQAREQAREQAREQAREYHASKEpYZOlT8pSMV52nq2LTsPWJiNIJFAwqa55llyUv8p03jheTVbczNsun5CIgAiIgAiIgAiIgAiIgAiIgAiIgAjUCZZIVWazyxraiyxtj11DWjmNKnYFCY9ZlExJ5dq3quAbUeT6sndoiIAIiIAIiIAIiIAIiIAIiIAIiIAIDT6Bs0iLPrlWdvfo8H9bOtltKoMBBleRFnm2ejgstY0Nb1SIgAiIgAiIgAiIgAiIgAiIgAiIgAlMWgTIJjTybPF1MooqtHdtyAgVOqiY2iuyL9Hbhrcwfj1dfBERABERABERABERABERABERABESg/whUTV4U2Rfp4yuram/Ht5VAgaNuJT2q+rUXVdTupu+iuaUXAREQAREQAREQAREQAREQAREQgSmdQDuJiKJrL+u7rB3nq2rPcazbTqDAUSsJif4awwtVLQIiIAIiIAIiIAIiIAIiIAIiIAIiMLgItJLU6K8xMamOJFDotJWkCMa2Oo7zxnWn/cX+1RcBERABERABERABERABERABERABEcgm0EqSI9ubc636a3Vcai0dTaBggnaTF+2OT12kZCIgAiIgAiIgAiIgAiIgAiIgAiIgAlMWgXaTH+2Oj2l1PIGCCTqVBOmUn/ii1RcBERABERABERABERABERABERABERh8BDqV9OiUH0uoKwkUTtDNBEg3fXP9qkVABERABERABERABERABERABERABDpLoBvJDa6wq759ImIyJ+pG3WX33ViyfIqACIiACIiACIiACIiACIiACIiACExhBLqZPAGK4d3mEV+AEirdJi7/IiACIiACIiACIiACIiACIiACIjD1E4jzDd2+4q4nUOILsBeoZEpMR30REAEREAEREAEREAEREAEREAEREIEsAjankGXTLXm/J1DshfDClUixVNQWAREQAREQAREQAREQAREQAREQARGwBJg/sLL+bg9oAoUXG4NQQoVkVIuACIiACIiACIiACIiACIiACIjAtEcgzhMMBgKDIoESg4hBKaESE1JfBERABERABERABERABERABERABKYeAnEeYDBe2aBMoMSgikAqwRITU18EREAEREAEREAEREAEREAEREAEBg+Bovf1g2el2Sv5f1N+4M8zuGsLAAAAAElFTkSuQmCC;" vertex="1" parent="1">
          <mxGeometry x="-618" y="300" width="606.02" height="230" as="geometry" />
        </mxCell>
        <mxCell id="5n3xUrCpq9eOA1VWOiRV-19" style="edgeStyle=orthogonalEdgeStyle;rounded=0;orthogonalLoop=1;jettySize=auto;html=1;" edge="1" parent="1" source="5n3xUrCpq9eOA1VWOiRV-2" target="5n3xUrCpq9eOA1VWOiRV-5">
          <mxGeometry relative="1" as="geometry" />
        </mxCell>
        <mxCell id="5n3xUrCpq9eOA1VWOiRV-2" value="Dokument" style="rounded=0;whiteSpace=wrap;html=1;" vertex="1" parent="1">
          <mxGeometry x="-598" y="20" width="110" height="40" as="geometry" />
        </mxCell>
        <mxCell id="5n3xUrCpq9eOA1VWOiRV-21" style="edgeStyle=orthogonalEdgeStyle;rounded=0;orthogonalLoop=1;jettySize=auto;html=1;entryX=0.5;entryY=0;entryDx=0;entryDy=0;" edge="1" parent="1" source="5n3xUrCpq9eOA1VWOiRV-4" target="5n3xUrCpq9eOA1VWOiRV-6">
          <mxGeometry relative="1" as="geometry" />
        </mxCell>
        <mxCell id="5n3xUrCpq9eOA1VWOiRV-4" value="Index.js" style="rounded=0;whiteSpace=wrap;html=1;" vertex="1" parent="1">
          <mxGeometry x="-858" y="20" width="110" height="40" as="geometry" />
        </mxCell>
        <mxCell id="5n3xUrCpq9eOA1VWOiRV-20" style="edgeStyle=orthogonalEdgeStyle;rounded=0;orthogonalLoop=1;jettySize=auto;html=1;entryX=1;entryY=0.5;entryDx=0;entryDy=0;" edge="1" parent="1" source="5n3xUrCpq9eOA1VWOiRV-5" target="5n3xUrCpq9eOA1VWOiRV-4">
          <mxGeometry relative="1" as="geometry" />
        </mxCell>
        <mxCell id="5n3xUrCpq9eOA1VWOiRV-5" value="Chakra UI" style="rounded=0;whiteSpace=wrap;html=1;fillColor=#f5f5f5;fontColor=#333333;strokeColor=#666666;" vertex="1" parent="1">
          <mxGeometry x="-728" y="20" width="110" height="40" as="geometry" />
        </mxCell>
        <mxCell id="5n3xUrCpq9eOA1VWOiRV-22" style="edgeStyle=orthogonalEdgeStyle;rounded=0;orthogonalLoop=1;jettySize=auto;html=1;exitX=0.5;exitY=1;exitDx=0;exitDy=0;" edge="1" parent="1" source="5n3xUrCpq9eOA1VWOiRV-6" target="5n3xUrCpq9eOA1VWOiRV-7">
          <mxGeometry relative="1" as="geometry" />
        </mxCell>
        <mxCell id="5n3xUrCpq9eOA1VWOiRV-23" style="edgeStyle=orthogonalEdgeStyle;rounded=0;orthogonalLoop=1;jettySize=auto;html=1;exitX=0.437;exitY=0.999;exitDx=0;exitDy=0;exitPerimeter=0;" edge="1" parent="1" source="5n3xUrCpq9eOA1VWOiRV-6" target="5n3xUrCpq9eOA1VWOiRV-8">
          <mxGeometry relative="1" as="geometry">
            <Array as="points">
              <mxPoint x="-803" y="120" />
              <mxPoint x="-803" y="140" />
              <mxPoint x="-923" y="140" />
            </Array>
          </mxGeometry>
        </mxCell>
        <mxCell id="5n3xUrCpq9eOA1VWOiRV-6" value="Dashboard.js&lt;br&gt;&amp;lt;Komponente&amp;gt;" style="rounded=0;whiteSpace=wrap;html=1;" vertex="1" parent="1">
          <mxGeometry x="-858" y="80" width="110" height="40" as="geometry" />
        </mxCell>
        <mxCell id="5n3xUrCpq9eOA1VWOiRV-24" style="edgeStyle=orthogonalEdgeStyle;rounded=0;orthogonalLoop=1;jettySize=auto;html=1;endArrow=none;endFill=0;shape=link;" edge="1" parent="1" source="5n3xUrCpq9eOA1VWOiRV-7" target="5n3xUrCpq9eOA1VWOiRV-9">
          <mxGeometry relative="1" as="geometry" />
        </mxCell>
        <mxCell id="5n3xUrCpq9eOA1VWOiRV-7" value="head.js&lt;br&gt;&amp;lt;Komponente&amp;gt;" style="rounded=0;whiteSpace=wrap;html=1;" vertex="1" parent="1">
          <mxGeometry x="-748" y="160" width="110" height="40" as="geometry" />
        </mxCell>
        <mxCell id="5n3xUrCpq9eOA1VWOiRV-25" style="edgeStyle=orthogonalEdgeStyle;rounded=0;orthogonalLoop=1;jettySize=auto;html=1;entryX=0.5;entryY=0;entryDx=0;entryDy=0;" edge="1" parent="1" source="5n3xUrCpq9eOA1VWOiRV-8" target="5n3xUrCpq9eOA1VWOiRV-10">
          <mxGeometry relative="1" as="geometry" />
        </mxCell>
        <mxCell id="5n3xUrCpq9eOA1VWOiRV-8" value="desc.js&lt;br&gt;&amp;lt;Komponente&amp;gt;" style="rounded=0;whiteSpace=wrap;html=1;" vertex="1" parent="1">
          <mxGeometry x="-978" y="160" width="110" height="40" as="geometry" />
        </mxCell>
        <mxCell id="5n3xUrCpq9eOA1VWOiRV-9" value="Text&lt;br&gt;&amp;lt;Import&amp;gt;" style="rounded=0;whiteSpace=wrap;html=1;" vertex="1" parent="1">
          <mxGeometry x="-748" y="220" width="110" height="40" as="geometry" />
        </mxCell>
        <mxCell id="5n3xUrCpq9eOA1VWOiRV-26" style="edgeStyle=orthogonalEdgeStyle;rounded=0;orthogonalLoop=1;jettySize=auto;html=1;shape=link;" edge="1" parent="1" source="5n3xUrCpq9eOA1VWOiRV-10" target="5n3xUrCpq9eOA1VWOiRV-12">
          <mxGeometry relative="1" as="geometry" />
        </mxCell>
        <mxCell id="5n3xUrCpq9eOA1VWOiRV-28" style="edgeStyle=orthogonalEdgeStyle;rounded=0;orthogonalLoop=1;jettySize=auto;html=1;shape=link;" edge="1" parent="1" source="5n3xUrCpq9eOA1VWOiRV-10" target="5n3xUrCpq9eOA1VWOiRV-11">
          <mxGeometry relative="1" as="geometry" />
        </mxCell>
        <mxCell id="5n3xUrCpq9eOA1VWOiRV-46" value="" style="endArrow=none;html=1;rounded=0;exitX=1;exitY=0.5;exitDx=0;exitDy=0;entryX=0;entryY=1;entryDx=0;entryDy=0;strokeWidth=2;strokeColor=#0000FF;" edge="1" parent="1" source="5n3xUrCpq9eOA1VWOiRV-16" target="5n3xUrCpq9eOA1VWOiRV-45">
          <mxGeometry width="50" height="50" relative="1" as="geometry">
            <mxPoint x="-908" y="490" as="sourcePoint" />
            <mxPoint x="-513" y="521" as="targetPoint" />
          </mxGeometry>
        </mxCell>
        <mxCell id="5n3xUrCpq9eOA1VWOiRV-29" style="edgeStyle=orthogonalEdgeStyle;rounded=0;orthogonalLoop=1;jettySize=auto;html=1;entryX=0.5;entryY=0;entryDx=0;entryDy=0;shape=link;" edge="1" parent="1" source="5n3xUrCpq9eOA1VWOiRV-10" target="5n3xUrCpq9eOA1VWOiRV-13">
          <mxGeometry relative="1" as="geometry" />
        </mxCell>
        <mxCell id="5n3xUrCpq9eOA1VWOiRV-10" value="Grid&lt;br&gt;&amp;lt;Import&amp;gt;" style="rounded=0;whiteSpace=wrap;html=1;" vertex="1" parent="1">
          <mxGeometry x="-978" y="220" width="110" height="40" as="geometry" />
        </mxCell>
        <mxCell id="5n3xUrCpq9eOA1VWOiRV-27" style="edgeStyle=orthogonalEdgeStyle;rounded=0;orthogonalLoop=1;jettySize=auto;html=1;shape=link;" edge="1" parent="1" source="5n3xUrCpq9eOA1VWOiRV-11" target="5n3xUrCpq9eOA1VWOiRV-14">
          <mxGeometry relative="1" as="geometry" />
        </mxCell>
        <mxCell id="5n3xUrCpq9eOA1VWOiRV-11" value="Box&lt;br&gt;&amp;lt;Import&amp;gt;" style="rounded=0;whiteSpace=wrap;html=1;" vertex="1" parent="1">
          <mxGeometry x="-1098" y="280" width="110" height="40" as="geometry" />
        </mxCell>
        <mxCell id="5n3xUrCpq9eOA1VWOiRV-12" value="Box&lt;br&gt;&amp;lt;Import&amp;gt;" style="rounded=0;whiteSpace=wrap;html=1;" vertex="1" parent="1">
          <mxGeometry x="-978" y="280" width="110" height="40" as="geometry" />
        </mxCell>
        <mxCell id="5n3xUrCpq9eOA1VWOiRV-31" style="edgeStyle=orthogonalEdgeStyle;rounded=0;orthogonalLoop=1;jettySize=auto;html=1;entryX=0.5;entryY=0;entryDx=0;entryDy=0;shape=link;" edge="1" parent="1" source="5n3xUrCpq9eOA1VWOiRV-14" target="5n3xUrCpq9eOA1VWOiRV-15">
          <mxGeometry relative="1" as="geometry" />
        </mxCell>
        <mxCell id="5n3xUrCpq9eOA1VWOiRV-32" style="edgeStyle=orthogonalEdgeStyle;rounded=0;orthogonalLoop=1;jettySize=auto;html=1;entryX=0.5;entryY=0;entryDx=0;entryDy=0;shape=link;" edge="1" parent="1" source="5n3xUrCpq9eOA1VWOiRV-14" target="5n3xUrCpq9eOA1VWOiRV-16">
          <mxGeometry relative="1" as="geometry" />
        </mxCell>
        <mxCell id="5n3xUrCpq9eOA1VWOiRV-14" value="Flex&lt;br&gt;&amp;lt;Import&amp;gt;" style="rounded=0;whiteSpace=wrap;html=1;" vertex="1" parent="1">
          <mxGeometry x="-1098" y="340" width="110" height="40" as="geometry" />
        </mxCell>
        <mxCell id="5n3xUrCpq9eOA1VWOiRV-15" value="Circle&lt;br&gt;&amp;lt;Import&amp;gt;" style="rounded=0;whiteSpace=wrap;html=1;" vertex="1" parent="1">
          <mxGeometry x="-1158" y="420" width="110" height="40" as="geometry" />
        </mxCell>
        <mxCell id="5n3xUrCpq9eOA1VWOiRV-33" style="edgeStyle=orthogonalEdgeStyle;rounded=0;orthogonalLoop=1;jettySize=auto;html=1;shape=link;" edge="1" parent="1" source="5n3xUrCpq9eOA1VWOiRV-16" target="5n3xUrCpq9eOA1VWOiRV-17">
          <mxGeometry relative="1" as="geometry" />
        </mxCell>
        <mxCell id="5n3xUrCpq9eOA1VWOiRV-34" style="edgeStyle=orthogonalEdgeStyle;rounded=0;orthogonalLoop=1;jettySize=auto;html=1;shape=link;" edge="1" parent="1" source="5n3xUrCpq9eOA1VWOiRV-16" target="5n3xUrCpq9eOA1VWOiRV-18">
          <mxGeometry relative="1" as="geometry" />
        </mxCell>
        <mxCell id="5n3xUrCpq9eOA1VWOiRV-17" value="Box&lt;br&gt;&amp;lt;Import&amp;gt;" style="rounded=0;whiteSpace=wrap;html=1;" vertex="1" parent="1">
          <mxGeometry x="-1098" y="500" width="110" height="40" as="geometry" />
        </mxCell>
        <mxCell id="5n3xUrCpq9eOA1VWOiRV-18" value="Box&lt;br&gt;&amp;lt;Import&amp;gt;" style="rounded=0;whiteSpace=wrap;html=1;" vertex="1" parent="1">
          <mxGeometry x="-978" y="500" width="110" height="40" as="geometry" />
        </mxCell>
        <mxCell id="5n3xUrCpq9eOA1VWOiRV-35" value="" style="rounded=0;whiteSpace=wrap;html=1;fillColor=none;strokeColor=#00CC00;strokeWidth=2;" vertex="1" parent="1">
          <mxGeometry x="-608" y="357" width="590" height="123" as="geometry" />
        </mxCell>
        <mxCell id="5n3xUrCpq9eOA1VWOiRV-39" value="" style="rounded=0;whiteSpace=wrap;html=1;fillColor=none;strokeColor=#B266FF;strokeWidth=2;" vertex="1" parent="1">
          <mxGeometry x="-598" y="366" width="180" height="107" as="geometry" />
        </mxCell>
        <mxCell id="5n3xUrCpq9eOA1VWOiRV-40" value="" style="endArrow=none;html=1;rounded=0;exitX=1;exitY=0.5;exitDx=0;exitDy=0;entryX=0;entryY=0.5;entryDx=0;entryDy=0;strokeWidth=2;strokeColor=#B266FF;" edge="1" parent="1" target="5n3xUrCpq9eOA1VWOiRV-39">
          <mxGeometry width="50" height="50" relative="1" as="geometry">
            <mxPoint x="-748" y="320" as="sourcePoint" />
            <mxPoint x="-488" y="437" as="targetPoint" />
          </mxGeometry>
        </mxCell>
        <mxCell id="5n3xUrCpq9eOA1VWOiRV-37" value="" style="endArrow=none;html=1;rounded=0;exitX=1;exitY=0.5;exitDx=0;exitDy=0;entryX=0;entryY=0;entryDx=0;entryDy=0;strokeWidth=2;strokeColor=#00CC00;" edge="1" parent="1" source="5n3xUrCpq9eOA1VWOiRV-10" target="5n3xUrCpq9eOA1VWOiRV-35">
          <mxGeometry width="50" height="50" relative="1" as="geometry">
            <mxPoint x="-858" y="374" as="sourcePoint" />
            <mxPoint x="-808" y="324" as="targetPoint" />
          </mxGeometry>
        </mxCell>
        <mxCell id="5n3xUrCpq9eOA1VWOiRV-13" value="Box&lt;br&gt;&amp;lt;Import&amp;gt;" style="rounded=0;whiteSpace=wrap;html=1;" vertex="1" parent="1">
          <mxGeometry x="-858" y="280" width="110" height="40" as="geometry" />
        </mxCell>
        <mxCell id="5n3xUrCpq9eOA1VWOiRV-41" value="" style="rounded=0;whiteSpace=wrap;html=1;fillColor=none;strokeColor=#3399FF;strokeWidth=2;" vertex="1" parent="1">
          <mxGeometry x="-593" y="371" width="167" height="40" as="geometry" />
        </mxCell>
        <mxCell id="5n3xUrCpq9eOA1VWOiRV-42" value="" style="endArrow=none;html=1;rounded=0;exitX=1;exitY=0.5;exitDx=0;exitDy=0;entryX=0;entryY=0.5;entryDx=0;entryDy=0;strokeWidth=2;strokeColor=#3399FF;" edge="1" parent="1" source="5n3xUrCpq9eOA1VWOiRV-14" target="5n3xUrCpq9eOA1VWOiRV-41">
          <mxGeometry width="50" height="50" relative="1" as="geometry">
            <mxPoint x="-968" y="380" as="sourcePoint" />
            <mxPoint x="-818" y="480" as="targetPoint" />
          </mxGeometry>
        </mxCell>
        <mxCell id="5n3xUrCpq9eOA1VWOiRV-43" value="" style="rounded=0;whiteSpace=wrap;html=1;fillColor=none;strokeColor=#FF3399;strokeWidth=2;" vertex="1" parent="1">
          <mxGeometry x="-589" y="376" width="30" height="30" as="geometry" />
        </mxCell>
        <mxCell id="5n3xUrCpq9eOA1VWOiRV-44" value="" style="endArrow=none;html=1;rounded=0;exitX=1;exitY=0.5;exitDx=0;exitDy=0;entryX=0;entryY=0.75;entryDx=0;entryDy=0;strokeWidth=2;strokeColor=#FF66B3;" edge="1" parent="1" source="5n3xUrCpq9eOA1VWOiRV-15" target="5n3xUrCpq9eOA1VWOiRV-43">
          <mxGeometry width="50" height="50" relative="1" as="geometry">
            <mxPoint x="-938" y="429" as="sourcePoint" />
            <mxPoint x="-543" y="460" as="targetPoint" />
          </mxGeometry>
        </mxCell>
        <mxCell id="5n3xUrCpq9eOA1VWOiRV-16" value="SimpleGrid&lt;br&gt;&amp;lt;Import&amp;gt;" style="rounded=0;whiteSpace=wrap;html=1;" vertex="1" parent="1">
          <mxGeometry x="-1038" y="420" width="110" height="40" as="geometry" />
        </mxCell>
        <mxCell id="5n3xUrCpq9eOA1VWOiRV-45" value="" style="rounded=0;whiteSpace=wrap;html=1;fillColor=none;strokeColor=#0000FF;strokeWidth=2;" vertex="1" parent="1">
          <mxGeometry x="-554" y="376" width="122" height="30" as="geometry" />
        </mxCell>
        <mxCell id="5n3xUrCpq9eOA1VWOiRV-47" value="" style="rounded=0;whiteSpace=wrap;html=1;fillColor=none;strokeColor=#FF8000;strokeWidth=2;" vertex="1" parent="1">
          <mxGeometry x="-608" y="309" width="330" height="40" as="geometry" />
        </mxCell>
        <mxCell id="5n3xUrCpq9eOA1VWOiRV-49" value="" style="endArrow=none;html=1;rounded=0;exitX=0.5;exitY=1;exitDx=0;exitDy=0;entryX=0;entryY=0;entryDx=0;entryDy=0;strokeWidth=2;strokeColor=#FF8000;" edge="1" parent="1" source="5n3xUrCpq9eOA1VWOiRV-9" target="5n3xUrCpq9eOA1VWOiRV-47">
          <mxGeometry width="50" height="50" relative="1" as="geometry">
            <mxPoint x="-618" y="230" as="sourcePoint" />
            <mxPoint x="-223" y="261" as="targetPoint" />
          </mxGeometry>
        </mxCell>
      </root>
    </mxGraphModel>
  </diagram>
</mxfile>
